SplineFontDB: 3.0
FontName: Lavi-Regular
FullName: Lavi Regular
FamilyName: Lavi
Weight: Regular
Copyright: A creation by Ruben Holthuijsen aka Rholt (2009).\nMaintainance and modification by David Revoy for the webcomic www.peppercarrot.com.\nCorrection by Solve Svartskogen.\nAdaptation for Cyrillic glyph imported from a derivative done by Gleki "lagleki" Arxokuna ( https://github.com/lagleki ).\nGNU GPL V3 ( https://www.gnu.org/copyleft/gpl.html)\nRepository and sources available here: https://github.com/Deevad/peppercarrot_fonts/\n
Version: 2.0
ItalicAngle: 0
UnderlinePosition: -240
UnderlineWidth: 120
Ascent: 1638
Descent: 410
InvalidEm: 0
LayerCount: 2
Layer: 0 1 "Back" 1
Layer: 1 0 "Fore" 0
XUID: [1021 91 1847977381 16229978]
StyleMap: 0x0040
FSType: 0
OS2Version: 2
OS2_WeightWidthSlopeOnly: 0
OS2_UseTypoMetrics: 1
CreationTime: 1231154524
ModificationTime: 1564779557
PfmFamily: 65
TTFWeight: 400
TTFWidth: 5
LineGap: 122
VLineGap: 0
Panose: 3 0 0 0 0 0 0 0 0 0
OS2TypoAscent: 1556
OS2TypoAOffset: 0
OS2TypoDescent: -410
OS2TypoDOffset: 0
OS2TypoLinegap: 122
OS2WinAscent: 2030
OS2WinAOffset: 0
OS2WinDescent: 410
OS2WinDOffset: 0
HheadAscent: 2030
HheadAOffset: 0
HheadDescent: -410
HheadDOffset: 0
OS2SubXSize: 1434
OS2SubYSize: 1331
OS2SubXOff: 0
OS2SubYOff: 293
OS2SupXSize: 1434
OS2SupYSize: 1331
OS2SupXOff: 0
OS2SupYOff: 928
OS2StrikeYSize: 102
OS2StrikeYPos: 512
OS2CapHeight: 1434
OS2XHeight: 1300
OS2Vendor: 'RL  '
OS2CodePages: 20000007.00000000
OS2UnicodeRanges: 800002af.0000000b.00000000.00000000
Lookup: 258 0 0 "'kern' Horizontal Kerning in Latin lookup 0" { "'kern' Horizontal Kerning in Latin lookup 0 subtable"  } ['kern' ('latn' <'dflt' > ) ]
Lookup: 258 0 0 "ZLM-TEMPLATE-zlm-'kern' Horizontal Kerning lookup 1" { "ZLM-TEMPLATE-zlm-'kern' Horizontal Kerning lookup 1-1" [150,15,0] } ['kern' ('DFLT' <'dflt' > ) ]
MarkAttachClasses: 1
DEI: 91125
KernClass2: 22 22 "ZLM-TEMPLATE-zlm-'kern' Horizontal Kerning lookup 1-1"

StartChar: .notdef
Encoding: 1114112 -1 0
Width: 1556
Flags: W
HStem: 0 128<384 1134> 1408 128<446 1196>
VStem: 256 128<128 355.163> 318 128<1180.84 1408> 1134 128<128 355.163> 1196 128<1180.84 1408>
LayerCount: 2
Fore
SplineSet
256 0 m 1xe8
 318 1536 l 1
 1324 1536 l 1xd4
 1262 0 l 1
 256 0 l 1xe8
384 128 m 1xe0
 1134 128 l 1xe8
 1196 1408 l 1
 446 1408 l 1xd4
 384 128 l 1xe0
EndSplineSet
Validated: 1
EndChar

StartChar: exclam
Encoding: 33 33 4
Width: 699
GlyphClass: 2
Flags: HW
LayerCount: 2
Fore
SplineSet
223 169 m 256
 223 191 227.333333333 212 236 232 c 128
 244.666666667 252 256.333333333 269.333333333 271 284 c 128
 285.666666667 298.666666667 303 310.333333333 323 319 c 128
 343 327.666666667 364.333333333 332 387 332 c 0
 410.333333333 332 431.666666667 327.666666667 451 319 c 0
 471.666666667 309.666666667 488.333333333 298 501 284 c 0
 514.333333333 269.333333333 525 252 533 232 c 128
 541 212 545 192.333333333 545 173 c 0
 545 171 545 171 545 169 c 256
 545 148.333333333 541 127.333333333 533 106 c 0
 526.333333333 88 515.666666667 70.6666666667 501 54 c 0
 487 38 470.333333333 26 451 18 c 0
 430.333333333 9.33333333333 409 5 387 5 c 0
 364.333333333 5 343 9.33333333333 323 18 c 128
 303 26.6666666667 285.666666667 38.3333333333 271 53 c 128
 256.333333333 67.6666666667 244.666666667 85 236 105 c 128
 227.333333333 125 223 146.333333333 223 169 c 256
618 1468 m 2
 618 1434 l 1
 588 944 l 2
 588 939.333333333 587 931.333333333 585 920 c 0
 582.333333333 906 580 891.333333333 578 876 c 0
 575.333333333 857.333333333 572 837 568 815 c 128
 564 793 560.333333333 771.333333333 557 750 c 128
 553.666666667 728.666666667 550.333333333 708.333333333 547 689 c 128
 543.666666667 669.666666667 540.666666667 653 538 639 c 0
 534 618.333333333 531 602 529 590 c 0
 525.666666667 572 520.333333333 554 513 536 c 0
 506.333333333 520 496.666666667 506.333333333 484 495 c 128
 471.333333333 483.666666667 453 478 429 478 c 0
 404.333333333 478 384.333333333 486 369 502 c 0
 353 518.666666667 345 539.666666667 345 565 c 2
 345 587 l 1
 410 1015 l 1
 442 1507 l 2
 443.333333333 1529 452.333333333 1546.66666667 469 1560 c 128
 485.666666667 1573.33333333 504 1580 524 1580 c 0
 586.666666667 1580 618 1542.66666667 618 1468 c 2
EndSplineSet
Validated: 1
EndChar

StartChar: numbersign
Encoding: 35 35 6
Width: 1421
GlyphClass: 2
Flags: HW
LayerCount: 2
Fore
SplineSet
134 78 m 0
 134 112 141 145.166666667 155 177.5 c 128
 169 209.833333333 184.166666667 242.166666667 200.5 274.5 c 128
 216.833333333 306.833333333 232 339.5 246 372.5 c 128
 260 405.5 267 439.666666667 267 475 c 1
 102 475 l 2
 92 475 83.1666666667 477.833333333 75.5 483.5 c 128
 67.8333333333 489.166666667 61.1666666667 496.333333333 55.5 505 c 128
 49.8333333333 513.666666667 45.6666666667 522.666666667 43 532 c 128
 40.3333333333 541.333333333 39 550 39 558 c 0
 39 565.333333333 40 573.5 42 582.5 c 128
 44 591.5 47 600 51 608 c 128
 55 616 60.3333333333 625.166666667 67 635.5 c 128
 73.6666666667 645.833333333 81.6666666667 651 91 651 c 2
 313 651 l 1
 359 953 l 1
 154 953 l 2
 144 953 135.166666667 955.833333333 127.5 961.5 c 128
 119.833333333 967.166666667 113.166666667 974.333333333 107.5 983 c 128
 101.833333333 991.666666667 97.6666666667 1000.66666667 95 1010 c 128
 92.3333333333 1019.33333333 91 1028 91 1036 c 0
 91 1043.33333333 92 1051.5 94 1060.5 c 128
 96 1069.5 99 1078 103 1086 c 128
 107 1094 112.333333333 1103.16666667 119 1113.5 c 128
 125.666666667 1123.83333333 133.666666667 1129 143 1129 c 2
 382 1129 l 1
 382 1433 l 2
 382 1443.66666667 384.833333333 1453.66666667 390.5 1463 c 128
 396.166666667 1472.33333333 403 1480 411 1486 c 128
 419 1492 427.833333333 1496.33333333 437.5 1499 c 128
 447.166666667 1501.66666667 456.666666667 1503 466 1503 c 0
 484.666666667 1503 499.5 1499.33333333 510.5 1492 c 128
 521.5 1484.66666667 529.833333333 1475.16666667 535.5 1463.5 c 128
 541.166666667 1451.83333333 544.666666667 1438.66666667 546 1424 c 0
 548.666666667 1404 549.666666667 1389 549 1379 c 0
 547 1339.66666667 545.5 1297.83333333 544.5 1253.5 c 128
 543.5 1209.16666667 543 1167.66666667 543 1129 c 1
 926 1129 l 1
 926 1139 926 1139 926 1149 c 1
 926.666666667 1154.33333333 927.333333333 1160 928 1166 c 128
 928.666666667 1172 929 1176.66666667 929 1180 c 1
 931 1189.33333333 932.5 1207 933.5 1233 c 128
 934.5 1259 935.5 1286.5 936.5 1315.5 c 128
 937.5 1344.5 938 1372 938 1398 c 128
 938 1424 939 1441.66666667 941 1451 c 0
 946.333333333 1469.66666667 955.833333333 1483 969.5 1491 c 128
 983.166666667 1499 999.666666667 1503 1019 1503 c 0
 1063 1503 1090.66666667 1481.66666667 1102 1439 c 1
 1102 1353 l 2
 1102 1323 1102 1323 1102 1295.5 c 128
 1102 1277.16666667 1101.66666667 1259 1101 1241 c 128
 1100.33333333 1223 1100 1204.66666667 1100 1186 c 128
 1100 1167.33333333 1098.66666667 1147.33333333 1096 1126 c 1
 1264 1126 l 2
 1272 1126 1279 1122.66666667 1285 1116 c 128
 1291 1109.33333333 1296.33333333 1101.5 1301 1092.5 c 128
 1305.66666667 1083.5 1309.16666667 1074.33333333 1311.5 1065 c 128
 1313.83333333 1055.66666667 1315 1048 1315 1042 c 0
 1315 1033.33333333 1313.33333333 1024.16666667 1310 1014.5 c 128
 1306.66666667 1004.83333333 1302 995.833333333 1296 987.5 c 128
 1290 979.166666667 1282.66666667 972.333333333 1274 967 c 128
 1265.33333333 961.666666667 1256 959 1246 959 c 2
 1085 959 l 1
 1042 648 l 1
 1212 648 l 2
 1220 648 1227.16666667 644.666666667 1233.5 638 c 128
 1239.83333333 631.333333333 1245.16666667 623.5 1249.5 614.5 c 128
 1253.83333333 605.5 1257.33333333 596.333333333 1260 587 c 128
 1262.66666667 577.666666667 1264 570 1264 564 c 0
 1264 555.333333333 1262.33333333 546.166666667 1259 536.5 c 128
 1255.66666667 526.833333333 1250.83333333 517.833333333 1244.5 509.5 c 128
 1238.16666667 501.166666667 1230.66666667 494.333333333 1222 489 c 128
 1213.33333333 483.666666667 1204 481 1194 481 c 2
 1004 481 l 1
 985.333333333 405.666666667 963.5 330 938.5 254 c 128
 913.5 178 881.666666667 106.666666667 843 40 c 1
 833 26.6666666667 822.5 16.6666666667 811.5 10 c 128
 800.5 3.33333333333 787 0 771 0 c 0
 746.333333333 0 726.166666667 7.66666666667 710.5 23 c 128
 694.833333333 38.3333333333 687 58.3333333333 687 83 c 0
 687 116.333333333 694.166666667 149 708.5 181 c 128
 722.833333333 213 738.833333333 245 756.5 277 c 128
 774.166666667 309 790.166666667 341.333333333 804.5 374 c 128
 818.833333333 406.666666667 826 440.333333333 826 475 c 1
 818 475.666666667 803.833333333 476 783.5 476 c 128
 763.166666667 476 741.666666667 476.166666667 719 476.5 c 128
 696.333333333 476.833333333 674.666666667 477.333333333 654 478 c 1
 613 478 613 478 612 478 c 0
 608 477.333333333 592.666666667 477 566 477 c 1
 564 475.666666667 546.333333333 475 513 475 c 1
 493 473 472.333333333 472 451 472 c 1
 445 461 l 1
 441 447.666666667 436 427 430 399 c 128
 424 371 416.666666667 339.833333333 408 305.5 c 128
 399.333333333 271.166666667 388.833333333 236 376.5 200 c 128
 364.166666667 164 350.166666667 131.166666667 334.5 101.5 c 128
 318.833333333 71.8333333333 301.166666667 47.5 281.5 28.5 c 128
 261.833333333 9.5 239.666666667 0 215 0 c 0
 191.666666667 0 172.333333333 7.5 157 22.5 c 128
 141.666666667 37.5 134 56 134 78 c 0
486 651 m 1
 866 651 l 1
 867.333333333 657.666666667 869 664.333333333 871 671 c 0
 872.333333333 676.333333333 873.5 682 874.5 688 c 128
 875.5 694 876.666666667 698.666666667 878 702 c 1
 880.666666667 718.666666667 884 740.666666667 888 768 c 128
 892 795.333333333 895.666666667 822.333333333 899 849 c 128
 902.333333333 875.666666667 905.333333333 898.833333333 908 918.5 c 128
 910.666666667 938.166666667 912 948.666666667 912 950 c 2
 912 959 l 1
 902.666666667 958.333333333 886.333333333 958 863 958 c 128
 839.666666667 958 814.833333333 957.833333333 788.5 957.5 c 128
 762.166666667 957.166666667 737.166666667 956.833333333 713.5 956.5 c 128
 689.833333333 956.166666667 673.333333333 956 664 956 c 0
 654 955.333333333 641.5 954.666666667 626.5 954 c 128
 611.5 953.333333333 597 953 583 953 c 0
 571 953 554 952 532 950 c 1
 526 927 l 1
 486 651 l 1
EndSplineSet
Validated: 1
EndChar

StartChar: dollar
Encoding: 36 36 7
Width: 1280
GlyphClass: 2
Flags: HW
LayerCount: 2
Fore
SplineSet
515 0 m 1
 489 0 459.666666667 3.16666666667 427 9.5 c 128
 394.333333333 15.8333333333 360.833333333 24 326.5 34 c 128
 292.166666667 44 258.666666667 56.3333333333 226 71 c 128
 193.333333333 85.6666666667 164.166666667 103 138.5 123 c 128
 112.833333333 143 92.1666666667 165.833333333 76.5 191.5 c 128
 60.8333333333 217.166666667 53 246 53 278 c 0
 53 301.333333333 60.3333333333 321.333333333 75 338 c 128
 89.6666666667 354.666666667 109.666666667 363 135 363 c 0
 148.333333333 363 162.333333333 358.833333333 177 350.5 c 128
 191.666666667 342.166666667 207.333333333 331.5 224 318.5 c 128
 240.666666667 305.5 258.833333333 291.333333333 278.5 276 c 128
 298.166666667 260.666666667 319.833333333 246.166666667 343.5 232.5 c 128
 367.166666667 218.833333333 393.166666667 206.166666667 421.5 194.5 c 128
 449.833333333 182.833333333 481 177 515 177 c 1
 515 757 l 1
 410 785 l 2
 378 793.666666667 345.833333333 805 313.5 819 c 128
 281.166666667 833 251.333333333 850.333333333 224 871 c 128
 196.666666667 891.666666667 173 915.666666667 153 943 c 128
 133 970.333333333 119.333333333 1001.66666667 112 1037 c 1
 112 1098 l 2
 112 1155.33333333 121 1207.83333333 139 1255.5 c 128
 157 1303.16666667 182.333333333 1344.83333333 215 1380.5 c 128
 247.666666667 1416.16666667 287 1445.16666667 333 1467.5 c 128
 379 1489.83333333 430.333333333 1504.33333333 487 1511 c 1
 515 1511 l 1
 515 1664 l 1
 689 1664 l 1
 689 1513 l 1
 715.666666667 1510.33333333 744.666666667 1509 776 1509 c 128
 807.333333333 1509 838.666666667 1506 870 1500 c 128
 901.333333333 1494 931.666666667 1487.33333333 961 1480 c 128
 990.333333333 1472.66666667 1016.16666667 1463.66666667 1038.5 1453 c 128
 1060.83333333 1442.33333333 1078.83333333 1429.5 1092.5 1414.5 c 128
 1106.16666667 1399.5 1113 1382 1113 1362 c 0
 1113 1338.66666667 1105.66666667 1318.66666667 1091 1302 c 128
 1076.33333333 1285.33333333 1056.33333333 1277 1031 1277 c 2
 1019 1277 l 1
 963.666666667 1289 908.833333333 1301.83333333 854.5 1315.5 c 128
 800.166666667 1329.16666667 745 1336 689 1336 c 1
 689 892 l 1
 850 849 l 2
 896 837 941.166666667 820.5 985.5 799.5 c 128
 1029.83333333 778.5 1069.16666667 752.666666667 1103.5 722 c 128
 1137.83333333 691.333333333 1165.66666667 655.5 1187 614.5 c 128
 1208.33333333 573.5 1219 527 1219 475 c 0
 1219 429.666666667 1211.66666667 387.833333333 1197 349.5 c 128
 1182.33333333 311.166666667 1162.33333333 276 1137 244 c 128
 1111.66666667 212 1081.83333333 183.333333333 1047.5 158 c 128
 1013.16666667 132.666666667 976.333333333 110.333333333 937 91 c 128
 897.666666667 71.6666666667 856.833333333 55.5 814.5 42.5 c 128
 772.166666667 29.5 730.333333333 19.6666666667 689 13 c 1
 689 -133 l 1
 515 -133 l 1
 515 0 l 1
689 711 m 1
 689 191 l 1
 730.333333333 199 772.333333333 210.5 815 225.5 c 128
 857.666666667 240.5 896.333333333 259.5 931 282.5 c 128
 965.666666667 305.5 994 332.833333333 1016 364.5 c 128
 1038 396.166666667 1049 433 1049 475 c 0
 1049 500.333333333 1042.83333333 523.5 1030.5 544.5 c 128
 1018.16666667 565.5 1002.33333333 584.166666667 983 600.5 c 128
 963.666666667 616.833333333 942.333333333 630.666666667 919 642 c 128
 895.666666667 653.333333333 872.666666667 662 850 668 c 2
 689 711 l 1
282 1095 m 0
 282 1075.66666667 286.666666667 1058.66666667 296 1044 c 128
 305.333333333 1029.33333333 317 1016.5 331 1005.5 c 128
 345 994.5 360.666666667 985.333333333 378 978 c 128
 395.333333333 970.666666667 412 965 428 961 c 2
 515 940 l 1
 515 1337 l 1
 481.666666667 1333 450.833333333 1325.66666667 422.5 1315 c 128
 394.166666667 1304.33333333 369.5 1289.5 348.5 1270.5 c 128
 327.5 1251.5 311.166666667 1227.66666667 299.5 1199 c 128
 287.833333333 1170.33333333 282 1135.66666667 282 1095 c 0
EndSplineSet
Validated: 1
EndChar

StartChar: percent
Encoding: 37 37 8
Width: 1659
GlyphClass: 2
Flags: HW
LayerCount: 2
Fore
SplineSet
165 50 m 0
 165 62 165.666666667 73.1666666667 167 83.5 c 128
 168.333333333 93.8333333333 173.666666667 103.333333333 183 112 c 1
 786 765 l 1
 1078 1114 l 2
 1086.66666667 1124 1097.66666667 1140.83333333 1111 1164.5 c 128
 1124.33333333 1188.16666667 1139 1214.5 1155 1243.5 c 128
 1171 1272.5 1188 1302.83333333 1206 1334.5 c 128
 1224 1366.16666667 1241.5 1395 1258.5 1421 c 128
 1275.5 1447 1291.33333333 1468.66666667 1306 1486 c 0
 1320.66666667 1502.66666667 1334 1512 1346 1514 c 0
 1350 1514.66666667 1353.66666667 1515 1357 1515 c 0
 1375.66666667 1514.33333333 1392.33333333 1507.33333333 1407 1494 c 0
 1423.66666667 1478.66666667 1432 1458 1432 1432 c 0
 1432 1408.66666667 1428 1383.66666667 1420 1357 c 128
 1412 1330.33333333 1401.66666667 1303 1389 1275 c 128
 1376.33333333 1247 1361.83333333 1219.16666667 1345.5 1191.5 c 128
 1329.16666667 1163.83333333 1312.66666667 1137.66666667 1296 1113 c 128
 1279.33333333 1088.33333333 1263.33333333 1066 1248 1046 c 0
 1233.33333333 1026.66666667 1220 1010 1208 996 c 2
 690 383 l 1
 301 -12 l 2
 293.666666667 -19.3333333333 285.333333333 -24 276 -26 c 0
 266 -28 256.666666667 -29 248 -29 c 0
 224.666666667 -29 205 -21.3333333333 189 -6 c 128
 173 9.33333333333 165 28 165 50 c 0
974 357 m 0
 974 401.666666667 981.666666667 445.333333333 997 488 c 128
 1012.33333333 530.666666667 1033.83333333 568.666666667 1061.5 602 c 128
 1089.16666667 635.333333333 1122.5 662.166666667 1161.5 682.5 c 128
 1200.5 702.833333333 1244 713 1292 713 c 0
 1340.66666667 713 1384.5 703 1423.5 683 c 128
 1462.5 663 1495.83333333 636.5 1523.5 603.5 c 128
 1551.16666667 570.5 1572.5 532.5 1587.5 489.5 c 128
 1602.5 446.5 1610 402.333333333 1610 357 c 0
 1610 311 1602.5 266.666666667 1587.5 224 c 128
 1572.5 181.333333333 1551.16666667 143.333333333 1523.5 110 c 128
 1495.83333333 76.6666666667 1462.5 50 1423.5 30 c 128
 1384.5 10 1340.66666667 0 1292 0 c 0
 1244 0 1200.5 10.1666666667 1161.5 30.5 c 128
 1122.5 50.8333333333 1089.16666667 77.6666666667 1061.5 111 c 128
 1033.83333333 144.333333333 1012.33333333 182.333333333 997 225 c 128
 981.666666667 267.666666667 974 311.666666667 974 357 c 0
1145 357 m 256
 1145 336.333333333 1148.16666667 315.333333333 1154.5 294 c 128
 1160.83333333 272.666666667 1170.16666667 253.333333333 1182.5 236 c 128
 1194.83333333 218.666666667 1210 204.5 1228 193.5 c 128
 1246 182.5 1266.33333333 177 1289 177 c 0
 1313 177 1334.33333333 182.166666667 1353 192.5 c 128
 1371.66666667 202.833333333 1387.33333333 216.5 1400 233.5 c 128
 1412.66666667 250.5 1422.33333333 269.833333333 1429 291.5 c 128
 1435.66666667 313.166666667 1439 335 1439 357 c 256
 1439 379 1435.66666667 400.666666667 1429 422 c 128
 1422.33333333 443.333333333 1412.66666667 462.5 1400 479.5 c 128
 1387.33333333 496.5 1371.66666667 510.166666667 1353 520.5 c 128
 1334.33333333 530.833333333 1313 536 1289 536 c 0
 1266.33333333 536 1246 530.5 1228 519.5 c 128
 1210 508.5 1194.83333333 494.333333333 1182.5 477 c 128
 1170.16666667 459.666666667 1160.83333333 440.5 1154.5 419.5 c 128
 1148.16666667 398.5 1145 377.666666667 1145 357 c 256
107 1119 m 0
 107 1165.66666667 115 1210.16666667 131 1252.5 c 128
 147 1294.83333333 169.333333333 1332.33333333 198 1365 c 128
 226.666666667 1397.66666667 261 1423.66666667 301 1443 c 128
 341 1462.33333333 385.333333333 1472 434 1472 c 0
 483.333333333 1472 528.333333333 1462.66666667 569 1444 c 128
 609.666666667 1425.33333333 644.666666667 1400.16666667 674 1368.5 c 128
 703.333333333 1336.83333333 726.166666667 1299.83333333 742.5 1257.5 c 128
 758.833333333 1215.16666667 767 1170 767 1122 c 0
 767 1075.33333333 759.166666667 1030.66666667 743.5 988 c 128
 727.833333333 945.333333333 705.833333333 907.5 677.5 874.5 c 128
 649.166666667 841.5 615.166666667 815.166666667 575.5 795.5 c 128
 535.833333333 775.833333333 491.666666667 766 443 766 c 256
 394.333333333 766 349.5 775.5 308.5 794.5 c 128
 267.5 813.5 232 839.166666667 202 871.5 c 128
 172 903.833333333 148.666666667 941.333333333 132 984 c 128
 115.333333333 1026.66666667 107 1071.66666667 107 1119 c 0
278 1122 m 0
 278 1100.66666667 281.833333333 1079 289.5 1057 c 128
 297.166666667 1035 308 1015 322 997 c 128
 336 979 352.833333333 964.333333333 372.5 953 c 128
 392.166666667 941.666666667 413.666666667 936 437 936 c 0
 461.666666667 936 484 941.5 504 952.5 c 128
 524 963.5 540.666666667 977.666666667 554 995 c 128
 567.333333333 1012.33333333 577.666666667 1032.16666667 585 1054.5 c 128
 592.333333333 1076.83333333 596 1099.33333333 596 1122 c 0
 596 1144 592.5 1165.66666667 585.5 1187 c 128
 578.5 1208.33333333 568.166666667 1227.5 554.5 1244.5 c 128
 540.833333333 1261.5 524.333333333 1275.33333333 505 1286 c 128
 485.666666667 1296.66666667 464 1302 440 1302 c 0
 416.666666667 1302 395 1296.83333333 375 1286.5 c 128
 355 1276.16666667 337.833333333 1262.66666667 323.5 1246 c 128
 309.166666667 1229.33333333 298 1210.16666667 290 1188.5 c 128
 282 1166.83333333 278 1144.66666667 278 1122 c 0
EndSplineSet
Validated: 1
EndChar

StartChar: ampersand
Encoding: 38 38 9
Width: 1247
GlyphClass: 2
Flags: HW
LayerCount: 2
Fore
SplineSet
868 234 m 1
 841.333333333 209.333333333 813.666666667 183.833333333 785 157.5 c 128
 756.333333333 131.166666667 726 107 694 85 c 128
 662 63 628.333333333 45 593 31 c 128
 557.666666667 17 520.666666667 10 482 10 c 0
 426 10 371.333333333 18.5 318 35.5 c 128
 264.666666667 52.5 217.333333333 77.1666666667 176 109.5 c 128
 134.666666667 141.833333333 101.333333333 181.5 76 228.5 c 128
 50.6666666667 275.5 38 329 38 389 c 0
 38 440.333333333 48 484.833333333 68 522.5 c 128
 88 560.166666667 112.666666667 594.666666667 142 626 c 128
 171.333333333 657.333333333 203 687.5 237 716.5 c 128
 271 745.5 302.666666667 777.333333333 332 812 c 1
 308 836 284.333333333 860 261 884 c 128
 237.666666667 908 217 933.166666667 199 959.5 c 128
 181 985.833333333 166.666666667 1014.16666667 156 1044.5 c 128
 145.333333333 1074.83333333 140 1108 140 1144 c 0
 140 1194.66666667 151.666666667 1241.33333333 175 1284 c 128
 198.333333333 1326.66666667 229 1363.33333333 267 1394 c 128
 305 1424.66666667 348 1448.5 396 1465.5 c 128
 444 1482.5 491.333333333 1491 538 1491 c 0
 582 1491 626 1481.83333333 670 1463.5 c 128
 714 1445.16666667 753.333333333 1420.5 788 1389.5 c 128
 822.666666667 1358.5 850.666666667 1322.5 872 1281.5 c 128
 893.333333333 1240.5 904 1197.33333333 904 1152 c 0
 904 1114 897.333333333 1078.66666667 884 1046 c 128
 870.666666667 1013.33333333 853 983 831 955 c 128
 809 927 784.333333333 900.833333333 757 876.5 c 128
 729.666666667 852.166666667 702 829 674 807 c 1
 670 803 l 2
 670 802 670 802 670 801 c 2
 884 502 l 1
 1038 716 l 2
 1046 726.666666667 1055 733.833333333 1065 737.5 c 128
 1075 741.166666667 1086 743 1098 743 c 0
 1120.66666667 743 1139.66666667 736.666666667 1155 724 c 128
 1170.33333333 711.333333333 1178 693.333333333 1178 670 c 0
 1178 659.333333333 1176 648.5 1172 637.5 c 128
 1168 626.5 1162.66666667 617 1156 609 c 1
 984 373 l 1
 984 371.666666667 983.333333333 370 982 368 c 128
 980.666666667 366 980 364.333333333 980 363 c 2
 980 360 l 1
 980 357 l 2
 980 355.666666667 980.666666667 353.666666667 982 351 c 0
 982 349.666666667 982.666666667 348.333333333 984 347 c 2
 1198 58 l 2
 1203.33333333 50.6666666667 1206.66666667 43.1666666667 1208 35.5 c 128
 1209.33333333 27.8333333333 1210 20 1210 12 c 0
 1210 -8 1203 -25 1189 -39 c 128
 1175 -53 1158 -60 1138 -60 c 256
 1118 -60 1101.33333333 -55 1088 -45 c 128
 1074.66666667 -35 1061.33333333 -22 1048 -6 c 1
 872 229 l 1
 868 234 l 1
198 392 m 0
 198 353.333333333 206.666666667 319.666666667 224 291 c 128
 241.333333333 262.333333333 263.666666667 238.666666667 291 220 c 128
 318.333333333 201.333333333 349.333333333 187.5 384 178.5 c 128
 418.666666667 169.5 453.333333333 165 488 165 c 0
 504 165 520.666666667 168.666666667 538 176 c 128
 555.333333333 183.333333333 572.333333333 192.5 589 203.5 c 128
 605.666666667 214.5 621.333333333 226.166666667 636 238.5 c 128
 650.666666667 250.833333333 663.333333333 262 674 272 c 0
 682 279.333333333 691.666666667 288.5 703 299.5 c 128
 714.333333333 310.5 726 321.666666667 738 333 c 1
 750 345.666666667 762.666666667 359 776 373 c 1
 572 668 l 1
 570.666666667 671.333333333 567.666666667 676.166666667 563 682.5 c 128
 558.333333333 688.833333333 553 695.333333333 547 702 c 128
 541 708.666666667 534.666666667 714.333333333 528 719 c 128
 521.333333333 723.666666667 514.666666667 726 508 726 c 0
 489.333333333 726 468.666666667 720.5 446 709.5 c 128
 423.333333333 698.5 400.333333333 684 377 666 c 128
 353.666666667 648 331.333333333 627.333333333 310 604 c 128
 288.666666667 580.666666667 269.666666667 556.666666667 253 532 c 128
 236.333333333 507.333333333 223 482.833333333 213 458.5 c 128
 203 434.166666667 198 412 198 392 c 0
294 1144 m 0
 294 1122 301 1097 315 1069 c 128
 329 1041 346.333333333 1014.66666667 367 990 c 128
 387.666666667 965.333333333 410.666666667 944.666666667 436 928 c 128
 461.333333333 911.333333333 485.333333333 903 508 903 c 0
 524 903 541 907 559 915 c 128
 577 923 595 933.5 613 946.5 c 128
 631 959.5 648 974.666666667 664 992 c 128
 680 1009.33333333 694.333333333 1027.16666667 707 1045.5 c 128
 719.666666667 1063.83333333 730 1082.16666667 738 1100.5 c 128
 746 1118.83333333 750 1136 750 1152 c 0
 750 1174.66666667 743 1197 729 1219 c 128
 715 1241 697.666666667 1260.66666667 677 1278 c 128
 656.333333333 1295.33333333 633.666666667 1309.33333333 609 1320 c 128
 584.333333333 1330.66666667 561.333333333 1336 540 1336 c 0
 514.666666667 1336 487.666666667 1331.16666667 459 1321.5 c 128
 430.333333333 1311.83333333 403.666666667 1298.5 379 1281.5 c 128
 354.333333333 1264.5 334 1244.33333333 318 1221 c 128
 302 1197.66666667 294 1172 294 1144 c 0
EndSplineSet
Validated: 1
EndChar

StartChar: quotesingle
Encoding: 39 39 10
Width: 542
GlyphClass: 2
Flags: HW
LayerCount: 2
Fore
SplineSet
423 1497 m 1
 423 1438 l 2
 423 1354 404 1268.33333333 366 1181 c 128
 328 1093.66666667 286.666666667 1034 242 1002 c 0
 218 985.333333333 196 977 176 977 c 0
 142.666666667 977 114.666666667 988.333333333 92 1011 c 0
 76.6666666667 1025.66666667 69.0841121495 1038.48149766 69.2523364486 1049.44449297 c 0
 69.3470085715 1055.61417264 71.5962297553 1061.13267499 76 1066 c 0
 155.333333333 1158 206.666666667 1260.66666667 230 1374 c 0
 238 1410 244 1443 248 1473 c 0
 256 1526.33333333 283.5 1553 330.5 1553 c 128
 377.5 1553 408.333333333 1534.33333333 423 1497 c 1
EndSplineSet
Validated: 1
EndChar

StartChar: parenleft
Encoding: 40 40 11
Width: 720
GlyphClass: 2
Flags: HW
LayerCount: 2
Fore
SplineSet
607 -341 m 0
 541.666666667 -281 481.833333333 -216.5 427.5 -147.5 c 128
 373.166666667 -78.5 326.666666667 -5.66666666667 288 71 c 128
 249.333333333 147.666666667 219.333333333 228 198 312 c 128
 176.666666667 396 166 483 166 573 c 0
 166 605.666666667 170.166666667 645.166666667 178.5 691.5 c 128
 186.833333333 737.833333333 198.5 788 213.5 842 c 128
 228.5 896 246.5 951.833333333 267.5 1009.5 c 128
 288.5 1067.16666667 312.166666667 1123.66666667 338.5 1179 c 128
 364.833333333 1234.33333333 393.166666667 1287 423.5 1337 c 128
 453.833333333 1387 485.666666667 1430.66666667 519 1468 c 128
 552.333333333 1505.33333333 586.833333333 1535 622.5 1557 c 128
 658.166666667 1579 694.333333333 1590 731 1590 c 0
 760.333333333 1590 783.666666667 1582 801 1566 c 0
 817 1551.33333333 825.666666667 1528.33333333 827 1497 c 0
 827.666666667 1488.33333333 828 1479.33333333 828 1470 c 128
 828 1460.66666667 825.333333333 1452.66666667 820 1446 c 1
 760.666666667 1386.66666667 703.666666667 1324.5 649 1259.5 c 128
 594.333333333 1194.5 546 1126.33333333 504 1055 c 128
 462 983.666666667 428.333333333 908.5 403 829.5 c 128
 377.666666667 750.5 365 667.333333333 365 580 c 0
 365 512.666666667 374.833333333 447.666666667 394.5 385 c 128
 414.166666667 322.333333333 438.833333333 263 468.5 207 c 128
 498.166666667 151 530.333333333 98.6666666667 565 50 c 128
 599.666666667 1.33333333333 631.833333333 -43.1666666667 661.5 -83.5 c 128
 691.166666667 -123.833333333 715.833333333 -159.333333333 735.5 -190 c 128
 755.166666667 -220.666666667 765 -246 765 -266 c 0
 765 -294 756.333333333 -317 739 -335 c 128
 721.666666667 -353 698.333333333 -362 669 -362 c 0
 657 -362 646.166666667 -360.833333333 636.5 -358.5 c 128
 626.833333333 -356.166666667 617 -350.333333333 607 -341 c 0
EndSplineSet
Validated: 1
EndChar

StartChar: parenright
Encoding: 41 41 12
Width: 871
GlyphClass: 2
Flags: HW
LayerCount: 2
Fore
SplineSet
298 -339 m 0
 288 -348.333333333 278.166666667 -354.166666667 268.5 -356.5 c 128
 258.833333333 -358.833333333 248 -360 236 -360 c 0
 206.666666667 -360 183.333333333 -351 166 -333 c 128
 148.666666667 -315 140 -292 140 -264 c 0
 140 -244 149.833333333 -218.666666667 169.5 -188 c 128
 189.166666667 -157.333333333 213.833333333 -121.833333333 243.5 -81.5 c 128
 273.166666667 -41.1666666667 305.333333333 3.33333333333 340 52 c 128
 374.666666667 100.666666667 406.833333333 153 436.5 209 c 128
 466.166666667 265 490.833333333 324.333333333 510.5 387 c 128
 530.166666667 449.666666667 540 514.666666667 540 582 c 0
 540 669.333333333 527.333333333 752.5 502 831.5 c 128
 476.666666667 910.5 443 985.666666667 401 1057 c 128
 359 1128.33333333 310.666666667 1196.5 256 1261.5 c 128
 201.333333333 1326.5 144.333333333 1388.66666667 85 1448 c 1
 80.3333333333 1454.66666667 78 1462.66666667 78 1472 c 128
 78 1486 78 1486 78 1499 c 0
 79.3333333333 1530.33333333 88 1553.33333333 104 1568 c 0
 121.333333333 1584 144.666666667 1592 174 1592 c 0
 210.666666667 1592 246.833333333 1581 282.5 1559 c 128
 318.166666667 1537 352.666666667 1507.33333333 386 1470 c 128
 419.333333333 1432.66666667 451.166666667 1389 481.5 1339 c 128
 511.833333333 1289 540.166666667 1236.33333333 566.5 1181 c 128
 592.833333333 1125.66666667 616.5 1069.16666667 637.5 1011.5 c 128
 658.5 953.833333333 676.5 898 691.5 844 c 128
 706.5 790 718.166666667 739.833333333 726.5 693.5 c 128
 734.833333333 647.166666667 739 607.666666667 739 575 c 0
 739 485 728.333333333 398 707 314 c 128
 685.666666667 230 655.666666667 149.666666667 617 73 c 128
 578.333333333 -3.66666666667 531.833333333 -76.5 477.5 -145.5 c 128
 423.166666667 -214.5 363.333333333 -279 298 -339 c 0
EndSplineSet
Validated: 1
EndChar

StartChar: asterisk
Encoding: 42 42 13
Width: 894
GlyphClass: 2
Flags: HW
LayerCount: 2
Fore
SplineSet
253 899 m 2
 241.666666667 889 231.666666667 884 223 884 c 2
 199 884 l 2
 174.333333333 884 153 891.5 135 906.5 c 128
 117 921.5 108 942.333333333 108 969 c 0
 108 1005.66666667 119.666666667 1030 143 1042 c 2
 355 1155 l 1
 151 1269 l 1
 122.333333333 1288.33333333 108 1312.66666667 108 1342 c 128
 108 1371.33333333 114.333333333 1392.33333333 127 1405 c 0
 147.666666667 1425.66666667 169.666666667 1436 193 1436 c 0
 219 1436 237 1431 247 1421 c 2
 402 1273 l 1
 382 1450 l 2
 381.583333333 1452.91666667 381.375 1455.77604167 381.375 1458.578125 c 0
 381.375 1478.19270833 391.583333333 1495 412 1509 c 0
 430.666666667 1522.33333333 448 1529 464 1529 c 0
 490 1529 507.333333333 1523 516 1511 c 0
 542.666666667 1475.66666667 556.5 1439.66666667 557.5 1403 c 128
 558.5 1366.33333333 559 1338 559 1318 c 2
 559 1291 l 1
 572 1310 l 1
 578 1315.33333333 592 1328.66666667 614 1350 c 128
 636 1371.33333333 650.5 1385.33333333 657.5 1392 c 128
 664.5 1398.66666667 669.666666667 1403.33333333 673 1406 c 0
 695 1426 713.333333333 1436 728 1436 c 2
 741 1436 l 2
 783 1436 810.666666667 1417.66666667 824 1381 c 0
 828 1370.33333333 830 1360 830 1350 c 0
 830 1322 826.333333333 1303.66666667 819 1295 c 0
 811 1285 804 1277.66666667 798 1273 c 2
 604 1149 l 1
 786 1051 l 2
 815.333333333 1035 830 1011 830 979 c 0
 830 915.666666667 801 884 743 884 c 0
 709 884 653.333333333 928 576 1016 c 0
 567.333333333 1026 559 1035.66666667 551 1045 c 1
 551 822 l 2
 551 816.666666667 552.333333333 811 555 805 c 0
 556.388888889 801.805555555 557.083333333 798.741319444 557.083333333 795.807291667 c 0
 557.083333333 784.657986111 547.055555555 775.388888889 527 768 c 0
 513 762.666666667 501.666666667 760 493 760 c 0
 469.666666667 760 451.666666667 763.666666667 439 771 c 0
 421.857142857 781.857142857 413.285714286 793.204081633 413.285714286 805.040816327 c 0
 413.285714286 807.013605442 413.523809524 809 414 811 c 0
 415.333333333 817 416.333333333 824.333333333 417 833 c 2
 417 1047 l 1
 253 899 l 2
EndSplineSet
Validated: 1
EndChar

StartChar: plus
Encoding: 43 43 14
Width: 1650
GlyphClass: 2
Flags: HW
LayerCount: 2
Fore
SplineSet
660 149 m 1
 662 159 665 176 669 200 c 128
 673 224 677.5 251.333333333 682.5 282 c 128
 687.5 312.666666667 692.666666667 345 698 379 c 128
 703.333333333 413 708.333333333 445.333333333 713 476 c 0
 720.333333333 524 724.666666667 551.333333333 726 558 c 0
 732 586 735 603 735 609 c 0
 735 611 735.333333333 615.166666667 736 621.5 c 128
 736.666666667 627.833333333 737.5 634.666666667 738.5 642 c 128
 739.5 649.333333333 740.5 656.166666667 741.5 662.5 c 128
 742.5 668.833333333 743 673 743 675 c 1
 731 678.333333333 712.166666667 680 686.5 680 c 128
 660.833333333 680 631.666666667 680.166666667 599 680.5 c 128
 566.333333333 680.833333333 531.833333333 681 495.5 681 c 128
 459.166666667 681 424.5 681.166666667 391.5 681.5 c 128
 358.5 681.833333333 329.166666667 682 303.5 682 c 128
 277.833333333 682 259 683.333333333 247 686 c 0
 237.666666667 688 219.333333333 691.333333333 192 696 c 1
 172 698.666666667 153.833333333 703.5 137.5 710.5 c 128
 121.166666667 717.5 107.666666667 727.333333333 97 740 c 128
 86.3333333333 752.666666667 81 770.333333333 81 793 c 0
 81 811.666666667 84.1666666667 826.666666667 90.5 838 c 128
 96.8333333333 849.333333333 105.666666667 858.166666667 117 864.5 c 128
 128.333333333 870.833333333 141.333333333 875 156 877 c 0
 184 881 200.666666667 882 206 880 c 2
 247 867 l 1
 793 867 l 1
 793 1410 l 2
 793 1439.33333333 798.5 1463.33333333 809.5 1482 c 128
 820.5 1500.66666667 838.666666667 1510 864 1510 c 0
 888 1510 908.166666667 1506.33333333 924.5 1499 c 128
 940.833333333 1491.66666667 954.166666667 1481.33333333 964.5 1468 c 128
 974.833333333 1454.66666667 982 1438.66666667 986 1420 c 1
 992 1396.66666667 994.333333333 1376.66666667 993 1360 c 0
 987 1279.33333333 982.5 1206.33333333 979.5 1141 c 128
 976.5 1075.66666667 975 1002.33333333 975 921 c 2
 975 845 l 1
 1482 821 l 1
 1496.66666667 821 1509.16666667 820 1519.5 818 c 128
 1529.83333333 816 1538.33333333 813 1545 809 c 128
 1551.66666667 805 1556.66666667 799.333333333 1560 792 c 128
 1563.33333333 784.666666667 1565 774.666666667 1565 762 c 0
 1565 728.666666667 1558.5 703.5 1545.5 686.5 c 128
 1532.5 669.5 1511.33333333 654.666666667 1482 642 c 1
 1337 642 l 1
 1276.33333333 644.666666667 1216.16666667 646.666666667 1156.5 648 c 128
 1096.83333333 649.333333333 1036.66666667 650 976 650 c 2
 951 650 l 1
 943 625 l 1
 941.666666667 615.666666667 939.5 600.666666667 936.5 580 c 128
 933.5 559.333333333 930 535.666666667 926 509 c 128
 922 482.333333333 918 454.166666667 914 424.5 c 128
 910 394.833333333 906 366.666666667 902 340 c 128
 898 313.333333333 894.5 289.5 891.5 268.5 c 128
 888.5 247.5 886.333333333 232.666666667 885 224 c 0
 881 203.333333333 878.666666667 180 878 154 c 128
 877.333333333 128 874.666666667 103.666666667 870 81 c 128
 865.333333333 58.3333333333 856.5 39.1666666667 843.5 23.5 c 128
 830.5 7.83333333333 809.666666667 0 781 0 c 0
 745 0 715.833333333 11.1666666667 693.5 33.5 c 128
 671.166666667 55.8333333333 660 84.6666666667 660 120 c 2
 660 149 l 1
EndSplineSet
Validated: 1
EndChar

StartChar: comma
Encoding: 44 44 15
Width: 720
GlyphClass: 2
Flags: HW
LayerCount: 2
Fore
SplineSet
76 -185 m 0
 106 -150.333333333 131 -116.333333333 151 -83 c 128
 171 -49.6666666667 187.333333333 -16 200 18 c 128
 212.666666667 52 222.666666667 86.8333333333 230 122.5 c 128
 237.333333333 158.166666667 243.666666667 195.333333333 249 234 c 0
 252.333333333 255.333333333 262.666666667 272 280 284 c 128
 297.333333333 296 316 302 336 302 c 0
 357.333333333 302 375.166666667 297.666666667 389.5 289 c 128
 403.833333333 280.333333333 415 266 423 246 c 1
 423 187 l 2
 423 165.666666667 420.5 139.333333333 415.5 108 c 128
 410.5 76.6666666667 403 43.8333333333 393 9.5 c 128
 383 -24.8333333333 370.666666667 -58.8333333333 356 -92.5 c 128
 341.333333333 -126.166666667 324.5 -156.5 305.5 -183.5 c 128
 286.5 -210.5 265.333333333 -232.333333333 242 -249 c 128
 218.666666667 -265.666666667 193.333333333 -274 166 -274 c 0
 152.666666667 -274 139.333333333 -270.666666667 126 -264 c 128
 112.666666667 -257.333333333 101.166666667 -249.333333333 91.5 -240 c 128
 81.8333333333 -230.666666667 75.1666666667 -221 71.5 -211 c 128
 67.8333333333 -201 69.3333333333 -192.333333333 76 -185 c 0
EndSplineSet
Validated: 1
EndChar

StartChar: hyphen
Encoding: 45 45 16
AltUni2: 0000ad.ffffffff.0
Width: 679
GlyphClass: 2
Flags: HW
LayerCount: 2
Fore
SplineSet
564 522 m 0
 449.416666667 505.333333333 340.224489796 497 236.423469388 497 c 0
 91.1417321679 497 18.5008635579 521.590000428 18.5008635579 570.770001283 c 0
 18.5008635579 573.123679184 18.6672423719 575.533678757 19 578 c 0
 29 657.333333333 57.3333333333 699.666666667 104 705 c 0
 245.780821918 722.123287671 360.899355727 730.684931507 449.355601426 730.684931507 c 0
 596.110510699 730.684931507 669.487965336 707.683384641 669.487965336 661.680290908 c 0
 669.487965336 661.126041767 669.477314134 660.568453806 669.45601173 660.007527025 c 0
 669.15200391 652.002509008 667.333333333 644 664 636 c 8
 634 565.333333333 600.666666667 527.333333333 564 522 c 0
EndSplineSet
Validated: 1
EndChar

StartChar: period
Encoding: 46 46 17
Width: 720
GlyphClass: 2
Flags: HW
LayerCount: 2
Fore
SplineSet
106 151 m 256
 106 171 109.833333333 190 117.5 208 c 128
 125.166666667 226 135.5 241.666666667 148.5 255 c 128
 161.5 268.333333333 177 278.833333333 195 286.5 c 128
 213 294.166666667 232 298 252 298 c 256
 272 298 291 294.166666667 309 286.5 c 128
 327 278.833333333 342.666666667 268.333333333 356 255 c 128
 369.333333333 241.666666667 379.833333333 226 387.5 208 c 128
 395.166666667 190 399 171 399 151 c 256
 399 131 395.166666667 112 387.5 94 c 128
 379.833333333 76 369.333333333 60.5 356 47.5 c 128
 342.666666667 34.5 327 24.1666666667 309 16.5 c 128
 291 8.83333333333 272 5 252 5 c 256
 232 5 213 8.83333333333 195 16.5 c 128
 177 24.1666666667 161.5 34.5 148.5 47.5 c 128
 135.5 60.5 125.166666667 76 117.5 94 c 128
 109.833333333 112 106 131 106 151 c 256
EndSplineSet
Validated: 1
EndChar

StartChar: slash
Encoding: 47 47 18
Width: 944
GlyphClass: 2
Flags: HW
LayerCount: 2
Fore
SplineSet
119 0 m 4
 119 14.6666666667 120.833333333 30.3333333333 124.5 47 c 132
 128.166666667 63.6666666667 133 80 139 96 c 132
 145 112 151.5 127.666666667 158.5 143 c 132
 165.5 158.333333333 172.333333333 172.666666667 179 186 c 5
 490 895 l 5
 508 931.666666667 526.5 974.833333333 545.5 1024.5 c 132
 564.5 1074.16666667 582.666666667 1125 600 1177 c 132
 617.333333333 1229 633 1279.16666667 647 1327.5 c 132
 661 1375.83333333 672.666666667 1417 682 1451 c 5
 696 1491 723.666666667 1511 765 1511 c 4
 778.333333333 1511 791.166666667 1508.83333333 803.5 1504.5 c 132
 815.833333333 1500.16666667 826.833333333 1494 836.5 1486 c 132
 846.166666667 1478 853.833333333 1469 859.5 1459 c 132
 865.166666667 1449 868 1436.66666667 868 1422 c 4
 868 1388.66666667 864.166666667 1352.16666667 856.5 1312.5 c 132
 848.833333333 1272.83333333 838.5 1231.83333333 825.5 1189.5 c 132
 812.5 1147.16666667 797.666666667 1104.66666667 781 1062 c 132
 764.333333333 1019.33333333 747.166666667 977.833333333 729.5 937.5 c 132
 711.833333333 897.166666667 694.333333333 859.166666667 677 823.5 c 132
 659.666666667 787.833333333 643.666666667 756.333333333 629 729 c 5
 351 94 l 5
 341.666666667 76.6666666667 334 57.1666666667 328 35.5 c 132
 322 13.8333333333 314.5 -6.5 305.5 -25.5 c 132
 296.5 -44.5 284.833333333 -60.3333333333 270.5 -73 c 132
 256.166666667 -85.6666666667 236.666666667 -92 212 -92 c 4
 185.333333333 -92 163.166666667 -83.3333333333 145.5 -66 c 132
 127.833333333 -48.6666666667 119 -26.6666666667 119 0 c 4
EndSplineSet
Validated: 1
EndChar

StartChar: zero
Encoding: 48 48 19
Width: 1366
GlyphClass: 2
Flags: HW
LayerCount: 2
Fore
SplineSet
115 767 m 0
 115 811 120.333333333 872.666666667 131 952 c 0
 138.333333333 1004 154.666666667 1062.66666667 180 1128 c 0
 201.333333333 1184.66666667 228.166666667 1237.5 260.5 1286.5 c 128
 292.833333333 1335.5 330.666666667 1377.83333333 374 1413.5 c 128
 417.333333333 1449.16666667 466.166666667 1477.33333333 520.5 1498 c 128
 574.833333333 1518.66666667 634.666666667 1529 700 1529 c 0
 764.666666667 1529 822.166666667 1516.5 872.5 1491.5 c 128
 922.833333333 1466.5 967 1433 1005 1391 c 128
 1043 1349 1075.33333333 1300.33333333 1102 1245 c 128
 1128.66666667 1189.66666667 1150.33333333 1131.83333333 1167 1071.5 c 128
 1183.66666667 1011.16666667 1195.66666667 950.166666667 1203 888.5 c 128
 1210.33333333 826.833333333 1214 768.333333333 1214 713 c 0
 1214 662.333333333 1209.83333333 610.333333333 1201.5 557 c 128
 1193.16666667 503.666666667 1180.33333333 451.5 1163 400.5 c 128
 1145.66666667 349.5 1123.66666667 300.666666667 1097 254 c 128
 1070.33333333 207.333333333 1039 165.333333333 1003 128 c 128
 967 90.6666666667 926 59.1666666667 880 33.5 c 128
 834 7.83333333333 783 -9.66666666667 727 -19 c 1
 639 -19 l 2
 563.666666667 -19 498.333333333 -9.66666666667 443 9 c 128
 387.666666667 27.6666666667 340.666666667 54 302 88 c 128
 263.333333333 122 231.833333333 163 207.5 211 c 128
 183.166666667 259 162.833333333 312 146.5 370 c 128
 130.166666667 428 120.833333333 490.5 118.5 557.5 c 128
 116.166666667 624.5 115 694.333333333 115 767 c 0
286 761 m 0
 286 705 286.333333333 651.166666667 287 599.5 c 128
 287.666666667 547.833333333 291.833333333 499.5 299.5 454.5 c 128
 307.166666667 409.5 318.166666667 368.5 332.5 331.5 c 128
 346.833333333 294.5 367.166666667 262.666666667 393.5 236 c 128
 419.833333333 209.333333333 452.833333333 188.666666667 492.5 174 c 128
 532.166666667 159.333333333 581 152 639 152 c 0
 685.666666667 152 728 160.166666667 766 176.5 c 128
 804 192.833333333 838 215 868 243 c 128
 898 271 924 303.5 946 340.5 c 128
 968 377.5 986.166666667 416.666666667 1000.5 458 c 128
 1014.83333333 499.333333333 1025.33333333 541.333333333 1032 584 c 1
 1040 630 1044 665.666666667 1044 691 c 0
 1044 698.333333333 1043.66666667 704.666666667 1043 710 c 0
 1039.66666667 736.666666667 1038 779.333333333 1038 838 c 0
 1038 884.666666667 1032.16666667 931.666666667 1020.5 979 c 128
 1008.83333333 1026.33333333 994.666666667 1072.5 978 1117.5 c 128
 961.333333333 1162.5 940.166666667 1202.33333333 914.5 1237 c 128
 888.833333333 1271.66666667 858.166666667 1299.5 822.5 1320.5 c 128
 786.833333333 1341.5 745 1352 697 1352 c 0
 647.666666667 1352 603.166666667 1343.83333333 563.5 1327.5 c 128
 523.833333333 1311.16666667 488.666666667 1288.66666667 458 1260 c 128
 427.333333333 1231.33333333 401.166666667 1197.83333333 379.5 1159.5 c 128
 357.833333333 1121.16666667 340 1080 326 1036 c 1
 311.333333333 987.333333333 301.333333333 942 296 900 c 0
 289.333333333 846 286 799.666666667 286 761 c 0
EndSplineSet
Validated: 1
EndChar

StartChar: one
Encoding: 49 49 20
Width: 1013
GlyphClass: 2
Flags: HW
LayerCount: 2
Fore
SplineSet
732 204 m 1
 852 181 l 2
 866.666666667 178.333333333 876.666666667 175.333333333 882 172 c 0
 891.333333333 165.333333333 899.333333333 157.333333333 906 148 c 128
 912.666666667 138.666666667 917.833333333 128.5 921.5 117.5 c 128
 925.166666667 106.5 927 96.3333333333 927 87 c 0
 927 79 925.5 70.1666666667 922.5 60.5 c 128
 919.5 50.8333333333 915.333333333 41.8333333333 910 33.5 c 128
 904.666666667 25.1666666667 898.166666667 18 890.5 12 c 128
 882.833333333 6 874.333333333 3 865 3 c 2
 221 3 l 2
 205 3 189.166666667 4 173.5 6 c 128
 157.833333333 8 143.833333333 12.1666666667 131.5 18.5 c 128
 119.166666667 24.8333333333 109.166666667 33.8333333333 101.5 45.5 c 128
 93.8333333333 57.1666666667 90 72.3333333333 90 91 c 0
 90 101 91.1666666667 111.666666667 93.5 123 c 128
 95.8333333333 134.333333333 99.8333333333 144.666666667 105.5 154 c 128
 111.166666667 163.333333333 118.333333333 171.166666667 127 177.5 c 128
 135.666666667 183.833333333 146.333333333 187 159 187 c 2
 534 187 l 1
 534 1164 l 1
 534 1183 l 1
 511.333333333 1165.66666667 487.333333333 1148.83333333 462 1132.5 c 128
 436.666666667 1116.16666667 410.5 1101.5 383.5 1088.5 c 128
 356.5 1075.5 328.666666667 1065.16666667 300 1057.5 c 128
 271.333333333 1049.83333333 242 1046 212 1046 c 2
 178 1046 l 1
 157.333333333 1053.33333333 142.666666667 1064.16666667 134 1078.5 c 128
 125.333333333 1092.83333333 121 1111 121 1133 c 0
 121 1151 126 1166.66666667 136 1180 c 128
 146 1193.33333333 159 1205 175 1215 c 128
 191 1225 208.833333333 1233.83333333 228.5 1241.5 c 128
 248.166666667 1249.16666667 268 1256.5 288 1263.5 c 128
 308 1270.5 327 1277.5 345 1284.5 c 128
 363 1291.5 378 1299.33333333 390 1308 c 0
 428 1336 464 1367 498 1401 c 128
 532 1435 564.666666667 1468.33333333 596 1501 c 1
 602.666666667 1506.33333333 610 1510 618 1512 c 0
 626 1513.33333333 634.333333333 1514 643 1514 c 0
 669.666666667 1514 691.333333333 1504.66666667 708 1486 c 128
 724.666666667 1467.33333333 733 1444.33333333 733 1417 c 2
 733 1408 l 1
 732 204 l 1
EndSplineSet
Validated: 1
EndChar

StartChar: two
Encoding: 50 50 21
Width: 1315
GlyphClass: 2
Flags: HW
LayerCount: 2
Fore
SplineSet
115 88 m 0
 115 107.333333333 126.666666667 131.666666667 150 161 c 128
 173.333333333 190.333333333 204.166666667 223.5 242.5 260.5 c 128
 280.833333333 297.5 324.333333333 337.833333333 373 381.5 c 128
 421.666666667 425.166666667 471.5 471.333333333 522.5 520 c 128
 573.5 568.666666667 623.5 619.333333333 672.5 672 c 128
 721.5 724.666666667 765.166666667 778.333333333 803.5 833 c 128
 841.833333333 887.666666667 872.666666667 942.833333333 896 998.5 c 128
 919.333333333 1054.16666667 931 1109.33333333 931 1164 c 0
 931 1196 922.166666667 1223.16666667 904.5 1245.5 c 128
 886.833333333 1267.83333333 864.5 1286 837.5 1300 c 128
 810.5 1314 781.333333333 1324 750 1330 c 128
 718.666666667 1336 689.333333333 1339 662 1339 c 0
 620 1339 581.333333333 1328.83333333 546 1308.5 c 128
 510.666666667 1288.16666667 478.333333333 1262.66666667 449 1232 c 128
 419.666666667 1201.33333333 393 1168.5 369 1133.5 c 128
 345 1098.5 322.666666667 1066.33333333 302 1037 c 0
 292.666666667 1024.33333333 282.166666667 1016 270.5 1012 c 128
 258.833333333 1008 245.333333333 1006 230 1006 c 0
 207.333333333 1006 187.333333333 1013.66666667 170 1029 c 0
 153.333333333 1043.66666667 145 1061.66666667 145 1083 c 0
 145 1086 145 1086 145 1088 c 0
 145.666666667 1095.33333333 146 1101.83333333 146 1107.5 c 128
 146 1113.16666667 147.666666667 1119.66666667 151 1127 c 1
 184.333333333 1173 218 1219.16666667 252 1265.5 c 128
 286 1311.83333333 323 1353.33333333 363 1390 c 128
 403 1426.66666667 447.333333333 1456.5 496 1479.5 c 128
 544.666666667 1502.5 600 1514 662 1514 c 0
 715.333333333 1514 768.833333333 1506.83333333 822.5 1492.5 c 128
 876.166666667 1478.16666667 924.5 1456.5 967.5 1427.5 c 128
 1010.5 1398.5 1045.33333333 1361.83333333 1072 1317.5 c 128
 1098.66666667 1273.16666667 1112 1220.66666667 1112 1160 c 0
 1112 1100 1102.33333333 1040.16666667 1083 980.5 c 128
 1063.66666667 920.833333333 1037.83333333 862.333333333 1005.5 805 c 128
 973.166666667 747.666666667 936 692 894 638 c 128
 852 584 808.333333333 532.5 763 483.5 c 128
 717.666666667 434.5 672.5 388.333333333 627.5 345 c 128
 582.5 301.666666667 540.666666667 262.333333333 502 227 c 1
 511 227 l 1
 555 231 598.333333333 234 641 236 c 128
 683.666666667 238 727 239 771 239 c 1
 771 241 776.666666667 242 788 242 c 128
 799.333333333 242 816.666666667 241 840 239 c 0
 868.666666667 237 899.666666667 236 933 236 c 128
 966.333333333 236 1000.16666667 232.666666667 1034.5 226 c 128
 1068.83333333 219.333333333 1099.66666667 210.5 1127 199.5 c 128
 1154.33333333 188.5 1176.83333333 174 1194.5 156 c 128
 1212.16666667 138 1221 115.333333333 1221 88 c 0
 1221 62.6666666667 1213.33333333 43.3333333333 1198 30 c 1
 1182.66666667 15.3333333333 1165.33333333 8 1146 8 c 0
 1142.66666667 8 1139.33333333 8.33333333333 1136 9 c 0
 1107.33333333 12.3333333333 1077.83333333 14 1047.5 14 c 128
 1017.16666667 14 986.5 17 955.5 23 c 128
 924.5 29 893.333333333 33 862 35 c 1
 824 36.3333333333 797.333333333 37 782 37 c 0
 776 37 776 37 771 37 c 0
 767.666666667 36.3333333333 722 36 634 36 c 1
 593.333333333 34 549 33 501 33 c 0
 454.333333333 33 410.333333333 29.6666666667 369 23 c 1
 325 18.3333333333 280.666666667 11.6666666667 236 3 c 1
 206 3 l 2
 180 3 158.333333333 10.8333333333 141 26.5 c 128
 123.666666667 42.1666666667 115 62.6666666667 115 88 c 0
EndSplineSet
Validated: 1
EndChar

StartChar: three
Encoding: 51 51 22
Width: 1306
GlyphClass: 2
Flags: HW
LayerCount: 2
Fore
SplineSet
78 290 m 0
 78 302 80.3333333333 313.5 85 324.5 c 128
 89.6666666667 335.5 95.8333333333 345.166666667 103.5 353.5 c 128
 111.166666667 361.833333333 120.333333333 368.333333333 131 373 c 128
 141.666666667 377.666666667 153 380 165 380 c 0
 193 380 221.5 375.166666667 250.5 365.5 c 128
 279.5 355.833333333 309.333333333 344 340 330 c 128
 370.666666667 316 402 300.5 434 283.5 c 128
 466 266.5 498.833333333 251 532.5 237 c 128
 566.166666667 223 600.666666667 211.166666667 636 201.5 c 128
 671.333333333 191.833333333 707.666666667 187 745 187 c 0
 763 187 783.333333333 188.166666667 806 190.5 c 128
 828.666666667 192.833333333 851.5 196.666666667 874.5 202 c 128
 897.5 207.333333333 920 214.5 942 223.5 c 128
 964 232.5 983.5 243.833333333 1000.5 257.5 c 128
 1017.5 271.166666667 1031.16666667 287.333333333 1041.5 306 c 128
 1051.83333333 324.666666667 1057 346.333333333 1057 371 c 0
 1057 401 1050.83333333 428.833333333 1038.5 454.5 c 128
 1026.16666667 480.166666667 1009.83333333 504.166666667 989.5 526.5 c 128
 969.166666667 548.833333333 946 569.166666667 920 587.5 c 128
 894 605.833333333 830.166666667 626.833333333 728.5 650.5 c 128
 626.833333333 674.166666667 562.333333333 692.333333333 535 705 c 128
 507.666666667 717.666666667 483 729 461 739 c 1
 452.333333333 745.666666667 445.5 751.833333333 440.5 757.5 c 128
 435.5 763.166666667 431.5 769 428.5 775 c 128
 425.5 781 423.833333333 787.833333333 423.5 795.5 c 128
 423.166666667 803.166666667 423 812.333333333 423 823 c 2
 423 838 l 0
 423 842 423.166666667 845.666666667 423.5 849 c 128
 423.833333333 852.333333333 425 856 427 860 c 0
 429.666666667 867.333333333 432.666666667 872.333333333 436 875 c 2
 954 1302 l 1
 954 1308 l 1
 889.333333333 1308 824.833333333 1305.83333333 760.5 1301.5 c 128
 696.166666667 1297.16666667 630.666666667 1295 564 1295 c 0
 549.333333333 1295 528.666666667 1294.33333333 502 1293 c 128
 475.333333333 1291.66666667 446.166666667 1291 414.5 1291 c 128
 382.833333333 1291 350.5 1292.83333333 317.5 1296.5 c 128
 284.5 1300.16666667 254.5 1306.66666667 227.5 1316 c 128
 200.5 1325.33333333 178.5 1338.66666667 161.5 1356 c 128
 144.5 1373.33333333 136 1396 136 1424 c 0
 136 1448 144 1468.66666667 160 1486 c 0
 177.333333333 1504.66666667 199.333333333 1514 226 1514 c 0
 231 1514 231 1514 236 1514 c 0
 240 1514 240 1514 244 1514 c 0
 259.333333333 1514 282 1512.66666667 312 1510 c 0
 339.333333333 1507.33333333 368.666666667 1504.33333333 400 1501 c 0
 428.666666667 1497.66666667 457.5 1494.33333333 486.5 1491 c 128
 515.5 1487.66666667 544.666666667 1486 574 1486 c 0
 663.333333333 1486 751.833333333 1489.66666667 839.5 1497 c 128
 927.166666667 1504.33333333 1015.66666667 1508 1105 1508 c 0
 1121.66666667 1508 1138.33333333 1506.66666667 1155 1504 c 0
 1165 1503.33333333 1180 1499 1200 1491 c 0
 1228 1479.66666667 1243 1471.66666667 1245 1467 c 0
 1251.66666667 1451 1255 1422.66666667 1255 1382 c 0
 1255 1375.33333333 1251.33333333 1366.66666667 1244 1356 c 0
 1239 1348 1239 1348 1234 1340 c 24
 716 863 l 1
 717 851 l 1
 809 825.666666667 881 803.333333333 933 784 c 0
 1016.33333333 752.666666667 1082 709 1130 653 c 0
 1165.33333333 611.666666667 1194.16666667 568.5 1216.5 523.5 c 128
 1238.83333333 478.5 1250 428.666666667 1250 374 c 0
 1250 330 1242.83333333 290.166666667 1228.5 254.5 c 128
 1214.16666667 218.833333333 1194.66666667 187.166666667 1170 159.5 c 128
 1145.33333333 131.833333333 1116.5 108 1083.5 88 c 128
 1050.5 68 1015.33333333 51.5 978 38.5 c 128
 940.666666667 25.5 902.333333333 15.8333333333 863 9.5 c 128
 823.666666667 3.16666666667 785.333333333 0 748 0 c 0
 730 0 706.833333333 1.66666666667 678.5 5 c 128
 650.166666667 8.33333333333 618.5 13.3333333333 583.5 20 c 128
 548.5 26.6666666667 511.833333333 35 473.5 45 c 128
 435.166666667 55 397.333333333 66.3333333333 360 79 c 128
 322.666666667 91.6666666667 287 105.5 253 120.5 c 128
 219 135.5 189 152 163 170 c 128
 137 188 116.333333333 207 101 227 c 128
 85.6666666667 247 78 268 78 290 c 0
EndSplineSet
Validated: 1
EndChar

StartChar: four
Encoding: 52 52 23
Width: 1045
GlyphClass: 2
Flags: HW
LayerCount: 2
Fore
SplineSet
677 79 m 0
 677 117 682.833333333 158 694.5 202 c 128
 706.166666667 246 719.166666667 291.666666667 733.5 339 c 128
 747.833333333 386.333333333 760.833333333 434.666666667 772.5 484 c 128
 784.166666667 533.333333333 790 582.666666667 790 632 c 2
 790 660 l 1
 770.666666667 672 745.166666667 681.833333333 713.5 689.5 c 128
 681.833333333 697.166666667 647 704 609 710 c 128
 571 716 530.833333333 721.333333333 488.5 726 c 128
 446.166666667 730.666666667 404.333333333 735.666666667 363 741 c 128
 321.666666667 746.333333333 282.333333333 752.5 245 759.5 c 128
 207.666666667 766.5 174.833333333 775.333333333 146.5 786 c 128
 118.166666667 796.666666667 95.5 809.5 78.5 824.5 c 128
 61.5 839.5 53 857.666666667 53 879 c 2
 53 904 l 1
 132 1142 l 2
 138 1158.66666667 143 1181 147 1209 c 128
 151 1237 154.5 1265.83333333 157.5 1295.5 c 128
 160.5 1325.16666667 162.666666667 1353.33333333 164 1380 c 128
 165.333333333 1406.66666667 166 1427.66666667 166 1443 c 1
 166.666666667 1453 169.333333333 1462.16666667 174 1470.5 c 128
 178.666666667 1478.83333333 184.5 1486 191.5 1492 c 128
 198.5 1498 206.5 1502.66666667 215.5 1506 c 128
 224.5 1509.33333333 233.666666667 1511 243 1511 c 0
 269.666666667 1511 290.833333333 1503.16666667 306.5 1487.5 c 128
 322.166666667 1471.83333333 330 1450.33333333 330 1423 c 0
 330 1343 323.666666667 1264.83333333 311 1188.5 c 128
 298.333333333 1112.16666667 278.333333333 1036.33333333 251 961 c 1
 251 955 l 2
 251 951 252.5 947.833333333 255.5 945.5 c 128
 258.5 943.166666667 262.666666667 942.666666667 268 944 c 1
 306 938 348.833333333 931.666666667 396.5 925 c 128
 444.166666667 918.333333333 492.333333333 910.833333333 541 902.5 c 128
 589.666666667 894.166666667 637.166666667 884.5 683.5 873.5 c 128
 729.833333333 862.5 771 850 807 836 c 1
 824 1454 l 2
 824 1462 827 1469 833 1475 c 128
 839 1481 846.166666667 1486.33333333 854.5 1491 c 128
 862.833333333 1495.66666667 871.5 1499.16666667 880.5 1501.5 c 128
 889.5 1503.83333333 897.333333333 1505 904 1505 c 0
 925.333333333 1505 942.666666667 1498.66666667 956 1486 c 128
 969.333333333 1473.33333333 978.333333333 1457 983 1437 c 1
 983 1429.66666667 983.166666667 1417.33333333 983.5 1400 c 128
 983.833333333 1382.66666667 984.166666667 1364.33333333 984.5 1345 c 128
 984.833333333 1325.66666667 985.166666667 1307.16666667 985.5 1289.5 c 128
 985.833333333 1271.83333333 986 1259.66666667 986 1253 c 0
 986 1241.66666667 985.833333333 1226 985.5 1206 c 128
 985.166666667 1186 984.833333333 1166.16666667 984.5 1146.5 c 128
 984.166666667 1126.83333333 983.833333333 1109.33333333 983.5 1094 c 128
 983.166666667 1078.66666667 983 1070 983 1068 c 0
 982.333333333 1054.66666667 981.333333333 1033.66666667 980 1005 c 128
 978.666666667 976.333333333 977 943.833333333 975 907.5 c 128
 973 871.166666667 970.666666667 833.166666667 968 793.5 c 128
 965.333333333 753.833333333 962.833333333 715.833333333 960.5 679.5 c 128
 958.166666667 643.166666667 956 610.666666667 954 582 c 128
 952 553.333333333 950.333333333 532.333333333 949 519 c 0
 947.666666667 509 945 491.833333333 941 467.5 c 128
 937 443.166666667 933 417.333333333 929 390 c 128
 925 362.666666667 921 337 917 313 c 128
 913 289 910.333333333 272.333333333 909 263 c 0
 905.666666667 243.666666667 900.666666667 219.333333333 894 190 c 128
 887.333333333 160.666666667 878.166666667 132.166666667 866.5 104.5 c 128
 854.833333333 76.8333333333 840 53 822 33 c 128
 804 13 782 3 756 3 c 0
 732 3 712.833333333 9.66666666667 698.5 23 c 128
 684.166666667 36.3333333333 677 55 677 79 c 0
EndSplineSet
Validated: 1
EndChar

StartChar: five
Encoding: 53 53 24
Width: 1380
GlyphClass: 2
Flags: HW
LayerCount: 2
Fore
SplineSet
105 255 m 0
 105 285 114.333333333 308.166666667 133 324.5 c 128
 151.666666667 340.833333333 176 349 206 349 c 0
 242 349 279.333333333 341.333333333 318 326 c 128
 356.666666667 310.666666667 397 293.666666667 439 275 c 128
 481 256.333333333 524.833333333 239.333333333 570.5 224 c 128
 616.166666667 208.666666667 663.666666667 201 713 201 c 0
 735 201 760.5 202.5 789.5 205.5 c 128
 818.5 208.5 848.666666667 213.333333333 880 220 c 128
 911.333333333 226.666666667 942 235.833333333 972 247.5 c 128
 1002 259.166666667 1029 273.5 1053 290.5 c 128
 1077 307.5 1096.33333333 327.833333333 1111 351.5 c 128
 1125.66666667 375.166666667 1133 402.333333333 1133 433 c 0
 1133 481 1119.5 521 1092.5 553 c 128
 1065.5 585 1030 611.5 986 632.5 c 128
 942 653.5 891.833333333 670.166666667 835.5 682.5 c 128
 779.166666667 694.833333333 721.666666667 705.5 663 714.5 c 128
 604.333333333 723.5 546.833333333 732 490.5 740 c 128
 434.166666667 748 384 758.166666667 340 770.5 c 128
 296 782.833333333 260.5 798.5 233.5 817.5 c 128
 206.5 836.5 193 861.666666667 193 893 c 2
 193 926 l 1
 197 938 202.5 952.833333333 209.5 970.5 c 128
 216.5 988.166666667 223.666666667 1007 231 1027 c 128
 238.333333333 1047 244.666666667 1067 250 1087 c 128
 255.333333333 1107 258.666666667 1125 260 1141 c 2
 273 1430 l 1
 273 1448.66666667 280 1465.33333333 294 1480 c 128
 308 1494.66666667 323.333333333 1504.66666667 340 1510 c 1
 417 1510 l 1
 495 1510 l 1
 513 1509.33333333 540.833333333 1508.33333333 578.5 1507 c 128
 616.166666667 1505.66666667 658.833333333 1504.16666667 706.5 1502.5 c 128
 754.166666667 1500.83333333 804.333333333 1499 857 1497 c 128
 909.666666667 1495 959.833333333 1493 1007.5 1491 c 128
 1055.16666667 1489 1098 1487.33333333 1136 1486 c 128
 1174 1484.66666667 1202 1483.66666667 1220 1483 c 1
 1241.33333333 1476.33333333 1257.83333333 1464.5 1269.5 1447.5 c 128
 1281.16666667 1430.5 1287 1411 1287 1389 c 0
 1287 1363.66666667 1279.33333333 1343 1264 1327 c 128
 1248.66666667 1311 1229.33333333 1300.33333333 1206 1295 c 1
 1035 1295 l 2
 950.333333333 1295 865.833333333 1297.33333333 781.5 1302 c 128
 697.166666667 1306.66666667 612.666666667 1309 528 1309 c 2
 468 1309 l 1
 466.666666667 1283.66666667 464 1257.16666667 460 1229.5 c 128
 456 1201.83333333 451.5 1174.16666667 446.5 1146.5 c 128
 441.5 1118.83333333 437.166666667 1091.33333333 433.5 1064 c 128
 429.833333333 1036.66666667 428 1011 428 987 c 2
 428 980 l 1
 463.333333333 968.666666667 503.166666667 958.166666667 547.5 948.5 c 128
 591.833333333 938.833333333 638.5 928.5 687.5 917.5 c 128
 736.5 906.5 786.166666667 894.5 836.5 881.5 c 128
 886.833333333 868.5 935.666666667 853.166666667 983 835.5 c 128
 1030.33333333 817.833333333 1074.83333333 797.166666667 1116.5 773.5 c 128
 1158.16666667 749.833333333 1194.66666667 721.833333333 1226 689.5 c 128
 1257.33333333 657.166666667 1282 620 1300 578 c 128
 1318 536 1327 487.666666667 1327 433 c 0
 1327 382.333333333 1317.66666667 336.333333333 1299 295 c 128
 1280.33333333 253.666666667 1255.5 217 1224.5 185 c 128
 1193.5 153 1157.33333333 125.333333333 1116 102 c 128
 1074.66666667 78.6666666667 1031.16666667 59.5 985.5 44.5 c 128
 939.833333333 29.5 893.666666667 18.3333333333 847 11 c 128
 800.333333333 3.66666666667 755.666666667 0 713 0 c 0
 692.333333333 0 663 2.33333333333 625 7 c 128
 587 11.6666666667 545.5 18.6666666667 500.5 28 c 128
 455.5 37.3333333333 409.5 49.1666666667 362.5 63.5 c 128
 315.5 77.8333333333 273 94.3333333333 235 113 c 128
 197 131.666666667 165.833333333 152.833333333 141.5 176.5 c 128
 117.166666667 200.166666667 105 226.333333333 105 255 c 0
EndSplineSet
Validated: 1
EndChar

StartChar: six
Encoding: 54 54 25
Width: 1205
GlyphClass: 2
Flags: HW
LayerCount: 2
Fore
SplineSet
99 880 m 1
 111 966.666666667 135.166666667 1048.83333333 171.5 1126.5 c 128
 207.833333333 1204.16666667 254.666666667 1272.5 312 1331.5 c 128
 369.333333333 1390.5 436.333333333 1437.33333333 513 1472 c 128
 589.666666667 1506.66666667 674.333333333 1524 767 1524 c 0
 780.333333333 1524 796.666666667 1524.83333333 816 1526.5 c 128
 835.333333333 1528.16666667 855.5 1529.33333333 876.5 1530 c 128
 897.5 1530.66666667 918.666666667 1530.16666667 940 1528.5 c 128
 961.333333333 1526.83333333 980.333333333 1523 997 1517 c 128
 1013.66666667 1511 1027.16666667 1501.83333333 1037.5 1489.5 c 128
 1047.83333333 1477.16666667 1053 1461 1053 1441 c 0
 1053 1415.66666667 1044 1395.33333333 1026 1380 c 128
 1008 1364.66666667 987 1357 963 1357 c 0
 930.333333333 1357 898 1355 866 1351 c 128
 834 1347 801 1345 767 1345 c 0
 705.666666667 1345 645.666666667 1332.83333333 587 1308.5 c 128
 528.333333333 1284.16666667 476.166666667 1250.83333333 430.5 1208.5 c 128
 384.833333333 1166.16666667 348 1116.5 320 1059.5 c 128
 292 1002.5 278 941.666666667 278 877 c 2
 278 862 l 1
 304.666666667 882 332.666666667 901.166666667 362 919.5 c 128
 391.333333333 937.833333333 421.666666667 953.666666667 453 967 c 128
 484.333333333 980.333333333 516.666666667 991 550 999 c 128
 583.333333333 1007 617.666666667 1011 653 1011 c 0
 727 1011 793.333333333 996.666666667 852 968 c 128
 910.666666667 939.333333333 960.666666667 901 1002 853 c 128
 1043.33333333 805 1075 749.333333333 1097 686 c 128
 1119 622.666666667 1130 556.333333333 1130 487 c 0
 1130 445 1122.33333333 403.333333333 1107 362 c 128
 1091.66666667 320.666666667 1070.66666667 281.5 1044 244.5 c 128
 1017.33333333 207.5 986.166666667 173.166666667 950.5 141.5 c 128
 914.833333333 109.833333333 876.5 82.5 835.5 59.5 c 128
 794.5 36.5 751.833333333 18.5 707.5 5.5 c 128
 663.166666667 -7.5 619.333333333 -14 576 -14 c 0
 504.666666667 -14 443.333333333 -3.5 392 17.5 c 128
 340.666666667 38.5 297.333333333 67.1666666667 262 103.5 c 128
 226.666666667 139.833333333 198.333333333 182.666666667 177 232 c 128
 155.666666667 281.333333333 139.166666667 334.5 127.5 391.5 c 128
 115.833333333 448.5 108.166666667 507.833333333 104.5 569.5 c 128
 100.833333333 631.166666667 99 693 99 755 c 2
 99 880 l 1
278 603 m 0
 278 547 282 492.666666667 290 440 c 128
 298 387.333333333 312.833333333 340.666666667 334.5 300 c 128
 356.166666667 259.333333333 385.666666667 226.666666667 423 202 c 128
 460.333333333 177.333333333 508.333333333 165 567 165 c 2
 624 165 l 1
 646.666666667 170.333333333 670.666666667 178.666666667 696 190 c 128
 721.333333333 201.333333333 746.333333333 214.666666667 771 230 c 128
 795.666666667 245.333333333 819.333333333 262.666666667 842 282 c 128
 864.666666667 301.333333333 884.5 321.833333333 901.5 343.5 c 128
 918.5 365.166666667 932 387.833333333 942 411.5 c 128
 952 435.166666667 957 459.333333333 957 484 c 0
 957 530.666666667 950.5 575.166666667 937.5 617.5 c 128
 924.5 659.833333333 905.333333333 696.833333333 880 728.5 c 128
 854.666666667 760.166666667 823 785.333333333 785 804 c 128
 747 822.666666667 703 832 653 832 c 0
 635.666666667 832 614.333333333 829.166666667 589 823.5 c 128
 563.666666667 817.833333333 537.166666667 809.833333333 509.5 799.5 c 128
 481.833333333 789.166666667 454.166666667 776.833333333 426.5 762.5 c 128
 398.833333333 748.166666667 374 732.5 352 715.5 c 128
 330 698.5 312.166666667 680.5 298.5 661.5 c 128
 284.833333333 642.5 278 623 278 603 c 0
EndSplineSet
Validated: 1
EndChar

StartChar: seven
Encoding: 55 55 26
Width: 1338
GlyphClass: 2
Flags: HW
LayerCount: 2
Fore
SplineSet
458 134 m 2
 458 203.333333333 465.333333333 272.666666667 480 342 c 128
 494.666666667 411.333333333 514.5 480.166666667 539.5 548.5 c 128
 564.5 616.833333333 593.5 684.166666667 626.5 750.5 c 128
 659.5 816.833333333 694.666666667 881.666666667 732 945 c 128
 769.333333333 1008.33333333 807.666666667 1069.66666667 847 1129 c 128
 886.333333333 1188.33333333 924.333333333 1245 961 1299 c 1
 961 1305 l 1
 906.333333333 1305 851.333333333 1304 796 1302 c 128
 740.666666667 1300 685.666666667 1299 631 1299 c 0
 613 1299 586.333333333 1298 551 1296 c 128
 515.666666667 1294 476.666666667 1292.66666667 434 1292 c 0
 422.666666667 1291.33333333 411 1291 399 1291 c 0
 363 1291 331 1292 303 1294 c 0
 256.333333333 1297.33333333 216 1303.33333333 182 1312 c 0
 145.333333333 1321.33333333 115.333333333 1335 92 1353 c 128
 68.6666666667 1371 57 1395.33333333 57 1426 c 0
 57 1432.66666667 58 1440.5 60 1449.5 c 128
 62 1458.5 65.1666666667 1467.16666667 69.5 1475.5 c 128
 73.8333333333 1483.83333333 79.5 1490.83333333 86.5 1496.5 c 128
 93.5 1502.16666667 102 1505 112 1505 c 2
 185 1505 l 1
 239 1498.33333333 285.333333333 1493 324 1489 c 128
 362.666666667 1485 399.166666667 1481.83333333 433.5 1479.5 c 128
 467.833333333 1477.16666667 502.166666667 1475.66666667 536.5 1475 c 128
 570.833333333 1474.33333333 610.333333333 1474 655 1474 c 0
 697.666666667 1474 740 1476 782 1480 c 128
 824 1484 866.166666667 1488.16666667 908.5 1492.5 c 128
 950.833333333 1496.83333333 993 1501 1035 1505 c 128
 1077 1509 1119.33333333 1511 1162 1511 c 0
 1186 1511 1207.16666667 1504.33333333 1225.5 1491 c 128
 1243.83333333 1477.66666667 1253 1457 1253 1429 c 0
 1253 1409 1247 1389.66666667 1235 1371 c 1
 1181 1297 1128 1221.83333333 1076 1145.5 c 128
 1024 1069.16666667 974.5 991.166666667 927.5 911.5 c 128
 880.5 831.833333333 836.666666667 750.666666667 796 668 c 128
 755.333333333 585.333333333 719.333333333 500.333333333 688 413 c 0
 682.666666667 397.666666667 678.5 376.833333333 675.5 350.5 c 128
 672.5 324.166666667 669.333333333 295.833333333 666 265.5 c 128
 662.666666667 235.166666667 658.666666667 204.166666667 654 172.5 c 128
 649.333333333 140.833333333 642.333333333 112.333333333 633 87 c 128
 623.666666667 61.6666666667 611.666666667 40.8333333333 597 24.5 c 128
 582.333333333 8.16666666667 563.333333333 0 540 0 c 0
 521.333333333 0 504.5 5.66666666667 489.5 17 c 128
 474.5 28.3333333333 464 43 458 61 c 1
 458 134 l 2
EndSplineSet
Validated: 1
EndChar

StartChar: eight
Encoding: 56 56 27
Width: 1059
GlyphClass: 2
Flags: HW
LayerCount: 2
Fore
SplineSet
1029 399 m 4
 1029 361.666666667 1022.16666667 326.166666667 1008.5 292.5 c 132
 994.833333333 258.833333333 976.333333333 227.333333333 953 198 c 132
 929.666666667 168.666666667 902.333333333 142.166666667 871 118.5 c 132
 839.666666667 94.8333333333 806.5 74.6666666667 771.5 58 c 132
 736.5 41.3333333333 700.333333333 28.5 663 19.5 c 132
 625.666666667 10.5 589.333333333 6 554 6 c 4
 493.333333333 6 432.166666667 16.6666666667 370.5 38 c 132
 308.833333333 59.3333333333 253 89.5 203 128.5 c 132
 153 167.5 112.333333333 214.5 81 269.5 c 132
 49.6666666667 324.5 34 385.333333333 34 452 c 4
 34 500 39.3333333333 540.333333333 50 573 c 132
 60.6666666667 605.666666667 74.5 633.333333333 91.5 656 c 132
 108.5 678.666666667 128 698 150 714 c 132
 172 730 194.166666667 745.666666667 216.5 761 c 132
 238.833333333 776.333333333 260.5 792.5 281.5 809.5 c 132
 302.5 826.5 320.666666667 847.666666667 336 873 c 5
 316.666666667 895.666666667 296.666666667 916.166666667 276 934.5 c 132
 255.333333333 952.833333333 235 970.666666667 215 988 c 132
 195 1005.33333333 176 1022.83333333 158 1040.5 c 132
 140 1058.16666667 124 1077.33333333 110 1098 c 132
 96 1118.66666667 85 1141.66666667 77 1167 c 132
 69 1192.33333333 65 1221.33333333 65 1254 c 4
 65 1308.66666667 76.3333333333 1358.33333333 99 1403 c 132
 121.666666667 1447.66666667 151.666666667 1485.66666667 189 1517 c 132
 226.333333333 1548.33333333 269 1572.66666667 317 1590 c 132
 365 1607.33333333 414.333333333 1616 465 1616 c 4
 505 1616 546.5 1610.16666667 589.5 1598.5 c 132
 632.5 1586.83333333 674.666666667 1570.5 716 1549.5 c 132
 757.333333333 1528.5 796.5 1503.33333333 833.5 1474 c 132
 870.5 1444.66666667 903 1412.5 931 1377.5 c 132
 959 1342.5 981.166666667 1305.16666667 997.5 1265.5 c 132
 1013.83333333 1225.83333333 1022 1185 1022 1143 c 4
 1022 1102.33333333 1014.66666667 1065.5 1000 1032.5 c 132
 985.333333333 999.5 965.833333333 969.5 941.5 942.5 c 132
 917.166666667 915.5 889.5 891.166666667 858.5 869.5 c 132
 827.5 847.833333333 796 828.333333333 764 811 c 5
 764 808 l 6
 764 796.666666667 770.5 783.166666667 783.5 767.5 c 132
 796.5 751.833333333 812.833333333 734.166666667 832.5 714.5 c 132
 852.166666667 694.833333333 873.5 673.333333333 896.5 650 c 132
 919.5 626.666666667 940.833333333 601.833333333 960.5 575.5 c 132
 980.166666667 549.166666667 996.5 521.166666667 1009.5 491.5 c 132
 1022.5 461.833333333 1029 431 1029 399 c 4
850 403 m 4
 850 418.333333333 847.333333333 432.333333333 842 445 c 132
 836.666666667 457.666666667 829.333333333 470.333333333 820 483 c 5
 814.666666667 488.333333333 804.666666667 498.5 790 513.5 c 132
 775.333333333 528.5 758 545.5 738 564.5 c 132
 718 583.5 696.333333333 603.166666667 673 623.5 c 132
 649.666666667 643.833333333 627.333333333 662.5 606 679.5 c 132
 584.666666667 696.5 565 710.5 547 721.5 c 132
 529 732.5 515 738 505 738 c 4
 485 738 463.833333333 733.833333333 441.5 725.5 c 132
 419.166666667 717.166666667 397.333333333 706 376 692 c 132
 354.666666667 678 334 661.5 314 642.5 c 132
 294 623.5 276.666666667 603.666666667 262 583 c 132
 247.333333333 562.333333333 235.5 541 226.5 519 c 132
 217.5 497 213 475.666666667 213 455 c 4
 213 413.666666667 224 376.166666667 246 342.5 c 132
 268 308.833333333 295.666666667 280.166666667 329 256.5 c 132
 362.333333333 232.833333333 399.166666667 214.666666667 439.5 202 c 132
 479.833333333 189.333333333 518 183 554 183 c 4
 572.666666667 183 592.833333333 185.666666667 614.5 191 c 132
 636.166666667 196.333333333 658 203.666666667 680 213 c 132
 702 222.333333333 723.166666667 233.666666667 743.5 247 c 132
 763.833333333 260.333333333 782 275.166666667 798 291.5 c 132
 814 307.833333333 826.666666667 325.333333333 836 344 c 132
 845.333333333 362.666666667 850 382.333333333 850 403 c 4
839 1146 m 4
 839 1170.66666667 833 1195 821 1219 c 132
 809 1243 793 1265.83333333 773 1287.5 c 132
 753 1309.16666667 730 1329.16666667 704 1347.5 c 132
 678 1365.83333333 651.166666667 1381.66666667 623.5 1395 c 132
 595.833333333 1408.33333333 568.333333333 1418.83333333 541 1426.5 c 132
 513.666666667 1434.16666667 488.333333333 1438 465 1438 c 4
 438.333333333 1438 412.166666667 1433.83333333 386.5 1425.5 c 132
 360.833333333 1417.16666667 337.833333333 1405 317.5 1389 c 132
 297.166666667 1373 280.833333333 1353.66666667 268.5 1331 c 132
 256.166666667 1308.33333333 250 1282.66666667 250 1254 c 4
 250 1226 256 1201.83333333 268 1181.5 c 132
 280 1161.16666667 296.666666667 1142.33333333 318 1125 c 6
 533 953 l 5
 535.666666667 949.666666667 538.5 947.666666667 541.5 947 c 132
 544.5 946.333333333 547.666666667 946 551 946 c 4
 566.333333333 946 584.166666667 948.666666667 604.5 954 c 132
 624.833333333 959.333333333 645.666666667 966.666666667 667 976 c 132
 688.333333333 985.333333333 709.166666667 996.333333333 729.5 1009 c 132
 749.833333333 1021.66666667 768.166666667 1035.5 784.5 1050.5 c 132
 800.833333333 1065.5 814 1081 824 1097 c 132
 834 1113 839 1129.33333333 839 1146 c 4
EndSplineSet
Validated: 1
EndChar

StartChar: nine
Encoding: 57 57 28
Width: 1205
GlyphClass: 2
Flags: HW
LayerCount: 2
Fore
SplineSet
1130 655 m 1
 1118 568.333333333 1092.66666667 485.833333333 1054 407.5 c 128
 1015.33333333 329.166666667 966 260.333333333 906 201 c 128
 846 141.666666667 776.5 94.5 697.5 59.5 c 128
 618.5 24.5 532.666666667 7 440 7 c 0
 426.666666667 7 410.333333333 6.16666666667 391 4.5 c 128
 371.666666667 2.83333333333 351.5 1.66666666667 330.5 1 c 128
 309.5 0.333333333333 288.333333333 0.833333333333 267 2.5 c 128
 245.666666667 4.16666666667 226.666666667 8 210 14 c 128
 193.333333333 20 179.833333333 29 169.5 41 c 128
 159.166666667 53 154 69.3333333333 154 90 c 0
 154 115.333333333 163 135.666666667 181 151 c 128
 199 166.333333333 220 174 244 174 c 0
 276.666666667 174 309 176 341 180 c 128
 373 184 406 186 440 186 c 0
 480.666666667 186 521.666666667 191.666666667 563 203 c 128
 604.333333333 214.333333333 643.833333333 230.333333333 681.5 251 c 128
 719.166666667 271.666666667 754.5 296.333333333 787.5 325 c 128
 820.5 353.666666667 849 385.5 873 420.5 c 128
 897 455.5 916 493 930 533 c 128
 944 573 951 614.666666667 951 658 c 2
 951 673 l 1
 924.333333333 653 894.333333333 633.833333333 861 615.5 c 128
 827.666666667 597.166666667 792.833333333 581.333333333 756.5 568 c 128
 720.166666667 554.666666667 683.166666667 544 645.5 536 c 128
 607.833333333 528 571.666666667 524 537 524 c 0
 463 524 398.666666667 538.333333333 344 567 c 128
 289.333333333 595.666666667 243.833333333 634 207.5 682 c 128
 171.166666667 730 144 785.666666667 126 849 c 128
 108 912.333333333 99 978.666666667 99 1048 c 0
 99 1090.66666667 106.5 1132.5 121.5 1173.5 c 128
 136.5 1214.5 157.166666667 1253.5 183.5 1290.5 c 128
 209.833333333 1327.5 240.666666667 1361.83333333 276 1393.5 c 128
 311.333333333 1425.16666667 349.333333333 1452.5 390 1475.5 c 128
 430.666666667 1498.5 473 1516.5 517 1529.5 c 128
 561 1542.5 604.666666667 1549 648 1549 c 0
 719.333333333 1549 780.833333333 1538.5 832.5 1517.5 c 128
 884.166666667 1496.5 927.833333333 1467.83333333 963.5 1431.5 c 128
 999.166666667 1395.16666667 1028 1352.33333333 1050 1303 c 128
 1072 1253.66666667 1088.83333333 1200.5 1100.5 1143.5 c 128
 1112.16666667 1086.5 1120 1027 1124 965 c 128
 1128 903 1130 841.333333333 1130 780 c 2
 1130 655 l 1
951 932 m 0
 951 988 946.666666667 1042.33333333 938 1095 c 128
 929.333333333 1147.66666667 914 1194.33333333 892 1235 c 128
 870 1275.66666667 840 1308.33333333 802 1333 c 128
 764 1357.66666667 715.666666667 1370 657 1370 c 2
 600 1370 l 1
 566 1362 529.666666667 1347.66666667 491 1327 c 128
 452.333333333 1306.33333333 416.833333333 1281.66666667 384.5 1253 c 128
 352.166666667 1224.33333333 325.333333333 1192.66666667 304 1158 c 128
 282.666666667 1123.33333333 272 1087.66666667 272 1051 c 0
 272 1003.66666667 276.5 959 285.5 917 c 128
 294.5 875 309.166666667 838.166666667 329.5 806.5 c 128
 349.833333333 774.833333333 377 749.666666667 411 731 c 128
 445 712.333333333 487 703 537 703 c 0
 554.333333333 703 576.666666667 705.833333333 604 711.5 c 128
 631.333333333 717.166666667 660.333333333 725.166666667 691 735.5 c 128
 721.666666667 745.833333333 752.333333333 758.166666667 783 772.5 c 128
 813.666666667 786.833333333 841.5 802.5 866.5 819.5 c 128
 891.5 836.5 911.833333333 854.5 927.5 873.5 c 128
 943.166666667 892.5 951 912 951 932 c 0
EndSplineSet
Validated: 1
EndChar

StartChar: colon
Encoding: 58 58 29
Width: 613
GlyphClass: 2
Flags: HW
LayerCount: 2
Fore
SplineSet
238.12890625 151 m 256
 238.12890625 171 241.962239583 190 249.62890625 208 c 128
 257.295572917 226 267.62890625 241.666666667 280.62890625 255 c 128
 293.62890625 268.333333333 309.12890625 278.833333333 327.12890625 286.5 c 128
 345.12890625 294.166666667 364.12890625 298 384.12890625 298 c 256
 404.12890625 298 423.12890625 294.166666667 441.12890625 286.5 c 128
 459.12890625 278.833333333 474.795572917 268.333333333 488.12890625 255 c 128
 501.462239583 241.666666667 511.962239583 226 519.62890625 208 c 128
 527.295572917 190 531.12890625 171 531.12890625 151 c 256
 531.12890625 131 527.295572917 112 519.62890625 94 c 128
 511.962239583 76 501.462239583 60.5 488.12890625 47.5 c 128
 474.795572917 34.5 459.12890625 24.1666666667 441.12890625 16.5 c 128
 423.12890625 8.83333333333 404.12890625 5 384.12890625 5 c 256
 364.12890625 5 345.12890625 8.83333333333 327.12890625 16.5 c 128
 309.12890625 24.1666666667 293.62890625 34.5 280.62890625 47.5 c 128
 267.62890625 60.5 257.295572917 76 249.62890625 94 c 128
 241.962239583 112 238.12890625 131 238.12890625 151 c 256
230.12890625 979 m 256
 230.12890625 999 233.962239583 1018 241.62890625 1036 c 128
 249.295572917 1054 259.62890625 1069.66666667 272.62890625 1083 c 128
 285.62890625 1096.33333333 301.12890625 1106.83333333 319.12890625 1114.5 c 128
 337.12890625 1122.16666667 356.12890625 1126 376.12890625 1126 c 256
 396.12890625 1126 415.12890625 1122.16666667 433.12890625 1114.5 c 128
 451.12890625 1106.83333333 466.795572917 1096.33333333 480.12890625 1083 c 128
 493.462239583 1069.66666667 503.962239583 1054 511.62890625 1036 c 128
 519.295572917 1018 523.12890625 999 523.12890625 979 c 256
 523.12890625 959 519.295572917 940 511.62890625 922 c 128
 503.962239583 904 493.462239583 888.5 480.12890625 875.5 c 128
 466.795572917 862.5 451.12890625 852.166666667 433.12890625 844.5 c 128
 415.12890625 836.833333333 396.12890625 833 376.12890625 833 c 256
 356.12890625 833 337.12890625 836.833333333 319.12890625 844.5 c 128
 301.12890625 852.166666667 285.62890625 862.5 272.62890625 875.5 c 128
 259.62890625 888.5 249.295572917 904 241.62890625 922 c 128
 233.962239583 940 230.12890625 959 230.12890625 979 c 256
EndSplineSet
Validated: 1
EndChar

StartChar: semicolon
Encoding: 59 59 30
Width: 513
GlyphClass: 2
Flags: HW
LayerCount: 2
Fore
SplineSet
76 -185 m 0
 106 -150.333333333 131 -116.333333333 151 -83 c 128
 171 -49.6666666667 187.333333333 -16 200 18 c 128
 212.666666667 52 222.666666667 86.8333333333 230 122.5 c 128
 237.333333333 158.166666667 243.666666667 195.333333333 249 234 c 0
 252.333333333 255.333333333 262.666666667 272 280 284 c 128
 297.333333333 296 316 302 336 302 c 0
 357.333333333 302 375.166666667 297.666666667 389.5 289 c 128
 403.833333333 280.333333333 415 266 423 246 c 1
 423 187 l 2
 423 165.666666667 420.5 139.333333333 415.5 108 c 128
 410.5 76.6666666667 403 43.8333333333 393 9.5 c 128
 383 -24.8333333333 370.666666667 -58.8333333333 356 -92.5 c 128
 341.333333333 -126.166666667 324.5 -156.5 305.5 -183.5 c 128
 286.5 -210.5 265.333333333 -232.333333333 242 -249 c 128
 218.666666667 -265.666666667 193.333333333 -274 166 -274 c 0
 152.666666667 -274 139.333333333 -270.666666667 126 -264 c 128
 112.666666667 -257.333333333 101.166666667 -249.333333333 91.5 -240 c 128
 81.8333333333 -230.666666667 75.1666666667 -221 71.5 -211 c 128
 67.8333333333 -201 69.3333333333 -192.333333333 76 -185 c 0
169 978 m 256
 169 998 172.833333333 1017 180.5 1035 c 128
 188.166666667 1053 198.5 1068.66666667 211.5 1082 c 128
 224.5 1095.33333333 240 1105.83333333 258 1113.5 c 128
 276 1121.16666667 295 1125 315 1125 c 256
 335 1125 354 1121.16666667 372 1113.5 c 128
 390 1105.83333333 405.666666667 1095.33333333 419 1082 c 128
 432.333333333 1068.66666667 442.833333333 1053 450.5 1035 c 128
 458.166666667 1017 462 998 462 978 c 256
 462 958 458.166666667 939 450.5 921 c 128
 442.833333333 903 432.333333333 887.5 419 874.5 c 128
 405.666666667 861.5 390 851.166666667 372 843.5 c 128
 354 835.833333333 335 832 315 832 c 256
 295 832 276 835.833333333 258 843.5 c 128
 240 851.166666667 224.5 861.5 211.5 874.5 c 128
 198.5 887.5 188.166666667 903 180.5 921 c 128
 172.833333333 939 169 958 169 978 c 256
EndSplineSet
Validated: 1
EndChar

StartChar: less
Encoding: 60 60 31
Width: 1038
GlyphClass: 2
Flags: HW
LayerCount: 2
Fore
SplineSet
885 1228 m 128
 905 1228 922.5 1220 937.5 1204 c 128
 952.5 1188 960 1168.33333333 960 1145 c 128
 960 1121.66666667 949.333333333 1095.16666667 928 1065.5 c 128
 906.666666667 1035.83333333 879.166666667 1005.33333333 845.5 974 c 128
 811.833333333 942.666666667 774 911.333333333 732 880 c 128
 690 848.666666667 648 818.833333333 606 790.5 c 128
 564 762.166666667 524.333333333 736.333333333 487 713 c 128
 449.666666667 689.666666667 419 670.333333333 395 655 c 1
 438.333333333 621.666666667 484.5 587.666666667 533.5 553 c 128
 582.5 518.333333333 648 470.333333333 730 409 c 128
 812 347.666666667 871 296.333333333 907 255 c 0
 942.669724771 214.045871559 960.504587156 189.781247369 960.504587156 182.20612743 c 0
 960.504587156 182.135987431 960.503058104 182.067278287 960.5 182 c 0
 960.166666667 174.666666667 960 163.5 960 148.5 c 128
 960 133.5 953 118.5 939 103.5 c 128
 925 88.5 907.5 81 886.5 81 c 128
 865.5 81 840.333333333 92 811 114 c 128
 781.666666667 136 747.666666667 163.833333333 709 197.5 c 128
 670.333333333 231.166666667 627.833333333 268 581.5 308 c 128
 535.166666667 348 469.833333333 398.5 385.5 459.5 c 128
 301.166666667 520.5 231.166666667 555.666666667 175.5 565 c 128
 119.833333333 574.333333333 86.6666666667 587 76 603 c 128
 65.3333333333 619 61.1666666667 634.833333333 63.5 650.5 c 128
 65.8333333333 666.166666667 75.5 681.333333333 92.5 696 c 128
 109.5 710.666666667 130.833333333 725.666666667 156.5 741 c 128
 182.166666667 756.333333333 210.166666667 771.666666667 240.5 787 c 128
 270.833333333 802.333333333 310.833333333 822.5 360.5 847.5 c 128
 410.166666667 872.5 440.333333333 889 451 897 c 2
 831 1212 l 1
 847 1222.66666667 865 1228 885 1228 c 128
EndSplineSet
Validated: 1
EndChar

StartChar: equal
Encoding: 61 61 32
Width: 1187
GlyphClass: 2
Flags: HW
LayerCount: 2
Fore
SplineSet
1033 366 m 1
 136 366 l 1
 172 552 l 1
 1069 552 l 1
 1033 366 l 1
1033 808 m 1
 136 808 l 1
 172 978 l 1
 1069 978 l 1
 1033 808 l 1
EndSplineSet
Validated: 1
EndChar

StartChar: greater
Encoding: 62 62 33
Width: 1032
GlyphClass: 2
Flags: HW
LayerCount: 2
Fore
SplineSet
249 1200 m 128
 269 1200 287 1194.66666667 303 1184 c 1
 683 869 l 2
 693.666666667 861 723.833333333 844.5 773.5 819.5 c 128
 823.166666667 794.5 863.166666667 774.333333333 893.5 759 c 128
 923.833333333 743.666666667 951.833333333 728.333333333 977.5 713 c 128
 1003.16666667 697.666666667 1024.5 682.666666667 1041.5 668 c 128
 1058.5 653.333333333 1068.16666667 638.166666667 1070.5 622.5 c 128
 1072.83333333 606.833333333 1068.66666667 591 1058 575 c 128
 1047.33333333 559 1014.16666667 546.333333333 958.5 537 c 128
 902.833333333 527.666666667 832.833333333 492.5 748.5 431.5 c 128
 664.166666667 370.5 598.833333333 320 552.5 280 c 128
 506.166666667 240 463.666666667 203.166666667 425 169.5 c 128
 386.333333333 135.833333333 352.333333333 108 323 86 c 128
 293.666666667 64 268.5 53 247.5 53 c 128
 226.5 53 209 60.5 195 75.5 c 128
 181 90.5 174 105.5 174 120.5 c 128
 174 135.5 173.833333333 146.666666667 173.5 154 c 0
 173.496744792 154.067057292 173.495117188 154.135742188 173.495117188 154.206054688 c 0
 173.495117188 161.780924479 191.330078125 186.045572917 227 227 c 0
 263 268.333333333 322 319.666666667 404 381 c 128
 486 442.333333333 551.5 490.333333333 600.5 525 c 128
 649.5 559.666666667 695.666666667 593.666666667 739 627 c 1
 715 642.333333333 684.333333333 661.666666667 647 685 c 128
 609.666666667 708.333333333 570 734.166666667 528 762.5 c 128
 486 790.833333333 444 820.666666667 402 852 c 128
 360 883.333333333 322.166666667 914.666666667 288.5 946 c 128
 254.833333333 977.333333333 227.333333333 1007.83333333 206 1037.5 c 128
 184.666666667 1067.16666667 174 1093.66666667 174 1117 c 128
 174 1140.33333333 181.5 1160 196.5 1176 c 128
 211.5 1192 229 1200 249 1200 c 128
EndSplineSet
Validated: 1
EndChar

StartChar: question
Encoding: 63 63 34
Width: 971
GlyphClass: 2
Flags: HW
LayerCount: 2
Fore
SplineSet
235 176 m 256
 235 220.666666667 251 258.833333333 283 290.5 c 128
 315 322.166666667 353.666666667 338 399 338 c 0
 445 338 483 322 513 290 c 0
 542.333333333 259.333333333 557 221.333333333 557 176 c 256
 557 130.666666667 542.333333333 92 513 60 c 0
 483 28 445 12 399 12 c 0
 353.666666667 12 315 28 283 60 c 128
 251 92 235 130.666666667 235 176 c 256
453 437 m 1
 388 437 l 2
 377.333333333 437 368 441.333333333 360 450 c 128
 352 458.666666667 344.666666667 467 338 475 c 1
 317 539 l 1
 316.184782609 551.173913043 315.777173913 562.953508979 315.777173913 574.338787807 c 0
 315.777173913 702.612929269 367.518115942 780.833333333 471 809 c 0
 510.101449275 819.463768116 546.700693132 824.695652174 580.797731569 824.695652174 c 0
 587.97605545 824.695652174 595.043478261 824.463768116 602 824 c 0
 607.925925926 823.604938271 613.632373114 823.407407407 619.119341564 823.407407407 c 0
 650.669410151 823.407407407 674.962962963 829.938271605 692 843 c 0
 750.339285714 886.607142857 779.508928571 978.917171557 779.508928571 1119.9300861 c 0
 779.508928571 1138.44693346 779.005952381 1157.80357143 778 1178 c 0
 768.739018088 1347.34366925 714.844821025 1432.01550388 616.31740881 1432.01550388 c 0
 615.547663402 1432.01550388 614.775193799 1432.01033592 614 1432 c 0
 570 1430.66666667 536.666666667 1424.66666667 514 1414 c 0
 464.666666667 1391.33333333 400.333333333 1346.33333333 321 1279 c 0
 280.333333333 1245 254 1214.66666667 242 1188 c 0
 211.333333333 1121.33333333 179.333333333 1087.33333333 146 1086 c 0
 124.666666667 1084.66666667 105.5 1092.66666667 88.5 1110 c 128
 71.5 1127.33333333 62.6666666667 1152.33333333 62 1185 c 0
 61.9770114943 1186.12643678 61.9655172414 1187.25604439 61.9655172414 1188.38882283 c 0
 61.9655172414 1220.1066191 70.9770114943 1254.31034483 89 1291 c 0
 124.333333333 1363.66666667 181.666666667 1427.33333333 261 1482 c 0
 383 1564.66666667 500.666666667 1606.66666667 614 1608 c 0
 702 1608 771.333333333 1582.66666667 822 1532 c 0
 836.666666667 1517.33333333 857.166666667 1490.66666667 883.5 1452 c 128
 909.833333333 1413.33333333 927.333333333 1384.66666667 936 1366 c 1
 968 1226 l 1
 971 1106 l 2
 971 1039.33333333 967.333333333 981.333333333 960 932 c 128
 952.666666667 882.666666667 928.333333333 828.833333333 887 770.5 c 128
 845.666666667 712.166666667 795.333333333 675.666666667 736 661 c 128
 676.666666667 646.333333333 629.333333333 639 594 639 c 128
 558.666666667 639 534.333333333 632.333333333 521 619 c 1
 505 583 l 1
 506.041666667 576.958333333 506.5625 570.0703125 506.5625 562.3359375 c 0
 506.5625 545.3203125 504.041666667 524.208333333 499 499 c 0
 491.666666667 462.333333333 476.333333333 441.666666667 453 437 c 1
EndSplineSet
Validated: 1
EndChar

StartChar: at
Encoding: 64 64 35
Width: 1945
GlyphClass: 2
Flags: HW
LayerCount: 2
Fore
SplineSet
128 586 m 0
 128 670.666666667 137.833333333 751 157.5 827 c 128
 177.166666667 903 205.166666667 973.166666667 241.5 1037.5 c 128
 277.833333333 1101.83333333 322 1159.66666667 374 1211 c 128
 426 1262.33333333 484.333333333 1306.16666667 549 1342.5 c 128
 613.666666667 1378.83333333 684 1406.66666667 760 1426 c 128
 836 1445.33333333 916.333333333 1455 1001 1455 c 0
 1091 1455 1173.5 1443.66666667 1248.5 1421 c 128
 1323.5 1398.33333333 1391.16666667 1366.66666667 1451.5 1326 c 128
 1511.83333333 1285.33333333 1564.66666667 1236.33333333 1610 1179 c 128
 1655.33333333 1121.66666667 1693 1058.66666667 1723 990 c 128
 1753 921.333333333 1775.66666667 847.666666667 1791 769 c 128
 1806.33333333 690.333333333 1814 609 1814 525 c 0
 1814 492.333333333 1812.33333333 456.166666667 1809 416.5 c 128
 1805.66666667 376.833333333 1799.83333333 336.833333333 1791.5 296.5 c 128
 1783.16666667 256.166666667 1771.66666667 216.833333333 1757 178.5 c 128
 1742.33333333 140.166666667 1723.33333333 106.166666667 1700 76.5 c 128
 1676.66666667 46.8333333333 1648.66666667 23 1616 5 c 128
 1583.33333333 -13 1545 -22 1501 -22 c 0
 1461.66666667 -22 1428.16666667 -16.5 1400.5 -5.5 c 128
 1372.83333333 5.5 1349.16666667 20 1329.5 38 c 128
 1309.83333333 56 1293.16666667 76.6666666667 1279.5 100 c 128
 1265.83333333 123.333333333 1253.66666667 147.5 1243 172.5 c 128
 1232.33333333 197.5 1222 222.5 1212 247.5 c 128
 1202 272.5 1191 295.666666667 1179 317 c 1
 1163.66666667 305 1146.33333333 291 1127 275 c 128
 1107.66666667 259 1087.33333333 243.833333333 1066 229.5 c 128
 1044.66666667 215.166666667 1022.83333333 203 1000.5 193 c 128
 978.166666667 183 956.666666667 178 936 178 c 2
 771 178 l 2
 739.666666667 178 712.166666667 184.666666667 688.5 198 c 128
 664.833333333 211.333333333 644.333333333 229.166666667 627 251.5 c 128
 609.666666667 273.833333333 595.333333333 299 584 327 c 128
 572.666666667 355 563.5 383.666666667 556.5 413 c 128
 549.5 442.333333333 544.5 470.833333333 541.5 498.5 c 128
 538.5 526.166666667 537 551 537 573 c 2
 537 673 l 1
 549.666666667 742.333333333 574.5 799.5 611.5 844.5 c 128
 648.5 889.5 692.666666667 925 744 951 c 128
 795.333333333 977 851.833333333 995.166666667 913.5 1005.5 c 128
 975.166666667 1015.83333333 1037.66666667 1021 1101 1021 c 0
 1113.66666667 1021 1130.66666667 1020.83333333 1152 1020.5 c 128
 1173.33333333 1020.16666667 1194.83333333 1018 1216.5 1014 c 128
 1238.16666667 1010 1257.83333333 1003.16666667 1275.5 993.5 c 128
 1293.16666667 983.833333333 1304.66666667 969.666666667 1310 951 c 1
 1310 941 1310.33333333 925.5 1311 904.5 c 128
 1311.66666667 883.5 1312.5 859.833333333 1313.5 833.5 c 128
 1314.5 807.166666667 1315.66666667 779.666666667 1317 751 c 128
 1318.33333333 722.333333333 1319.66666667 694.833333333 1321 668.5 c 128
 1322.33333333 642.166666667 1323.5 618.5 1324.5 597.5 c 128
 1325.5 576.5 1326.33333333 561 1327 551 c 0
 1327.66666667 539 1329.66666667 521.166666667 1333 497.5 c 128
 1336.33333333 473.833333333 1341.16666667 447.833333333 1347.5 419.5 c 128
 1353.83333333 391.166666667 1361.83333333 362.166666667 1371.5 332.5 c 128
 1381.16666667 302.833333333 1392.33333333 275.833333333 1405 251.5 c 128
 1417.66666667 227.166666667 1432 207.333333333 1448 192 c 128
 1464 176.666666667 1481.66666667 169 1501 169 c 256
 1520.33333333 169 1537 176.166666667 1551 190.5 c 128
 1565 204.833333333 1576.83333333 223.166666667 1586.5 245.5 c 128
 1596.16666667 267.833333333 1604 292.666666667 1610 320 c 128
 1616 347.333333333 1620.5 373.833333333 1623.5 399.5 c 128
 1626.5 425.166666667 1628.5 448.666666667 1629.5 470 c 128
 1630.5 491.333333333 1631 507 1631 517 c 0
 1631 619 1618.16666667 715.333333333 1592.5 806 c 128
 1566.83333333 896.666666667 1527.66666667 975.833333333 1475 1043.5 c 128
 1422.33333333 1111.16666667 1356 1164.83333333 1276 1204.5 c 128
 1196 1244.16666667 1101.66666667 1264 993 1264 c 0
 895 1264 804.5 1247.66666667 721.5 1215 c 128
 638.5 1182.33333333 566.5 1136.33333333 505.5 1077 c 128
 444.5 1017.66666667 396.833333333 946.833333333 362.5 864.5 c 128
 328.166666667 782.166666667 311 691 311 591 c 0
 311 506.333333333 325 426.333333333 353 351 c 128
 381 275.666666667 420.666666667 209.833333333 472 153.5 c 128
 523.333333333 97.1666666667 585 52.5 657 19.5 c 128
 729 -13.5 809 -30 897 -30 c 2
 980 -30 l 1
 994.666666667 -21.3333333333 1007.5 -16.3333333333 1018.5 -15 c 128
 1029.5 -13.6666666667 1042.66666667 -13 1058 -13 c 0
 1086 -13 1107.5 -20.3333333333 1122.5 -35 c 128
 1137.5 -49.6666666667 1145 -70 1145 -96 c 0
 1145 -127.333333333 1136.16666667 -151.5 1118.5 -168.5 c 128
 1100.83333333 -185.5 1079 -198 1053 -206 c 128
 1027 -214 999.5 -218.666666667 970.5 -220 c 128
 941.5 -221.333333333 915.666666667 -222 893 -222 c 0
 817 -222 745.333333333 -212.166666667 678 -192.5 c 128
 610.666666667 -172.833333333 548.666666667 -145.333333333 492 -110 c 128
 435.333333333 -74.6666666667 384.5 -32.1666666667 339.5 17.5 c 128
 294.5 67.1666666667 256.333333333 122 225 182 c 128
 193.666666667 242 169.666666667 306 153 374 c 128
 136.333333333 442 128 512.666666667 128 586 c 0
702 573 m 0
 702 547.666666667 704 521.5 708 494.5 c 128
 712 467.5 719.5 442.833333333 730.5 420.5 c 128
 741.5 398.166666667 757 379.666666667 777 365 c 128
 797 350.333333333 822.666666667 343 854 343 c 0
 896.666666667 343 933.333333333 350.333333333 964 365 c 128
 994.666666667 379.666666667 1020.33333333 399.333333333 1041 424 c 128
 1061.66666667 448.666666667 1078.33333333 477.166666667 1091 509.5 c 128
 1103.66666667 541.833333333 1113.33333333 575.5 1120 610.5 c 128
 1126.66666667 645.5 1131 680.666666667 1133 716 c 128
 1135 751.333333333 1136 784.666666667 1136 816 c 0
 1136 818 1136.16666667 820.833333333 1136.5 824.5 c 128
 1136.83333333 828.166666667 1136.83333333 831.666666667 1136.5 835 c 128
 1136.16666667 838.333333333 1135.33333333 841.166666667 1134 843.5 c 128
 1132.66666667 845.833333333 1130.33333333 847 1127 847 c 2
 1054 847 l 2
 1007.33333333 847 962.666666667 842.833333333 920 834.5 c 128
 877.333333333 826.166666667 839.833333333 811.666666667 807.5 791 c 128
 775.166666667 770.333333333 749.5 742.333333333 730.5 707 c 128
 711.5 671.666666667 702 627 702 573 c 0
EndSplineSet
Validated: 1
EndChar

StartChar: A
Encoding: 65 65 36
Width: 1276
GlyphClass: 2
Flags: HW
LayerCount: 2
Fore
SplineSet
1113 998 m 0
 1133 918 1144.66666667 839.333333333 1148 762 c 1
 1155.51111111 686.888888889 1159.26666667 618.537777778 1159.26666667 556.946666667 c 0
 1159.26666667 547.471111111 1159.17777778 538.155555555 1159 529 c 0
 1157.66666667 468.333333333 1157 435.333333333 1157 430 c 0
 1155 380 1153 331.666666667 1151 285 c 0
 1150.33333333 262.333333333 1148.66666667 234.666666667 1146 202 c 0
 1144 176 1144 176 1144 176 c 0
 1143.33333333 168 1142.66666667 160.333333333 1142 153 c 0
 1142 145.666666667 1141.66666667 138.666666667 1141 132 c 0
 1141 116 1141 116 1141 112 c 0
 1141 105 1141 105 1141 98 c 0
 1141 93 1141 93 1141 88 c 0
 1141 78 1141 78 1141 78 c 0
 1140.33333333 76 1140 74.3333333333 1140 73 c 2
 1140 68 l 1
 1133.33333333 36 1115.33333333 13 1086 -1 c 0
 1069.33333333 -9 1054 -13 1040 -13 c 0
 1027.33333333 -13 1015 -10 1003 -4 c 0
 962.333333333 16 942 44.3333333333 942 81 c 0
 942 89 942 89 942 89 c 0
 941.333333333 91 941.666666667 93.6666666667 943 97 c 0
 943 160 943 160 943 160 c 0
 942.777777778 169.111111111 942.666666667 181.703703704 942.666666667 197.777777778 c 0
 942.666666667 229.925925926 943.111111111 276 944 336 c 0
 944 372 944.666666667 413 946 459 c 0
 946 459 946 459 946 530 c 1
 932 527.333333333 914 523.666666667 892 519 c 0
 887.333333333 518.333333333 853.333333333 511.666666667 790 499 c 0
 666 474.333333333 588 460 556 456 c 0
 528 452 513 450 511 450 c 0
 496.333333333 447.333333333 482.333333333 444.666666667 469 442 c 0
 429 434 429 434 429 434 c 0
 416.333333333 431.333333333 404 428.666666667 392 426 c 0
 388.666666667 425.333333333 382.666666667 424 374 422 c 0
 358 418 358 418 358 418 c 0
 348 415.333333333 338.333333333 413 329 411 c 1
 324.333333333 397.666666667 320.666666667 388 318 382 c 0
 314 372.666666667 309.666666667 362.666666667 305 352 c 0
 301 341.333333333 297 330.333333333 293 319 c 0
 275 273 259.666666667 233 247 199 c 2
 196 58 l 2
 192.666666667 52 190.333333333 47.6666666667 189 45 c 0
 181.666666667 33.6666666667 171 21.6666666667 157 9 c 0
 139 -7 119.333333333 -15 98 -15 c 0
 84.6666666667 -15 70.6666666667 -11.3333333333 56 -4 c 0
 27.3333333333 10.6666666667 10 29.3333333333 4 52 c 0
 4 52 4 52 4 63 c 0
 4 72 4 72 4 72 c 0
 4.66666666667 74.6666666667 5 77.6666666667 5 81 c 0
 5 85 5 85 5 85 c 0
 3 87 3 88.6666666667 5 90 c 0
 6.33333333333 91.3333333333 6.66666666667 92.6666666667 6 94 c 128
 5.33333333333 95.3333333333 5.33333333333 97.3333333333 6 100 c 0
 7.33333333333 104 7.66666666667 106.333333333 7 107 c 128
 6.33333333333 107.666666667 6.66666666667 109 8 111 c 2
 12 153 l 1
 12 154 l 1
 13 155 l 2
 61 254.333333333 94.3333333333 337.333333333 113 404 c 0
 154.333333333 551.333333333 181.333333333 651.333333333 194 704 c 0
 208 762.666666667 217.666666667 801.333333333 223 820 c 0
 226.333333333 833.333333333 228.666666667 843.333333333 230 850 c 0
 232 856.666666667 233.333333333 860.666666667 234 862 c 0
 235.333333333 868.666666667 244.666666667 899.333333333 262 954 c 0
 270.666666667 982.666666667 275.666666667 999 277 1003 c 0
 302.333333333 1105.66666667 373.333333333 1225.33333333 490 1362 c 0
 530.666666667 1410 572.333333333 1447 615 1473 c 0
 635.666666667 1485.66666667 656.666666667 1495 678 1501 c 128
 699.333333333 1507 720.666666667 1510 742 1510 c 0
 854.343688484 1510 949.524678067 1420.66666667 1027.54296875 1242 c 0
 1064.51432292 1157.33333333 1093 1076 1113 998 c 0
452.54296875 893 m 0
 435.876302083 851.666666667 420.876302083 808.666666667 407.54296875 764 c 0
 404.209635417 753.333333333 401.209635417 742.333333333 398.54296875 731 c 128
 395.876302083 719.666666667 393.04296875 708.333333333 390.04296875 697 c 128
 387.04296875 685.666666667 384.376302083 674.333333333 382.04296875 663 c 128
 379.709635417 651.666666667 377.209635417 640.333333333 374.54296875 629 c 1
 382.54296875 629.666666667 389.709635417 630.333333333 396.04296875 631 c 128
 402.376302083 631.666666667 408.876302083 632.333333333 415.54296875 633 c 0
 430.209635417 634.333333333 443.876302083 636 456.54296875 638 c 128
 469.209635417 640 481.209635417 642.333333333 492.54296875 645 c 0
 507.54296875 648 507.54296875 648 520.04296875 650.5 c 128
 528.376302083 652.166666667 536.04296875 653.666666667 543.04296875 655 c 128
 550.04296875 656.333333333 556.209635417 657.333333333 561.54296875 658 c 0
 563.54296875 658.666666667 565.376302083 659.166666667 567.04296875 659.5 c 128
 569.54296875 660 569.54296875 660 572.04296875 660.5 c 128
 573.709635417 660.833333333 575.209635417 661 576.54296875 661 c 0
 580.54296875 661.666666667 583.876302083 662 586.54296875 662 c 128
 589.209635417 662 591.54296875 662.333333333 593.54296875 663 c 0
 597.54296875 663.666666667 623.209635417 668.333333333 670.54296875 677 c 0
 737.876302083 689 793.709635417 700.833333333 838.04296875 712.5 c 128
 882.376302083 724.166666667 914.54296875 735.666666667 934.54296875 747 c 2
 939.54296875 750 l 2
 940.209635417 750.666666667 940.54296875 752.666666667 940.54296875 756 c 0
 940.54296875 803.333333333 934.709635417 854.833333333 923.04296875 910.5 c 128
 911.376302083 966.166666667 893.876302083 1026.33333333 870.54296875 1091 c 0
 847.209635417 1153 822.876302083 1201.33333333 797.54296875 1236 c 0
 792.209635417 1243.33333333 786.709635417 1250 781.04296875 1256 c 128
 775.376302083 1262 769.876302083 1267.33333333 764.54296875 1272 c 128
 759.209635417 1276.66666667 754.04296875 1280.5 749.04296875 1283.5 c 128
 744.04296875 1286.5 738.876302083 1288.66666667 733.54296875 1290 c 0
 726.54296875 1292 726.54296875 1292 719.54296875 1294 c 0
 692.209635417 1284 664.209635417 1262.66666667 635.54296875 1230 c 128
 606.876302083 1197.33333333 577.209635417 1152.83333333 546.54296875 1096.5 c 128
 515.876302083 1040.16666667 484.54296875 972.333333333 452.54296875 893 c 0
EndSplineSet
Validated: 1
EndChar

StartChar: B
Encoding: 66 66 37
Width: 1288
GlyphClass: 2
Flags: HW
LayerCount: 2
Fore
SplineSet
133.892578125 19 m 0
 132.892578125 19 l 1
 131.892578125 19 l 1
 130.892578125 19 l 2
 122.892578125 19 108.892578125 31 88.892578125 55 c 0
 82.2259114583 63 78.892578125 80.3333333333 78.892578125 107 c 0
 78.892578125 117 79.892578125 127.333333333 81.892578125 138 c 128
 83.892578125 148.666666667 86.892578125 160.333333333 90.892578125 173 c 0
 98.892578125 197 107.892578125 221.333333333 117.892578125 246 c 0
 119.225911458 249.333333333 120.725911458 252.666666667 122.392578125 256 c 128
 124.059244792 259.333333333 125.559244792 262.666666667 126.892578125 266 c 128
 128.225911458 269.333333333 129.725911458 272.666666667 131.392578125 276 c 128
 133.059244792 279.333333333 134.559244792 282.666666667 135.892578125 286 c 128
 137.892578125 291 137.892578125 291 139.892578125 296 c 128
 141.225911458 299.333333333 142.725911458 302.5 144.392578125 305.5 c 128
 146.059244792 308.5 147.559244792 311.666666667 148.892578125 315 c 0
 152.225911458 322.333333333 155.225911458 329 157.892578125 335 c 128
 160.559244792 341 162.892578125 346.666666667 164.892578125 352 c 0
 165.892578125 356 165.892578125 356 166.892578125 360 c 128
 167.559244792 362.666666667 168.225911458 365 168.892578125 367 c 0
 192.225911458 441.666666667 212.559244792 518.666666667 229.892578125 598 c 128
 247.225911458 677.333333333 261.059244792 757.5 271.392578125 838.5 c 128
 281.725911458 919.5 289.559244792 1000.66666667 294.892578125 1082 c 0
 299.559244792 1159.33333333 301.892578125 1235.33333333 301.892578125 1310 c 1
 281.892578125 1309.33333333 262.559244792 1307.33333333 243.892578125 1304 c 0
 232.559244792 1302 221.225911458 1299.83333333 209.892578125 1297.5 c 128
 198.559244792 1295.16666667 187.225911458 1292.66666667 175.892578125 1290 c 0
 153.225911458 1284.66666667 130.892578125 1280 108.892578125 1276 c 0
 86.2259114583 1271.33333333 63.2259114583 1269 39.892578125 1269 c 0
 26.5592447917 1269 14.2259114583 1271 2.892578125 1275 c 128
 -8.44075520833 1279 -18.4407552083 1285 -27.107421875 1293 c 128
 -35.7740885417 1301 -42.2740885417 1310.33333333 -46.607421875 1321 c 128
 -50.9407552083 1331.66666667 -53.107421875 1343.66666667 -53.107421875 1357 c 0
 -53.107421875 1385.66666667 -39.4407552083 1409.33333333 -12.107421875 1428 c 0
 13.2259114583 1445.33333333 45.5592447917 1459.33333333 84.892578125 1470 c 128
 124.225911458 1480.66666667 167.225911458 1488.66666667 213.892578125 1494 c 0
 261.892578125 1499.33333333 308.559244792 1503 353.892578125 1505 c 0
 398.559244792 1507 439.225911458 1508 475.892578125 1508 c 2
 556.892578125 1508 l 2
 688.225911458 1508 796.892578125 1499.66666667 882.892578125 1483 c 0
 893.559244792 1481 903.892578125 1479 913.892578125 1477 c 0
 919.225911458 1475.66666667 924.225911458 1474.33333333 928.892578125 1473 c 128
 933.559244792 1471.66666667 938.559244792 1470.33333333 943.892578125 1469 c 0
 947.225911458 1468.33333333 950.392578125 1467.66666667 953.392578125 1467 c 128
 956.392578125 1466.33333333 959.392578125 1465.5 962.392578125 1464.5 c 128
 966.892578125 1463 966.892578125 1463 971.392578125 1461.5 c 128
 974.392578125 1460.5 977.392578125 1459.66666667 980.392578125 1459 c 128
 983.392578125 1458.33333333 986.225911458 1457.5 988.892578125 1456.5 c 128
 991.559244792 1455.5 994.225911458 1454.33333333 996.892578125 1453 c 0
 1004.89257812 1450.33333333 1012.89257812 1447.33333333 1020.89257812 1444 c 0
 1024.89257812 1442.66666667 1028.89257812 1441.16666667 1032.89257812 1439.5 c 128
 1036.89257812 1437.83333333 1040.55924479 1436.33333333 1043.89257812 1435 c 0
 1051.22591145 1431.66666667 1058.22591145 1428.16666667 1064.89257812 1424.5 c 128
 1071.55924479 1420.83333333 1077.89257812 1417.33333333 1083.89257812 1414 c 0
 1096.55924479 1406.66666667 1108.05924479 1398.83333333 1118.39257812 1390.5 c 128
 1128.72591145 1382.16666667 1138.39257812 1373.5 1147.39257812 1364.5 c 128
 1156.39257812 1355.5 1164.22591145 1346.16666667 1170.89257812 1336.5 c 128
 1177.55924479 1326.83333333 1183.55924479 1316.66666667 1188.89257812 1306 c 0
 1198.89257812 1285.33333333 1206.22591145 1264 1210.89257812 1242 c 128
 1215.55924479 1220 1217.89257812 1196.66666667 1217.89257812 1172 c 0
 1217.89257812 1151.33333333 1215.22591145 1132.33333333 1209.89257812 1115 c 128
 1204.55924479 1097.66666667 1196.55924479 1082 1185.89257812 1068 c 128
 1175.22591145 1054 1163.22591145 1041.33333333 1149.89257812 1030 c 128
 1136.55924479 1018.66666667 1121.55924479 1008.33333333 1104.89257812 999 c 0
 1072.89257812 980.333333333 1036.55924479 964.666666667 995.892578125 952 c 0
 955.225911458 940 914.559244792 929 873.892578125 919 c 0
 860.559244792 915.666666667 847.392578125 912.333333333 834.392578125 909 c 128
 821.392578125 905.666666667 808.559244792 902.333333333 795.892578125 899 c 128
 783.225911458 895.666666667 770.892578125 892.333333333 758.892578125 889 c 0
 732.892578125 881.666666667 709.892578125 873 689.892578125 863 c 1
 721.892578125 851.666666667 754.892578125 839 788.892578125 825 c 0
 830.892578125 808.333333333 872.059244792 790 912.392578125 770 c 128
 952.725911458 750 990.892578123 727.666666667 1026.89257812 703 c 0
 1044.89257812 690.333333333 1061.89257812 677 1077.89257812 663 c 128
 1093.89257812 649 1108.89257812 634.333333333 1122.89257812 619 c 0
 1132.22591145 608.333333333 1140.89257812 597.5 1148.89257812 586.5 c 128
 1156.89257812 575.5 1164.22591145 564 1170.89257812 552 c 0
 1172.89257812 548 1175.05924479 544 1177.39257812 540 c 128
 1179.72591145 536 1181.72591145 531.833333333 1183.39257812 527.5 c 128
 1185.05924479 523.166666667 1186.89257812 519 1188.89257812 515 c 0
 1194.22591145 502.333333333 1198.89257812 489.333333333 1202.89257812 476 c 0
 1204.89257812 469.333333333 1206.55924479 462.5 1207.89257812 455.5 c 128
 1209.22591145 448.5 1210.22591145 441.333333333 1210.89257812 434 c 0
 1211.55924479 429.333333333 1212.05924479 424.5 1212.39257812 419.5 c 128
 1212.89257812 412 1212.89257812 412 1213.39257812 404.5 c 128
 1213.72591145 399.5 1213.89257812 394.666666667 1213.89257812 390 c 0
 1213.89257812 360 1210.72591145 332 1204.39257812 306 c 128
 1198.05924479 280 1188.55924479 256.333333333 1175.89257812 235 c 0
 1150.55924479 192.333333333 1117.22591145 156.666666667 1075.89257812 128 c 0
 1055.22591145 114 1033.22591145 101.166666667 1009.89257812 89.5 c 128
 986.55924479 77.8333333333 961.559244792 68 934.892578125 60 c 0
 886.892578125 44.6666666667 831.892578125 32 769.892578125 22 c 0
 713.892578125 12.6666666667 658.559244792 7 603.892578125 5 c 0
 548.559244792 3 498.892578125 2 454.892578125 2 c 0
 428.892578125 2 403.225911458 2.33333333333 377.892578125 3 c 0
 339.892578125 3 316.559244792 3.33333333333 307.892578125 4 c 0
 285.892578125 6.66666666667 260.225911458 8.66666666667 230.892578125 10 c 0
 195.559244792 12 163.225911458 15 133.892578125 19 c 0
651.392578125 744.5 m 128
 637.725911458 749.5 624.892578125 754 612.892578125 758 c 0
 608.225911458 759.333333333 603.392578125 760.666666667 598.392578125 762 c 128
 593.392578125 763.333333333 587.892578125 764.666666667 581.892578125 766 c 128
 575.892578125 767.333333333 569.559244792 769 562.892578125 771 c 0
 542.892578125 776.333333333 523.892578125 781 505.892578125 785 c 0
 503.892578125 785.666666667 501.892578125 786.166666667 499.892578125 786.5 c 128
 497.892578125 786.833333333 496.059244792 787.333333333 494.392578125 788 c 128
 492.725911458 788.666666667 491.059244792 789.166666667 489.392578125 789.5 c 128
 486.892578125 790 486.892578125 790 484.392578125 790.5 c 128
 482.725911458 790.833333333 481.225911458 791.333333333 479.892578125 792 c 0
 471.892578125 794 464.559244792 795.333333333 457.892578125 796 c 0
 453.225911458 796.666666667 449.559244792 797.333333333 446.892578125 798 c 1
 444.892578125 795 l 1
 436.892578125 747.666666667 427.892578125 698.333333333 417.892578125 647 c 0
 407.892578125 594.333333333 396.725911458 541.333333333 384.392578125 488 c 128
 372.059244792 434.666666667 358.225911458 382 342.892578125 330 c 0
 336.225911458 306.666666667 328.892578125 283.333333333 320.892578125 260 c 128
 312.892578125 236.666666667 304.892578125 215 296.892578125 195 c 1
 307.892578125 192 l 2
 311.225911458 192 317.559244792 191.666666667 326.892578125 191 c 0
 334.892578125 191 334.892578125 191 343.892578125 191 c 128
 349.892578125 191 356.225911458 190.666666667 362.892578125 190 c 0
 376.225911458 190 388.892578125 189.666666667 400.892578125 189 c 0
 409.892578125 189 409.892578125 189 416.892578125 189 c 0
 420.892578125 189 420.892578125 189 423.892578125 189 c 128
 426.892578125 189 426.892578125 189 428.892578125 189 c 0
 448.225911458 189.666666667 476.892578125 190 514.892578125 190 c 0
 533.559244792 190 553.225911458 190.5 573.892578125 191.5 c 128
 594.559244792 192.5 616.225911458 193.666666667 638.892578125 195 c 0
 683.559244792 198.333333333 729.559244792 204.333333333 776.892578125 213 c 0
 792.225911458 215.666666667 807.225911458 218.666666667 821.892578125 222 c 128
 836.559244792 225.333333333 850.892578125 229.333333333 864.892578125 234 c 0
 868.225911458 235.333333333 871.559244792 236.5 874.892578125 237.5 c 128
 879.892578125 239 879.892578125 239 884.892578125 240.5 c 128
 888.225911458 241.5 891.392578125 242.666666667 894.392578125 244 c 128
 897.392578125 245.333333333 900.559244792 246.666666667 903.892578125 248 c 0
 913.225911458 252 922.225911458 256.166666667 930.892578125 260.5 c 128
 939.559244792 264.833333333 947.559244792 269.666666667 954.892578125 275 c 0
 957.559244792 276.333333333 960.059244792 277.833333333 962.392578125 279.5 c 128
 964.725911458 281.166666667 967.059244792 283 969.392578125 285 c 128
 971.725911458 287 974.225911458 289 976.892578125 291 c 0
 980.225911458 293.666666667 983.392578125 296.333333333 986.392578125 299 c 128
 989.392578125 301.666666667 992.225911458 304.666666667 994.892578125 308 c 0
 1017.55924479 331.333333333 1028.89257812 360.333333333 1028.89257812 395 c 0
 1028.89257812 402.333333333 1028.55924479 409.833333333 1027.89257812 417.5 c 128
 1027.22591145 425.166666667 1025.89257812 432.666666667 1023.89257812 440 c 0
 1020.55924479 454.666666667 1015.55924479 468.666666667 1008.89257812 482 c 0
 995.55924479 510 977.892578125 536.333333333 955.892578125 561 c 0
 933.225911458 585.666666667 907.225911458 608 877.892578125 628 c 0
 847.892578125 648.666666667 817.225911458 667.666666667 785.892578125 685 c 0
 770.559244792 693.666666667 755.225911458 701.5 739.892578125 708.5 c 128
 724.559244792 715.5 709.392578125 722 694.392578125 728 c 128
 679.392578125 734 665.059244792 739.5 651.392578125 744.5 c 128
563.892578125 1328 m 0
 561.892578125 1328 561.892578125 1328 559.892578125 1328 c 2
 496.892578125 1328 l 1
 496.892578125 1323.33333333 496.725911458 1318.33333333 496.392578125 1313 c 128
 496.059244792 1307.66666667 495.559244792 1301.33333333 494.892578125 1294 c 0
 493.559244792 1273.33333333 492.059244792 1250.16666667 490.392578125 1224.5 c 128
 488.725911458 1198.83333333 487.059244792 1171.83333333 485.392578125 1143.5 c 128
 483.725911458 1115.16666667 482.059244792 1088.16666667 480.392578125 1062.5 c 128
 478.725911458 1036.83333333 477.559244792 1014 476.892578125 994 c 0
 476.225911458 984 475.725911458 975.5 475.392578125 968.5 c 128
 475.059244792 961.5 474.559244792 955.666666667 473.892578125 951 c 1
 475.225911458 951 476.225911458 951.166666667 476.892578125 951.5 c 128
 477.559244792 951.833333333 478.559244792 952 479.892578125 952 c 0
 481.892578125 952.666666667 484.225911458 953.166666667 486.892578125 953.5 c 128
 489.559244792 953.833333333 492.225911458 954 494.892578125 954 c 0
 496.225911458 954 497.725911458 954.333333333 499.392578125 955 c 128
 501.059244792 955.666666667 502.559244792 956 503.892578125 956 c 0
 514.559244792 958 526.392578125 960.5 539.392578125 963.5 c 128
 552.392578125 966.5 566.225911458 970 580.892578125 974 c 0
 610.225911458 981.333333333 642.725911458 990.333333333 678.392578125 1001 c 128
 714.059244792 1011.66666667 750.059244792 1023.16666667 786.392578125 1035.5 c 128
 822.725911458 1047.83333333 857.892578125 1061.33333333 891.892578125 1076 c 0
 908.559244792 1083.33333333 924.392578125 1090.5 939.392578125 1097.5 c 128
 954.392578125 1104.5 968.225911458 1111.66666667 980.892578125 1119 c 0
 992.892578125 1126.33333333 1003.89257812 1133.66666667 1013.89257812 1141 c 128
 1023.89257812 1148.33333333 1032.89257812 1155.66666667 1040.89257812 1163 c 0
 1048.22591145 1170.33333333 1053.72591145 1177.5 1057.39257812 1184.5 c 128
 1061.05924479 1191.5 1062.89257812 1198.33333333 1062.89257812 1205 c 0
 1062.89257812 1216.33333333 1061.39257812 1226.5 1058.39257812 1235.5 c 128
 1055.39257812 1244.5 1051.22591145 1252.66666667 1045.89257812 1260 c 0
 1033.22591145 1276 1016.22591146 1289.33333333 994.892578125 1300 c 0
 984.892578125 1305.33333333 973.725911458 1310 961.392578125 1314 c 128
 949.059244792 1318 935.559244792 1321.33333333 920.892578125 1324 c 0
 890.892578125 1329.33333333 860.559244792 1333.33333333 829.892578125 1336 c 0
 821.892578125 1336.66666667 813.725911458 1337.16666667 805.392578125 1337.5 c 128
 797.059244792 1337.83333333 788.892578125 1338.16666667 780.892578125 1338.5 c 128
 772.892578125 1338.83333333 765.225911458 1339 757.892578125 1339 c 2
 736.892578125 1339 l 2
 732.892578125 1339 732.892578125 1339 728.392578125 1339 c 128
 723.892578125 1339 723.892578125 1339 718.892578125 1339 c 0
 712.892578125 1339 707.059244792 1338.83333333 701.392578125 1338.5 c 128
 695.725911458 1338.16666667 690.225911458 1337.83333333 684.892578125 1337.5 c 128
 679.559244792 1337.16666667 674.225911458 1336.66666667 668.892578125 1336 c 0
 666.892578125 1336 666.892578125 1336 664.892578125 1336 c 128
 662.892578125 1336 662.892578125 1336 660.892578125 1336 c 128
 658.892578125 1336 658.892578125 1336 656.892578125 1336 c 128
 654.892578125 1336 654.892578125 1336 652.892578125 1336 c 0
 640.225911458 1335.33333333 628.725911458 1334.5 618.392578125 1333.5 c 128
 608.059244792 1332.5 598.892578125 1331.66666667 590.892578125 1331 c 0
 586.892578125 1330.33333333 583.225911458 1329.83333333 579.892578125 1329.5 c 128
 576.559244792 1329.16666667 573.559244792 1328.83333333 570.892578125 1328.5 c 128
 568.225911458 1328.16666667 565.892578125 1328 563.892578125 1328 c 0
EndSplineSet
Validated: 1025
EndChar

StartChar: C
Encoding: 67 67 38
Width: 1484
GlyphClass: 2
Flags: HW
LayerCount: 2
Fore
SplineSet
1400 288 m 2
 1401 278 l 1
 1401 274 l 2
 1401 188.666666667 1305 115.333333333 1113 54 c 0
 1008.33333333 20.6666666667 927 0.666666666667 869 -6 c 0
 783.666666667 -16.6666666667 726.666666667 -22 698 -22 c 0
 470 -22 299.333333333 74 186 266 c 0
 110 395.333333333 72 557.333333333 72 752 c 0
 72 979.333333333 131 1160.66666667 249 1296 c 0
 303.666666667 1360.66666667 378.666666667 1413 474 1453 c 0
 563.333333333 1490.33333333 667.666666667 1509 787 1509 c 0
 795 1509 795 1509 803 1509 c 2
 823 1508 l 2
 827 1508 835.666666667 1507.5 849 1506.5 c 128
 862.333333333 1505.5 883.5 1504 912.5 1502 c 128
 941.5 1500 973 1497 1007 1493 c 0
 1041 1489.66666667 1075 1484.66666667 1109 1478 c 0
 1215 1458 1285 1434 1319 1406 c 0
 1322.33333333 1403.33333333 1326 1400.33333333 1330 1397 c 0
 1358 1377 1372 1352 1372 1322 c 0
 1372 1281.33333333 1352.66666667 1254 1314 1240 c 0
 1303.33333333 1236 1291.66666667 1234 1279 1234 c 2
 1251 1234 l 1
 1250 1235 l 1
 1089.33333333 1292.33333333 935 1321 787 1321 c 0
 697 1321 627 1311 577 1291 c 0
 428.333333333 1230.33333333 333 1130.66666667 291 992 c 0
 270.313131313 923.474747475 259.96969697 864.666054484 259.96969697 815.573921028 c 0
 259.96969697 814.039791858 259.97979798 812.515151515 260 811 c 0
 260 808 260 808 260 806 c 0
 260 670.666666667 269.666666667 571 289 507 c 128
 308.333333333 443 324.666666667 399.666666667 338 377 c 128
 351.333333333 354.333333333 360 340.166666667 364 334.5 c 128
 368 328.833333333 372.166666667 323 376.5 317 c 128
 380.833333333 311 385.333333333 305.333333333 390 300 c 128
 397 292 397 292 404 284 c 0
 478.666666667 204.666666667 580.666666667 165 710 165 c 0
 718.666666667 165 727.333333333 165.166666667 736 165.5 c 128
 749 166 749 166 762 166.5 c 128
 770.666666667 166.833333333 779.333333333 167.5 788 168.5 c 128
 801 170 801 170 814 171.5 c 128
 822.666666667 172.5 831.333333333 173.666666667 840 175 c 128
 848.666666667 176.333333333 856.166666667 177.5 862.5 178.5 c 128
 868.833333333 179.5 874.166666667 180.5 878.5 181.5 c 128
 882.833333333 182.5 888.333333333 183.666666667 895 185 c 0
 984.333333333 203 1073 236.333333333 1161 285 c 0
 1169.66666667 290.333333333 1179.66666667 297.333333333 1191 306 c 0
 1227.66666667 333.333333333 1253.33333333 350.333333333 1268 357 c 128
 1282.66666667 363.666666667 1296.66666667 367 1310 367 c 0
 1358.66666667 367 1388.66666667 342 1400 292 c 0
 1400 290 1400 290 1400 288 c 2
EndSplineSet
Validated: 1
EndChar

StartChar: D
Encoding: 68 68 39
Width: 1452
GlyphClass: 2
Flags: HW
LayerCount: 2
Fore
SplineSet
128 112 m 1
 129 113 l 1
 129 114 l 1
 175.666666667 204.666666667 214 300 244 400 c 0
 274.666666667 500.666666667 299.5 603.166666667 318.5 707.5 c 128
 337.5 811.833333333 350.666666667 917 358 1023 c 0
 365.333333333 1125 369 1225 369 1323 c 1
 367 1323 365.166666667 1322.83333333 363.5 1322.5 c 128
 361.833333333 1322.16666667 360 1322 358 1322 c 128
 355 1322 355 1322 353 1322 c 0
 345.666666667 1321.33333333 338.5 1320.5 331.5 1319.5 c 128
 324.5 1318.5 317.666666667 1317 311 1315 c 0
 303.666666667 1313 296.333333333 1311.16666667 289 1309.5 c 128
 281.666666667 1307.83333333 274.333333333 1306 267 1304 c 128
 259.666666667 1302 252.333333333 1299.66666667 245 1297 c 0
 223 1290.33333333 200.666666667 1284.33333333 178 1279 c 128
 155.333333333 1273.66666667 132.333333333 1271 109 1271 c 0
 95 1271 82.6666666667 1272.66666667 72 1276 c 0
 60.6666666667 1280 51 1285.66666667 43 1293 c 0
 27 1307.66666667 19 1329.66666667 19 1359 c 128
 19 1388.33333333 28.6666666667 1413 48 1433 c 0
 57.3333333333 1442.33333333 68.3333333333 1450.66666667 81 1458 c 0
 87 1462 93.3333333333 1465.5 100 1468.5 c 128
 106.666666667 1471.5 113.666666667 1474.33333333 121 1477 c 0
 135.666666667 1482.33333333 151 1487 167 1491 c 128
 183 1495 200 1498 218 1500 c 0
 223.333333333 1500.66666667 228.5 1501.33333333 233.5 1502 c 128
 241 1503 241 1503 248.5 1504 c 128
 256 1505 256 1505 263.5 1506 c 128
 268.5 1506.66666667 273.5 1507.16666667 278.5 1507.5 c 128
 283.5 1507.83333333 288.666666667 1508 294 1508 c 0
 296.666666667 1508 299.333333333 1508.16666667 302 1508.5 c 128
 304.666666667 1508.83333333 307.333333333 1509 310 1509 c 2
 325 1510 l 2
 331.666666667 1510 338.5 1510.16666667 345.5 1510.5 c 128
 352.5 1510.83333333 359.333333333 1511 366 1511 c 0
 379.333333333 1511.66666667 392.333333333 1512 405 1512 c 2
 423 1512 l 2
 439 1512 439 1512 453 1512 c 128
 462.333333333 1512 470.833333333 1511.83333333 478.5 1511.5 c 128
 486.166666667 1511.16666667 493 1511 499 1511 c 0
 571.666666667 1511 645.333333333 1503 720 1487 c 0
 756.666666667 1479 792.833333333 1469.16666667 828.5 1457.5 c 128
 864.166666667 1445.83333333 899.166666667 1432.16666667 933.5 1416.5 c 128
 967.833333333 1400.83333333 1001 1383.5 1033 1364.5 c 128
 1065 1345.5 1096 1325 1126 1303 c 0
 1133.33333333 1297.66666667 1140.66666667 1292 1148 1286 c 128
 1159 1277 1159 1277 1170 1268 c 0
 1184 1256 1197.33333333 1243.66666667 1210 1231 c 128
 1222.66666667 1218.33333333 1234.66666667 1205.33333333 1246 1192 c 0
 1252 1185 1252 1185 1258 1178 c 128
 1262 1173.33333333 1265.83333333 1168.66666667 1269.5 1164 c 128
 1273.16666667 1159.33333333 1276.66666667 1154.66666667 1280 1150 c 0
 1302 1121.33333333 1321.66666667 1091.16666667 1339 1059.5 c 128
 1356.33333333 1027.83333333 1371.16666667 994.833333333 1383.5 960.5 c 128
 1395.83333333 926.166666667 1405.16666667 890.5 1411.5 853.5 c 128
 1417.83333333 816.5 1421 778.333333333 1421 739 c 0
 1421 707.666666667 1419.33333333 677.5 1416 648.5 c 128
 1412.66666667 619.5 1407.5 591.5 1400.5 564.5 c 128
 1393.5 537.5 1385 511.666666667 1375 487 c 0
 1344.33333333 413 1302 348.666666667 1248 294 c 0
 1221.33333333 266 1191.66666667 240.333333333 1159 217 c 0
 1127 193.666666667 1092.33333333 172.666666667 1055 154 c 0
 981 116 901 85.3333333333 815 62 c 0
 728.333333333 38.6666666667 638.333333333 22.3333333333 545 13 c 0
 468.333333333 5 391.333333333 1 314 1 c 0
 306 1 306 1 297.5 1 c 128
 289 1 289 1 281 1 c 0
 279 1 276.5 1.16666666667 273.5 1.5 c 128
 270.5 1.83333333333 268.333333333 2 267 2 c 0
 261.666666667 0 257 -1.33333333333 253 -2 c 128
 249 -2.66666666667 245.333333333 -3 242 -3 c 0
 240.666666667 -3 239 -3.16666666667 237 -3.5 c 128
 235 -3.83333333333 233 -4 231 -4 c 128
 228 -4 228 -4 225 -4 c 128
 222 -4 222 -4 219 -4 c 0
 212.333333333 -4 205.833333333 -3.5 199.5 -2.5 c 128
 193.166666667 -1.5 187.333333333 0 182 2 c 0
 170.666666667 6 161 12.3333333333 153 21 c 0
 150.333333333 23.6666666667 147.833333333 26.5 145.5 29.5 c 128
 143.166666667 32.5 141 35.6666666667 139 39 c 128
 137 42.3333333333 135.333333333 46 134 50 c 0
 130 60.6666666667 128 72.6666666667 128 86 c 2
 128 109 l 1
 128 110 l 1
 128 112 l 1
569 1323 m 1
 569 1144.33333333 547.333333333 919.666666667 504 649 c 1
 476 499 434.333333333 349.333333333 379 200 c 1
 383 200 l 1
 409 198.666666667 439.833333333 198 475.5 198 c 128
 511.166666667 198 546.333333333 199.833333333 581 203.5 c 128
 615.666666667 207.166666667 644.666666667 210.666666667 668 214 c 0
 784 232.666666667 877.333333333 262.166666667 948 302.5 c 128
 1018.66666667 342.833333333 1073.33333333 384 1112 426 c 0
 1193.33333333 513.333333333 1234 618.666666667 1234 742 c 0
 1234 856 1194 960.666666667 1114 1056 c 0
 1107.33333333 1064 1100.5 1072.16666667 1093.5 1080.5 c 128
 1086.5 1088.83333333 1079.33333333 1096.66666667 1072 1104 c 0
 1002.66666667 1173.33333333 929 1225.33333333 851 1260 c 0
 845 1262.66666667 838.666666667 1265.33333333 832 1268 c 0
 745.333333333 1304.66666667 663 1323 585 1323 c 2
 569 1323 l 1
EndSplineSet
Validated: 1
EndChar

StartChar: E
Encoding: 69 69 40
Width: 1231
GlyphClass: 2
Flags: HW
LayerCount: 2
Fore
SplineSet
300 187 m 1
 320 182.333333333 361.333333333 180 424 180 c 0
 486 180 539.333333333 181.333333333 584 184 c 0
 664.666666667 188.666666667 708.666666667 191.333333333 716 192 c 0
 855.333333333 202 942.333333333 207 977 207 c 0
 985 207 990.333333333 206.666666667 993 206 c 0
 1021.66666667 200.666666667 1040.66666667 192.333333333 1050 181 c 0
 1066.66666667 160.333333333 1075 137.333333333 1075 112 c 0
 1075 88 1067.66666667 67.6666666667 1053 51 c 0
 1039 35 1019 26 993 24 c 2
 699 3 l 1
 690 2 l 1
 193 2 l 2
 139 2 101.666666667 21.6666666667 81 61 c 0
 74.3333333333 73.6666666667 71 88.3333333333 71 105 c 2
 71 130 l 1
 125.666666667 232.666666667 168.666666667 384.333333333 200 585 c 0
 213.333333333 669 220.333333333 713.333333333 221 718 c 0
 227.666666667 754.666666667 232 781.333333333 234 798 c 0
 266.666666667 1062.66666667 283 1273.66666667 283 1431 c 2
 283 1432 l 1
 296.333333333 1478.66666667 330.666666667 1502 386 1502 c 1
 707 1496 l 1
 1065 1506 l 1
 1117 1506 1147.33333333 1486.33333333 1156 1447 c 0
 1157.33333333 1441 1158 1435 1158 1429 c 0
 1158 1398.33333333 1150.66666667 1376.66666667 1136 1364 c 0
 1111.33333333 1342.66666667 1089.33333333 1329 1070 1323 c 0
 1047.33333333 1315.66666667 1032.33333333 1311.66666667 1025 1311 c 0
 982.333333333 1305 945.666666667 1302 915 1302 c 2
 900 1302 l 1
 893 1302 l 2
 874.333333333 1302 861.333333333 1302.33333333 854 1303 c 2
 695 1310 l 1
 468 1316 l 1
 435 863 l 1
 435 857 l 1
 478.333333333 857 522.666666667 859.666666667 568 865 c 0
 604.666666667 869 640.666666667 872.333333333 676 875 c 0
 726 878.333333333 753 880 757 880 c 0
 773 880 784 879.666666667 790 879 c 0
 856.666666667 871.666666667 890 841.666666667 890 789 c 0
 890 747 868.666666667 719.333333333 826 706 c 0
 813.333333333 702 801 699.666666667 789 699 c 2
 420 671 l 1
 404 668 l 1
 396.666666667 629.333333333 390 589.666666667 384 549 c 0
 372 463.666666667 357.333333333 386 340 316 c 0
 327.333333333 264.666666667 314 221.666666667 300 187 c 1
EndSplineSet
Validated: 1
EndChar

StartChar: F
Encoding: 70 70 41
Width: 1231
GlyphClass: 2
Flags: HW
LayerCount: 2
Fore
SplineSet
775 1300 m 1
 667 1305 l 1
 652.333333333 1305 590 1306.66666667 480 1310 c 1
 438 1311 l 1
 419 1311 l 1
 386 858 l 1
 434 858 434 858 482 858 c 1
 494 859 l 1
 507 859 507 859 520 859 c 2
 696 869 l 1
 714 869 l 2
 778.666666667 869 811 839 811 779 c 0
 811 735.666666667 785 706.333333333 733 691 c 0
 713 685 689.333333333 681.333333333 662 680 c 0
 636 679.333333333 620.333333333 678.833333333 615 678.5 c 128
 609.666666667 678.166666667 604.666666667 678 600 678 c 2
 560 677 l 1
 537 677 l 1
 428 674 l 1
 381 673 l 2
 373 673 366.333333333 672.666666667 361 672 c 1
 359.666666667 664 356.166666667 648.666666667 350.5 626 c 128
 344.833333333 603.333333333 338.666666667 578.166666667 332 550.5 c 128
 325.333333333 522.833333333 320.5 503.833333333 317.5 493.5 c 128
 314.5 483.166666667 312.166666667 474.333333333 310.5 467 c 128
 308.833333333 459.666666667 307.5 454.166666667 306.5 450.5 c 128
 305.5 446.833333333 304.833333333 443.833333333 304.5 441.5 c 128
 304.166666667 439.166666667 303 435 301 429 c 0
 299.666666667 423 298 416.333333333 296 409 c 0
 293.333333333 395.666666667 291 386 289 380 c 0
 285 368 280.666666667 334 276 278 c 0
 271.333333333 221.333333333 267 185 263 169 c 2
 256 137 l 2
 237.333333333 47 200 2 144 2 c 0
 118.666666667 2 97.8333333333 9.66666666667 81.5 25 c 128
 65.1666666667 40.3333333333 57 62 57 90 c 2
 57 114 l 1
 58 115 l 1
 58 116 l 1
 105.333333333 206.666666667 138 350.666666667 156 548 c 0
 160.666666667 600 166.666666667 651.333333333 174 702 c 0
 182.666666667 762 188 798 190 810 c 0
 220 1034.66666667 235 1240.66666667 235 1428 c 2
 235 1430 l 1
 249 1476 283.333333333 1499 338 1499 c 1
 692 1493 l 1
 707 1493 l 1
 740 1494 l 2
 757.333333333 1494.66666667 780.333333333 1495.5 809 1496.5 c 128
 837.666666667 1497.5 871.833333333 1499.16666667 911.5 1501.5 c 128
 951.166666667 1503.83333333 985.166666667 1505.5 1013.5 1506.5 c 128
 1041.83333333 1507.5 1064.5 1508.33333333 1081.5 1509 c 128
 1098.5 1509.66666667 1111.66666667 1510 1121 1510 c 0
 1149 1510 1173 1502.66666667 1193 1488 c 128
 1213 1473.33333333 1223 1452.33333333 1223 1425 c 0
 1223 1339 1120.66666667 1296 916 1296 c 2
 890 1296 l 1
 775 1300 l 1
EndSplineSet
Validated: 1
EndChar

StartChar: G
Encoding: 71 71 42
Width: 1369
GlyphClass: 2
Flags: HW
LayerCount: 2
Fore
SplineSet
1125 111 m 1
 976.333333333 19.6666666667 796.333333333 -26 585 -26 c 128
 373.666666667 -26 227 58.6666666667 145 228 c 0
 79.6666666667 363.333333333 47 560.333333333 47 819 c 0
 47 1193.66666667 239.666666667 1419.66666667 625 1497 c 0
 681.666666667 1508.33333333 724 1514 752 1514 c 128
 780 1514 803.666666667 1513.33333333 823 1512 c 0
 1033.66666667 1497.33333333 1174.33333333 1451.33333333 1245 1374 c 0
 1267 1350 1278 1323.16666667 1278 1293.5 c 128
 1278 1263.83333333 1269.66666667 1241 1253 1225 c 128
 1236.33333333 1209 1215.66666667 1201 1191 1201 c 2
 1164 1201 l 1
 1119.33333333 1218.33333333 1084.66666667 1233 1060 1245 c 0
 954.666666667 1296.33333333 869.333333333 1322 804 1322 c 2
 791 1322 l 2
 707.666666667 1322 629.333333333 1309.33333333 556 1284 c 0
 332.666666667 1206.66666667 221 1051.66666667 221 819 c 0
 221 676.333333333 226.333333333 573.333333333 237 510 c 0
 261.666666667 362.666666667 311.666666667 265 387 217 c 0
 440.333333333 183 501 166 569 166 c 128
 637 166 745.833333333 187.666666667 895.5 231 c 128
 1045.16666667 274.333333333 1120 316.666666667 1120 358 c 2
 1120 646 l 1
 975.333333333 660.666666667 887.833333333 671 857.5 677 c 128
 827.166666667 683 802.666666667 691.666666667 784 703 c 0
 753.333333333 721 736 747.666666667 732 783 c 0
 731.333333333 790.333333333 731.333333333 796.333333333 732 801 c 0
 740 842.333333333 760.666666667 869 794 881 c 0
 801.333333333 883.666666667 809.333333333 885 818 885 c 2
 825 885 l 1
 941 861 l 1
 1082 849 l 2
 1181.33333333 840.333333333 1234.66666667 834 1242 830 c 0
 1252 825.333333333 1257.66666667 822.333333333 1259 821 c 0
 1282.33333333 797.666666667 1294 780 1294 768 c 2
 1294 108 l 2
 1294 74.6666666667 1272 52.3333333333 1228 41 c 0
 1222 39.6666666667 1216.66666667 39 1212 39 c 0
 1174.66666667 39 1145.66666667 63 1125 111 c 1
EndSplineSet
Validated: 1
EndChar

StartChar: H
Encoding: 72 72 43
Width: 1405
GlyphClass: 2
Flags: HW
LayerCount: 2
Fore
SplineSet
405 666 m 1
 404 654 l 1
 403 644 l 2
 403 638.666666667 402.5 627.666666667 401.5 611 c 128
 400.5 594.333333333 399.333333333 568.666666667 398 534 c 0
 389.333333333 306 364.666666667 161.666666667 324 101 c 0
 322.666666667 99 321.333333333 96.6666666667 320 94 c 0
 319.333333333 91.3333333333 318.333333333 89 317 87 c 2
 302 65 l 2
 300.666666667 63.6666666667 300 62.6666666667 300 62 c 0
 269.333333333 22.6666666667 232 3 188 3 c 0
 164.666666667 3 150 5.66666666667 144 11 c 0
 122.666666667 29.6666666667 112 57.6666666667 112 95 c 2
 112 102 l 1
 113 117 l 1
 113 137 120.666666667 166 136 204 c 0
 150.666666667 241.333333333 158.833333333 263.166666667 160.5 269.5 c 128
 162.166666667 275.833333333 163.5 280.166666667 164.5 282.5 c 128
 165.5 284.833333333 166.333333333 287.166666667 167 289.5 c 128
 167.666666667 291.833333333 168.166666667 294 168.5 296 c 128
 168.833333333 298 169.333333333 300.166666667 170 302.5 c 128
 170.666666667 304.833333333 171 307 171 309 c 0
 199 444.333333333 215.666666667 605.333333333 221 792 c 1
 223 856 l 1
 225 895 l 2
 225.666666667 913 226.666666667 931 228 949 c 2
 256 1433 l 1
 256 1454.33333333 266 1471.66666667 286 1485 c 0
 287.333333333 1485.66666667 288.333333333 1486.33333333 289 1487 c 128
 289.666666667 1487.66666667 290.666666667 1488 292 1488 c 0
 292 1488.66666667 294 1490 298 1492 c 0
 318 1502 337.666666667 1507 357 1507 c 0
 378.333333333 1507 393.5 1504.33333333 402.5 1499 c 128
 411.5 1493.66666667 417 1490.5 419 1489.5 c 128
 421 1488.5 422.833333333 1487.33333333 424.5 1486 c 128
 426.166666667 1484.66666667 427.5 1483.5 428.5 1482.5 c 128
 429.5 1481.5 430.666666667 1480.66666667 432 1480 c 0
 440 1472 449.333333333 1457.33333333 460 1436 c 1
 460 1330 l 2
 460 1194.66666667 456.166666667 1095 448.5 1031 c 128
 440.833333333 967 436.833333333 933.333333333 436.5 930 c 128
 436 925 436 925 435.5 920 c 128
 435 915 435 915 434.5 910 c 128
 434.166666667 906.666666667 433.833333333 903.166666667 433.5 899.5 c 128
 433.166666667 895.833333333 432.666666667 892.333333333 432 889 c 128
 431.333333333 885.666666667 430.833333333 882.166666667 430.5 878.5 c 128
 430.166666667 874.833333333 429.666666667 871.333333333 429 868 c 1
 429 861 l 1
 449 861 449 861 469 861 c 2
 880 871 l 1
 908 872 l 1
 1054 872 l 1
 1058 900 l 1
 1058 902 l 1
 1059 908 l 1
 1059 912 l 1
 1079 1152 l 1
 1081 1172 l 1
 1081 1185 l 1
 1082 1187 l 1
 1082 1197 l 1
 1083 1213 l 1
 1084 1237 l 1
 1086 1300 l 2
 1087.33333333 1344 1088 1371.33333333 1088 1382 c 2
 1088 1403 l 1
 1089 1414 l 2
 1089 1416.66666667 1089.5 1419.83333333 1090.5 1423.5 c 128
 1091.5 1427.16666667 1092.33333333 1430.66666667 1093 1434 c 0
 1093.66666667 1438 1094.66666667 1441.33333333 1096 1444 c 0
 1117.33333333 1486 1150.66666667 1507 1196 1507 c 0
 1246 1507 1277.66666667 1479.33333333 1291 1424 c 1
 1292 1424 l 1
 1292 1325 l 1
 1291 1313 l 2
 1291 1310 1291 1310 1291 1307 c 2
 1290 1277 l 1
 1286 1187 1280.83333333 1103.66666667 1274.5 1027 c 128
 1268.16666667 950.333333333 1264.5 905.5 1263.5 892.5 c 128
 1262.5 879.5 1261.83333333 870.5 1261.5 865.5 c 128
 1261.16666667 860.5 1260.66666667 855.333333333 1260 850 c 0
 1258.66666667 840.666666667 1258 835.666666667 1258 835 c 0
 1258 818.333333333 1250.66666667 750.333333333 1236 631 c 0
 1184.66666667 212.333333333 1115.33333333 3 1028 3 c 0
 998 3 972 11.3333333333 950 28 c 128
 928 44.6666666667 917 64.8333333333 917 88.5 c 128
 917 112.166666667 919.166666667 139.833333333 923.5 171.5 c 128
 927.833333333 203.166666667 933.5 238.333333333 940.5 277 c 128
 947.5 315.666666667 955 356.666666667 963 400 c 128
 971 443.333333333 979.166666667 484.833333333 987.5 524.5 c 128
 995.833333333 564.166666667 1001.83333333 592.5 1005.5 609.5 c 128
 1009.16666667 626.5 1011 637 1011 641 c 128
 1011 645 1014.33333333 660.333333333 1021 687 c 1
 1010 687 1010 687 1000 687 c 2
 966 686 l 2
 932 685.333333333 893.333333333 684.333333333 850 683 c 128
 806.666666667 681.666666667 761.333333333 680.5 714 679.5 c 128
 666.666666667 678.5 621.333333333 677.333333333 578 676 c 128
 534.666666667 674.666666667 501.333333333 673.833333333 478 673.5 c 128
 454.666666667 673.166666667 438.666666667 672.666666667 430 672 c 0
 416 672 416 672 405 672 c 1
 405 666 l 1
EndSplineSet
Validated: 1
EndChar

StartChar: I
Encoding: 73 73 44
Width: 897
GlyphClass: 2
Flags: W
HStem: 5 177<484 484.938 485.284 716.082> 10 191<74.4734 284> 1321 185<255 402 603 772.472> 1325 165<603 796>
LayerCount: 2
Fore
SplineSet
187 1432 m 0x60
 188.333333333 1438 189.333333333 1443.16666667 190 1447.5 c 0
 190.666666667 1451.83333333 193.333333333 1459 198 1469 c 0
 203.333333333 1478.33333333 208.333333333 1484.83333333 213 1488.5 c 0
 217.666666667 1492.16666667 222.5 1496 227.5 1500 c 0
 232.5 1504 240.333333333 1506 251 1506 c 2
 301 1506 l 2x60
 384.333333333 1506 479.666666667 1503.66666667 587 1499 c 2
 794 1490 l 1
 796 1490 l 1
 797 1489 l 1
 834.333333333 1477 853 1452.66666667 853 1416 c 1
 854 1405 l 1
 854 1400 l 1
 853 1392 l 2
 853 1390 852.833333333 1388.33333333 852.5 1387 c 0
 852.166666667 1385.66666667 851.833333333 1384.16666667 851.5 1382.5 c 0
 851.166666667 1380.83333333 849.666666667 1375.66666667 847 1367 c 0
 843.666666667 1357.66666667 838.833333333 1350.5 832.5 1345.5 c 0
 826.166666667 1340.5 820.666666667 1336 816 1332 c 0
 812 1327.33333333 802 1325 786 1325 c 2
 603 1325 l 1
 555 634 l 1
 484 190 l 1
 484 188 l 1
 483.333333333 188 483.666666667 187.333333333 485 186 c 1
 485 185 l 1
 491 183 500.666666667 182 514 182 c 2
 542 182 l 1
 616 184 l 2
 633.333333333 184.666666667 645.833333333 185.333333333 653.5 186 c 0
 661.166666667 186.666666667 665.333333333 187 666 187 c 0
 686 185 699.833333333 176.333333333 707.5 161 c 0
 715.166666667 145.666666667 719.166666667 137 719.5 135 c 0
 719.833333333 133 721 129.5 723 124.5 c 0
 725 119.5 726 111 726 99 c 0
 726 49 704.333333333 17.6666666667 661 5 c 1
 658 5 l 1x90
 534 -5 l 1
 493.333333333 -5.66666666667 458 -6 428 -6 c 2
 398 -6 l 2
 320.666666667 -6 255.666666667 -4 203 0 c 0
 150.333333333 4 121.333333333 7.33333333333 116 10 c 0
 99.3333333333 18 85.3333333333 33 74 55 c 0
 62.6666666667 77 57 94.6666666667 57 108 c 0
 57 120.666666667 58.6666666667 132 62 142 c 0
 73.3333333333 181.333333333 93.6666666667 201 123 201 c 2
 284 201 l 1
 344 520 l 1
 402 1321 l 1
 255 1331 l 1
 227 1334.33333333 206 1352 192 1384 c 0
 187.333333333 1394.66666667 185 1403.66666667 185 1411 c 0
 185 1419 185.666666667 1426 187 1432 c 0x60
EndSplineSet
Validated: 1
EndChar

StartChar: J
Encoding: 74 74 45
Width: 984
GlyphClass: 2
Flags: HW
LayerCount: 2
Fore
SplineSet
44 229 m 128
 39 239 39 239 34 249 c 0
 21.3333333333 276.333333333 15 303.666666667 15 331 c 0
 15 359 23.3333333333 380 40 394 c 0
 56 408 77.3333333333 415 104 415 c 0
 116 415 127.333333333 413.333333333 138 410 c 0
 141.333333333 408.666666667 144.833333333 407.333333333 148.5 406 c 128
 152.166666667 404.666666667 155.5 403 158.5 401 c 128
 161.5 399 164.666666667 397 168 395 c 0
 185.333333333 382.333333333 201.333333333 366.666666667 216 348 c 0
 220.666666667 342 225.5 335.833333333 230.5 329.5 c 128
 235.5 323.166666667 240.333333333 316.5 245 309.5 c 128
 249.666666667 302.5 254 295.333333333 258 288 c 0
 271.333333333 267.333333333 286 248 302 230 c 0
 304 228 304 228 306 226 c 128
 307.333333333 224.666666667 308.5 223.333333333 309.5 222 c 128
 310.5 220.666666667 311.666666667 219.333333333 313 218 c 128
 315 216 315 216 317 214 c 0
 322.333333333 208.666666667 327.833333333 203.833333333 333.5 199.5 c 128
 339.166666667 195.166666667 345 191 351 187 c 0
 368.333333333 176.333333333 388.666666667 171 412 171 c 0
 430 171 446.166666667 173.333333333 460.5 178 c 128
 474.833333333 182.666666667 487.666666667 189.666666667 499 199 c 0
 522.333333333 218.333333333 541 243.333333333 555 274 c 0
 562.333333333 289.333333333 568.666666667 305.833333333 574 323.5 c 128
 579.333333333 341.166666667 583.666666667 359.666666667 587 379 c 0
 594.333333333 417.666666667 599 456 601 494 c 0
 602 506 602 506 603 518 c 0
 603 522 603.166666667 525.833333333 603.5 529.5 c 128
 603.833333333 533.166666667 604 537 604 541 c 0
 604 552 604 552 604 563 c 0
 604 569.666666667 604.333333333 576.666666667 605 584 c 2
 604 592 l 2
 604 594 604 594 604 596 c 128
 604 598 604 598 604 600 c 2
 604 677 l 1
 604 1314 l 2
 602.666666667 1314 601.333333333 1314.16666667 600 1314.5 c 128
 598.666666667 1314.83333333 597 1315 595 1315 c 128
 592 1315 592 1315 589 1315 c 0
 585 1315 585 1315 581 1315 c 128
 577 1315 577 1315 572 1315 c 128
 567 1315 567 1315 562 1315 c 128
 558.666666667 1315 555.166666667 1314.83333333 551.5 1314.5 c 128
 547.833333333 1314.16666667 544.166666667 1314 540.5 1314 c 128
 535 1314 535 1314 528 1314 c 2
 489 1314 l 1
 447 1314 l 2
 417.666666667 1314.66666667 390.333333333 1318 365 1324 c 0
 337.666666667 1330.66666667 315.666666667 1341 299 1355 c 0
 279.666666667 1371 270 1393 270 1421 c 0
 270 1422 270 1422 270 1422 c 0
 270 1450 280 1471.66666667 300 1487 c 128
 320 1502.33333333 343.666666667 1510 371 1510 c 0
 455.666666667 1510 542 1508 630 1504 c 0
 716 1500 799.333333333 1496.33333333 880 1493 c 2
 882 1493 l 1
 905.333333333 1486.33333333 922.833333333 1475.33333333 934.5 1460 c 128
 946.166666667 1444.66666667 952 1425 952 1401 c 0
 952 1393 951 1384.33333333 949 1375 c 0
 948.333333333 1372.33333333 947.666666667 1369.83333333 947 1367.5 c 128
 946.333333333 1365.16666667 945.5 1363 944.5 1361 c 128
 943.5 1359 942.666666667 1356.83333333 942 1354.5 c 128
 941.333333333 1352.16666667 940.333333333 1350 939 1348 c 0
 934.333333333 1339.33333333 928.333333333 1331.66666667 921 1325 c 0
 913 1318.33333333 903.333333333 1314.66666667 892 1314 c 2
 799 1304 l 1
 788 502 l 2
 787.333333333 464.666666667 784.333333333 426.333333333 779 387 c 0
 777 373.666666667 775 360.666666667 773 348 c 128
 771 335.333333333 768.333333333 322.333333333 765 309 c 0
 763.666666667 302.333333333 762.166666667 296 760.5 290 c 128
 758.833333333 284 757 277.666666667 755 271 c 0
 749.666666667 251.666666667 743.333333333 233 736 215 c 128
 728.666666667 197 720.333333333 179.666666667 711 163 c 0
 701.666666667 145.666666667 691 129.333333333 679 114 c 128
 667 98.6666666667 654.333333333 84.6666666667 641 72 c 0
 613 46 580.333333333 25.3333333333 543 10 c 0
 524.333333333 2.66666666667 504.333333333 -3 483 -7 c 128
 461.666666667 -11 439 -13 415 -13 c 0
 388.333333333 -13 359.333333333 -8.33333333333 328 1 c 0
 312.666666667 5.66666666667 297.333333333 11.3333333333 282 18 c 128
 266.666666667 24.6666666667 252 32.3333333333 238 41 c 0
 209.333333333 57.6666666667 181.666666667 77 155 99 c 128
 128.333333333 121 104.666666667 144.666666667 84 170 c 0
 73.3333333333 182.666666667 64 195.666666667 56 209 c 0
 51.3333333333 215.666666667 47.3333333333 222.333333333 44 229 c 128
EndSplineSet
Validated: 1
EndChar

StartChar: K
Encoding: 75 75 46
Width: 1331
GlyphClass: 2
Flags: HW
LayerCount: 2
Fore
SplineSet
80 122 m 1
 131 287 l 1
 200 623 l 2
 200 624.333333333 200.166666667 626 200.5 628 c 128
 200.833333333 630 201.166666667 632.5 201.5 635.5 c 128
 201.833333333 638.5 202.333333333 642 203 646 c 128
 203.666666667 650 204.333333333 654.333333333 205 659 c 0
 207 678.333333333 209.333333333 701.833333333 212 729.5 c 128
 214.666666667 757.166666667 217.666666667 787.166666667 221 819.5 c 128
 224.333333333 851.833333333 227.5 883.833333333 230.5 915.5 c 128
 233.5 947.166666667 236.333333333 976.5 239 1003.5 c 128
 241.666666667 1030.5 243.666666667 1052.66666667 245 1070 c 0
 245 1072 245.166666667 1074.5 245.5 1077.5 c 128
 245.833333333 1080.5 246 1083.66666667 246 1087 c 0
 246 1089 246.166666667 1091.33333333 246.5 1094 c 128
 246.833333333 1096.66666667 247 1099.5 247 1102.5 c 128
 247 1107 247 1107 247 1111 c 0
 247 1120.33333333 247.333333333 1130.33333333 248 1141 c 128
 248.666666667 1151.66666667 249 1162.66666667 249 1174 c 0
 249.666666667 1197.33333333 250.5 1222.16666667 251.5 1248.5 c 128
 252.5 1274.83333333 253.333333333 1299.66666667 254 1323 c 128
 254.666666667 1346.33333333 255.333333333 1367.33333333 256 1386 c 0
 256 1400 256 1400 256 1410.5 c 128
 256 1421 256 1421 256 1428 c 2
 256 1429 l 1
 256 1430 l 2
 261.333333333 1451.33333333 271 1469 285 1483 c 0
 292.333333333 1490.33333333 300.833333333 1496 310.5 1500 c 128
 320.166666667 1504 331 1506 343 1506 c 0
 346.333333333 1506 349.5 1505.83333333 352.5 1505.5 c 128
 355.5 1505.16666667 358.333333333 1505 361 1505 c 0
 366.333333333 1504.33333333 371.666666667 1503.33333333 377 1502 c 2
 391 1496 l 2
 404.333333333 1489.33333333 415 1480.66666667 423 1470 c 0
 425 1467.33333333 427 1464.5 429 1461.5 c 128
 431 1458.5 432.666666667 1455.33333333 434 1452 c 128
 435.333333333 1448.66666667 436.5 1445.33333333 437.5 1442 c 128
 438.5 1438.66666667 439.333333333 1435.33333333 440 1432 c 0
 440 1430.66666667 440.166666667 1429.16666667 440.5 1427.5 c 128
 440.833333333 1425.83333333 441.166666667 1424.33333333 441.5 1423 c 128
 442 1421 442 1421 442.5 1419 c 128
 442.833333333 1417.66666667 443 1416.33333333 443 1415 c 128
 443 1413 443 1413 443 1410 c 0
 443.666666667 1402.66666667 444 1395.33333333 444 1388 c 0
 444 1359.33333333 443.5 1326.66666667 442.5 1290 c 128
 441.5 1253.33333333 440.5 1217.5 439.5 1182.5 c 128
 438.5 1147.5 437.333333333 1115.33333333 436 1086 c 0
 435.333333333 1070.66666667 434.666666667 1057.33333333 434 1046 c 1
 533.333333333 1126 635.666666667 1200.33333333 741 1269 c 0
 852.333333333 1341.66666667 966 1410.33333333 1082 1475 c 0
 1084.66666667 1477 1087 1478.83333333 1089 1480.5 c 128
 1091 1482.16666667 1093.16666667 1483.66666667 1095.5 1485 c 128
 1097.83333333 1486.33333333 1100 1487.5 1102 1488.5 c 128
 1104 1489.5 1106 1490.16666667 1108 1490.5 c 128
 1110 1490.83333333 1112 1491.33333333 1114 1492 c 0
 1122.66666667 1493.33333333 1134 1494 1148 1494 c 0
 1161.33333333 1494 1173.5 1492 1184.5 1488 c 128
 1195.5 1484 1205.33333333 1478 1214 1470 c 0
 1220 1464.66666667 1224.83333333 1458.66666667 1228.5 1452 c 128
 1232.16666667 1445.33333333 1235 1438 1237 1430 c 128
 1239 1422 1240 1413.66666667 1240 1405 c 0
 1240 1404 1240 1404 1240 1402.5 c 128
 1240 1401 1240 1401 1240 1399 c 0
 1240 1397 1239.83333333 1395 1239.5 1393 c 128
 1239 1390 1239 1390 1238.5 1387 c 128
 1238.16666667 1385 1237.66666667 1382.83333333 1237 1380.5 c 128
 1236.33333333 1378.16666667 1235.66666667 1376 1235 1374 c 0
 1235 1372.66666667 1234.83333333 1371.5 1234.5 1370.5 c 128
 1234.16666667 1369.5 1233.66666667 1368.33333333 1233 1367 c 0
 1231.66666667 1362.33333333 1229.66666667 1357.83333333 1227 1353.5 c 128
 1224.33333333 1349.16666667 1221.33333333 1345.33333333 1218 1342 c 128
 1214.66666667 1338.66666667 1211 1335.66666667 1207 1333 c 2
 798 1079 l 1
 523 874 l 1
 522 874 l 1
 522 873 l 2
 518 871 516 869.333333333 516 868 c 0
 517.333333333 864 524.666666667 857 538 847 c 0
 554 835 573.333333333 821.666666667 596 807 c 0
 618.666666667 792.333333333 632 783.333333333 636 780 c 0
 681.333333333 745.333333333 726.5 708 771.5 668 c 128
 816.5 628 860.333333333 585.666666667 903 541 c 0
 917 525.666666667 930.666666667 510.333333333 944 495 c 128
 957.333333333 479.666666667 969.833333333 464 981.5 448 c 128
 993.166666667 432 1004.33333333 416 1015 400 c 0
 1047 351.333333333 1072.66666667 300.666666667 1092 248 c 0
 1102 222 1109.33333333 195.666666667 1114 169 c 128
 1118.66666667 142.333333333 1121 115.666666667 1121 89 c 0
 1121 75.6666666667 1118.66666667 63.6666666667 1114 53 c 0
 1112.66666667 49.6666666667 1110.83333333 46.1666666667 1108.5 42.5 c 128
 1106.16666667 38.8333333333 1103.66666667 35.6666666667 1101 33 c 128
 1098.33333333 30.3333333333 1095.33333333 27.6666666667 1092 25 c 0
 1082.66666667 17.6666666667 1072.66666667 12 1062 8 c 0
 1056.66666667 6 1051.16666667 4.5 1045.5 3.5 c 128
 1039.83333333 2.5 1034 2 1028 2 c 128
 1022 2 1015.83333333 4.5 1009.5 9.5 c 128
 1003.16666667 14.5 996 22 988 32 c 0
 980.666666667 40.6666666667 972.666666667 51 964 63 c 0
 959.333333333 69 954.666666667 75.3333333333 950 82 c 128
 945.333333333 88.6666666667 940.333333333 95.6666666667 935 103 c 0
 914.333333333 132.333333333 891.333333333 166.166666667 866 204.5 c 128
 840.666666667 242.833333333 813.333333333 282.833333333 784 324.5 c 128
 754.666666667 366.166666667 724 407.833333333 692 449.5 c 128
 660 491.166666667 627.333333333 529.666666667 594 565 c 0
 586 573.666666667 577.833333333 582.333333333 569.5 591 c 128
 561.166666667 599.666666667 552.833333333 607.833333333 544.5 615.5 c 128
 536.166666667 623.166666667 527.833333333 630.666666667 519.5 638 c 128
 511.166666667 645.333333333 502.666666667 652.333333333 494 659 c 0
 479.333333333 671 464.666666667 681.666666667 450 691 c 128
 435.333333333 700.333333333 420.666666667 708 406 714 c 1
 404 709 l 2
 402.666666667 700.333333333 400.666666667 688.333333333 398 673 c 0
 395.333333333 656.333333333 392.333333333 637.666666667 389 617 c 128
 385.666666667 596.333333333 382 574.666666667 378 552 c 128
 374 529.333333333 370.333333333 508 367 488 c 0
 366.333333333 482.666666667 365.5 477.666666667 364.5 473 c 128
 363.5 468.333333333 362.666666667 463.666666667 362 459 c 0
 361.333333333 457 360.833333333 454.833333333 360.5 452.5 c 128
 360 449 360 449 359.5 445.5 c 128
 359.166666667 443.166666667 358.833333333 441 358.5 439 c 128
 358.166666667 437 357.666666667 435 357 433 c 0
 353.666666667 417 351.333333333 405 350 397 c 0
 350 397 l 2
 347.333333333 386.333333333 344.666666667 369.333333333 342 346 c 0
 338.666666667 322.666666667 334.5 296.833333333 329.5 268.5 c 128
 324.5 240.166666667 318 211 310 181 c 0
 302 150.333333333 292.333333333 122.333333333 281 97 c 0
 269 71.6666666667 254 50.6666666667 236 34 c 0
 226.666666667 25.3333333333 216.333333333 19 205 15 c 0
 199.666666667 13 194 11.3333333333 188 10 c 128
 182 8.66666666667 176 8 170 8 c 0
 166.666666667 8 163.333333333 8.16666666667 160 8.5 c 128
 156.666666667 8.83333333333 153.333333333 9.33333333333 150 10 c 0
 144 11.3333333333 138.166666667 13 132.5 15 c 128
 126.833333333 17 121.666666667 20 117 24 c 0
 114.333333333 26 111.833333333 27.8333333333 109.5 29.5 c 128
 107.166666667 31.1666666667 105 33.3333333333 103 36 c 0
 87.6666666667 54 80 76.3333333333 80 103 c 2
 80 120 l 1
 80 122 l 1
EndSplineSet
Validated: 1
EndChar

StartChar: L
Encoding: 76 76 47
Width: 1134
GlyphClass: 2
Flags: HW
LayerCount: 2
Fore
SplineSet
636 15 m 2
 588.666666667 15 550.666666667 15.3333333333 522 16 c 2
 479 16 l 2
 472.333333333 16.6666666667 463.666666667 17 453 17 c 2
 417 17 l 1
 401.666666667 16.3333333333 378.333333333 16 347 16 c 0
 316.333333333 16 240.333333333 11.6666666667 119 3 c 1
 103 3 l 2
 75.6666666667 3 58 9.66666666667 50 23 c 0
 42.6666666667 35.6666666667 39 54 39 78 c 128
 39 102 42 126.666666667 48 152 c 0
 58 194.666666667 70.6666666667 237 86 279 c 0
 97.3333333333 309.666666667 109 344.666666667 121 384 c 0
 129 410 140.333333333 451 155 507 c 0
 201.666666667 685.666666667 228 836.666666667 234 960 c 2
 256 1407 l 2
 258.666666667 1447.66666667 276.666666667 1476 310 1492 c 0
 321.333333333 1497.33333333 333 1500 345 1500 c 128
 357 1500 367 1498.66666667 375 1496 c 0
 421.666666667 1480.66666667 445 1456.33333333 445 1423 c 2
 445 1270 l 1
 410 835 l 2
 392.666666667 624.333333333 344 412 264 198 c 1
 327.333333333 207.333333333 390 212 452 212 c 2
 485 212 l 1
 650 210 l 2
 667.333333333 210 691 210.333333333 721 211 c 1
 759 211 l 1
 778.333333333 210.333333333 802.333333333 209.666666667 831 209 c 0
 1031 204.333333333 1131 164.333333333 1131 89 c 0
 1131 40.3333333333 1103.33333333 16 1048 16 c 2
 636 15 l 2
EndSplineSet
Validated: 1
EndChar

StartChar: M
Encoding: 77 77 48
Width: 1766
GlyphClass: 2
Flags: HW
LayerCount: 2
Fore
SplineSet
1479 299 m 1
 1479 101 1437 2 1353 2 c 0
 1327.66666667 2 1310.66666667 5.33333333333 1302 12 c 0
 1288.66666667 23.3333333333 1281.5 29.1666666667 1280.5 29.5 c 128
 1279.5 29.8333333333 1278.5 30.6666666667 1277.5 32 c 128
 1276.5 33.3333333333 1273.66666667 36.5 1269 41.5 c 128
 1264.33333333 46.5 1262 54 1262 64 c 2
 1262 128 l 1
 1297 427 l 1
 1300.33333333 465.666666667 1302.83333333 509.166666667 1304.5 557.5 c 128
 1306.16666667 605.833333333 1307.66666667 645.333333333 1309 676 c 128
 1310.33333333 706.666666667 1311.83333333 742.166666667 1313.5 782.5 c 128
 1315.16666667 822.833333333 1316.5 861.166666667 1317.5 897.5 c 128
 1318.5 933.833333333 1319.33333333 964 1320 988 c 1
 1320 1197 l 1
 959 786 l 1
 949 776 943.333333333 770 942 768 c 0
 918 739.333333333 888.333333333 725 853 725 c 0
 837 725 824.833333333 727.166666667 816.5 731.5 c 128
 808.166666667 735.833333333 803.666666667 738.166666667 803 738.5 c 128
 802.333333333 738.833333333 801.5 739.166666667 800.5 739.5 c 128
 799.5 739.833333333 798 740.666666667 796 742 c 0
 790.666666667 745.333333333 787 748.833333333 785 752.5 c 128
 783 756.166666667 781.333333333 759 780 761 c 128
 778.666666667 763 776.5 766.5 773.5 771.5 c 128
 770.5 776.5 765.666666667 784.166666667 759 794.5 c 128
 752.333333333 804.833333333 743.833333333 818.5 733.5 835.5 c 128
 723.166666667 852.5 712.166666667 870.5 700.5 889.5 c 128
 688.833333333 908.5 677.666666667 926.333333333 667 943 c 128
 656.333333333 959.666666667 647 974.666666667 639 988 c 2
 621 1017 l 2
 613.666666667 1029.66666667 598.333333333 1051.5 575 1082.5 c 128
 551.666666667 1113.5 536.666666667 1133.33333333 530 1142 c 0
 520.666666667 1155.33333333 515 1163 513 1165 c 128
 511 1167 510 1168.33333333 510 1169 c 2
 454 608 l 1
 454 607 l 1
 453.333333333 605.666666667 452.666666667 603.666666667 452 601 c 0
 451.333333333 594.333333333 450.333333333 587.333333333 449 580 c 128
 447.666666667 572.666666667 445.5 560.666666667 442.5 544 c 128
 439.5 527.333333333 436.166666667 509.166666667 432.5 489.5 c 128
 428.833333333 469.833333333 425 450.666666667 421 432 c 128
 417 413.333333333 413.666666667 397.666666667 411 385 c 128
 408.333333333 372.333333333 406.333333333 362.666666667 405 356 c 0
 402.333333333 340.666666667 400.333333333 331 399 327 c 128
 397.666666667 323 396.833333333 319.666666667 396.5 317 c 128
 396.166666667 314.333333333 395.5 311 394.5 307 c 128
 393.5 303 392.333333333 296.666666667 391 288 c 0
 363 113.333333333 310.666666667 26 234 26 c 2
 227 26 l 1
 196 31 l 2
 194.666666667 31.6666666667 193.5 32.3333333333 192.5 33 c 128
 191.5 33.6666666667 190.333333333 34.1666666667 189 34.5 c 128
 187.666666667 34.8333333333 186.5 35.3333333333 185.5 36 c 128
 184.5 36.6666666667 183.333333333 37.3333333333 182 38 c 128
 180.666666667 38.6666666667 179.5 39.3333333333 178.5 40 c 128
 177 41 177 41 175.5 42 c 128
 174.5 42.6666666667 173.333333333 43.3333333333 172 44 c 0
 152.666666667 57.3333333333 143 81.3333333333 143 116 c 2
 143 140 l 1
 168.333333333 191.333333333 190.5 262.833333333 209.5 354.5 c 128
 228.5 446.166666667 246.166666667 537.5 262.5 628.5 c 128
 278.833333333 719.5 293 837.666666667 305 983 c 128
 317 1128.33333333 323 1271.33333333 323 1412 c 2
 323 1458 l 1
 331 1492.66666667 352 1517 386 1531 c 0
 394 1534.33333333 409.333333333 1536 432 1536 c 0
 452 1536 474.666666667 1521 500 1491 c 1
 501 1491 l 1
 803 1086 l 1
 804 1085 l 1
 874 978 l 1
 1339 1510 l 1
 1355 1526 1367.66666667 1536.16666667 1377 1540.5 c 128
 1386.33333333 1544.83333333 1398.33333333 1547 1413 1547 c 0
 1428.33333333 1547 1440 1545.66666667 1448 1543 c 0
 1458.66666667 1539.66666667 1464.66666667 1537.66666667 1466 1537 c 128
 1467.33333333 1536.33333333 1468.83333333 1535.66666667 1470.5 1535 c 128
 1472.16666667 1534.33333333 1473.66666667 1533.5 1475 1532.5 c 128
 1476.33333333 1531.5 1478.33333333 1530.33333333 1481 1529 c 0
 1489.66666667 1525 1495.33333333 1520.66666667 1498 1516 c 128
 1500.66666667 1511.33333333 1502.83333333 1508 1504.5 1506 c 128
 1506.16666667 1504 1507.5 1501.66666667 1508.5 1499 c 128
 1509.5 1496.33333333 1510.66666667 1493.66666667 1512 1491 c 0
 1513.33333333 1486.33333333 1514 1480.33333333 1514 1473 c 2
 1514 1183 l 1
 1480 316 l 1
 1479 299 l 1
EndSplineSet
Validated: 1
EndChar

StartChar: N
Encoding: 78 78 49
Width: 1340
GlyphClass: 2
Flags: HW
LayerCount: 2
Fore
SplineSet
1264 1440 m 2
 1264 1420 l 1
 1095.84960938 144 l 2
 1095.18294271 141.333333333 1094.51627605 137 1093.84960938 131 c 0
 1090.51627605 101 1085.34960938 79.3333333333 1078.34960938 66 c 128
 1071.34960938 52.6666666667 1067.51627605 45.3333333333 1066.84960938 44 c 0
 1066.84960938 44 1066.84960938 44 1063.84960938 40 c 0
 1059.84960938 34 1059.84960938 34 1057.84960938 31 c 0
 1045.84960938 8.33333333333 1025.18294271 -3 995.849609375 -3 c 0
 969.182942708 -3 951.016276042 -0.5 941.349609375 4.5 c 128
 931.682942708 9.5 925.849609375 12.6666666667 923.849609375 14 c 128
 920.849609375 16 920.849609375 16 917.849609375 18 c 0
 907.182942708 25.3333333333 899.182942708 35.6666666667 893.849609375 49 c 1
 611.849609375 688 l 1
 374.849609375 1131 l 1
 321.849609375 593 l 1
 320.849609375 592 l 1
 320.182942708 584.666666667 318.849609375 576.166666667 316.849609375 566.5 c 128
 314.849609375 556.833333333 312.682942708 545.666666667 310.349609375 533 c 128
 308.016276042 520.333333333 306.016276042 509.666666667 304.349609375 501 c 128
 302.682942708 492.333333333 301.349609375 484.666666667 300.349609375 478 c 128
 299.349609375 471.333333333 298.516276042 466.333333333 297.849609375 463 c 0
 296.516276042 456.333333333 295.349609375 450.166666667 294.349609375 444.5 c 128
 293.349609375 438.833333333 292.349609375 433.666666667 291.349609375 429 c 128
 290.349609375 424.333333333 289.182942708 418.166666667 287.849609375 410.5 c 128
 286.516276042 402.833333333 284.849609375 394.666666667 282.849609375 386 c 128
 280.849609375 377.333333333 279.016276042 369.5 277.349609375 362.5 c 128
 275.682942708 355.5 274.349609375 349.5 273.349609375 344.5 c 128
 272.349609375 339.5 271.182942708 334.666666667 269.849609375 330 c 0
 265.849609375 312 261.849609375 290.333333333 257.849609375 265 c 128
 253.849609375 239.666666667 250.849609375 223.333333333 248.849609375 216 c 128
 246.849609375 208.666666667 245.682942708 204 245.349609375 202 c 128
 245.016276042 200 244.516276042 198 243.849609375 196 c 128
 243.182942708 194 242.682942708 192 242.349609375 190 c 128
 242.016276042 188 241.516276042 185.5 240.849609375 182.5 c 128
 240.182942708 179.5 239.349609375 176.5 238.349609375 173.5 c 128
 237.349609375 170.5 236.516276042 167.833333333 235.849609375 165.5 c 128
 235.182942708 163.166666667 234.516276042 161.166666667 233.849609375 159.5 c 128
 233.182942708 157.833333333 232.682942708 156.166666667 232.349609375 154.5 c 128
 232.016276042 152.833333333 231.682942708 151.333333333 231.349609375 150 c 128
 231.016276042 148.666666667 230.516276042 147.333333333 229.849609375 146 c 0
 227.849609375 142 227.849609375 142 227.849609375 142 c 0
 223.849609375 123.333333333 215.182942708 102 201.849609375 78 c 0
 173.849609375 28 142.849609375 3 108.849609375 3 c 0
 42.849609375 3 9.849609375 33 9.849609375 93 c 2
 9.849609375 118 l 1
 13.1829427083 124.666666667 17.5162760417 136.166666667 22.849609375 152.5 c 128
 28.1829427083 168.833333333 31.349609375 178.166666667 32.349609375 180.5 c 128
 33.349609375 182.833333333 34.1829427083 185.333333333 34.849609375 188 c 128
 35.5162760417 190.666666667 36.1829427083 193.166666667 36.849609375 195.5 c 128
 37.5162760417 197.833333333 38.349609375 200.166666667 39.349609375 202.5 c 128
 40.349609375 204.833333333 41.0162760417 207 41.349609375 209 c 128
 41.6829427083 211 44.6829427083 221.666666667 50.349609375 241 c 128
 56.0162760417 260.333333333 62.5162760417 284 69.849609375 312 c 0
 81.849609375 359.333333333 89.349609375 391.333333333 92.349609375 408 c 128
 95.349609375 424.666666667 97.849609375 437.166666667 99.849609375 445.5 c 128
 101.849609375 453.833333333 103.516276042 462 104.849609375 470 c 2
 109.849609375 493 l 2
 111.182942708 501 115.182942708 525.666666667 121.849609375 567 c 0
 167.182942708 833 189.849609375 1110.33333333 189.849609375 1399 c 2
 189.849609375 1445 l 1
 194.516276042 1466.33333333 203.516276042 1482.83333333 216.849609375 1494.5 c 128
 230.182942708 1506.16666667 240.349609375 1513.16666667 247.349609375 1515.5 c 128
 254.349609375 1517.83333333 259.849609375 1519.33333333 263.849609375 1520 c 0
 270.516276042 1522 280.182942708 1523 292.849609375 1523 c 128
 305.516276042 1523 315.016276042 1521.16666667 321.349609375 1517.5 c 128
 327.682942708 1513.83333333 332.016276042 1511.16666667 334.349609375 1509.5 c 128
 336.682942708 1507.83333333 338.849609375 1506.33333333 340.849609375 1505 c 128
 342.849609375 1503.66666667 344.849609375 1502 346.849609375 1500 c 0
 365.516276042 1484.66666667 376.849609375 1473.66666667 380.849609375 1467 c 128
 384.849609375 1460.33333333 387.349609375 1456.33333333 388.349609375 1455 c 128
 389.349609375 1453.66666667 390.349609375 1452.16666667 391.349609375 1450.5 c 128
 392.349609375 1448.83333333 394.016276042 1446.33333333 396.349609375 1443 c 128
 398.682942708 1439.66666667 401.849609375 1435.33333333 405.849609375 1430 c 0
 427.182942708 1396 442.516276042 1372.33333333 451.849609375 1359 c 128
 461.182942708 1345.66666667 468.349609375 1335.16666667 473.349609375 1327.5 c 128
 478.349609375 1319.83333333 484.016276042 1311.33333333 490.349609375 1302 c 128
 496.682942708 1292.66666667 503.349609375 1283 510.349609375 1273 c 128
 517.349609375 1263 523.849609375 1253.16666667 529.849609375 1243.5 c 128
 535.849609375 1233.83333333 539.682942708 1227.66666667 541.349609375 1225 c 128
 543.016276042 1222.33333333 544.208007813 1220.5 544.924804688 1219.5 c 128
 545.641601563 1218.5 546.333333333 1217.33333333 547 1216 c 2
 853 629 l 1
 853 628 l 1
 853.666666667 626.666666667 855 623.333333333 857 618 c 0
 859.666666667 612 862 606.666666667 864 602 c 0
 867.333333333 595.333333333 871.666666667 585.333333333 877 572 c 0
 882.333333333 559.333333333 891 540.333333333 903 515 c 0
 928.333333333 463 943 430.333333333 947 417 c 1
 1076 1444 l 2
 1083.33333333 1504 1115.66666667 1534 1173 1534 c 0
 1211.66666667 1534 1238.66666667 1518.66666667 1254 1488 c 0
 1260.66666667 1474.66666667 1264 1458.66666667 1264 1440 c 2
EndSplineSet
Validated: 1
EndChar

StartChar: O
Encoding: 79 79 50
Width: 1543
GlyphClass: 2
Flags: W
HStem: -19 191<564.178 958.617> 1332 197<642.165 993.844>
VStem: 115 191<465.081 974.123> 1252 191<500.987 974.528>
LayerCount: 2
Fore
SplineSet
269 212 m 0
 215.666666667 283.333333333 176.666666667 366.666666667 152 462 c 0
 127.333333333 557.333333333 115 659 115 767 c 0
 115 797.666666667 117 828.333333333 121 859 c 0
 123 874.333333333 125.666666667 889.666666667 129 905 c 0
 132.333333333 920.333333333 136 935.666666667 140 951 c 0
 148.666666667 981.666666667 159 1011.83333333 171 1041.5 c 0
 183 1071.16666667 196.666666667 1100 212 1128 c 0
 242.666666667 1184 279.333333333 1236.66666667 322 1286 c 0
 365.333333333 1335.33333333 414.333333333 1377.66666667 469 1413 c 0
 487 1425 505.666666667 1436.16666667 525 1446.5 c 0
 544.333333333 1456.83333333 564 1466.16666667 584 1474.5 c 0
 604 1482.83333333 624.333333333 1490.66666667 645 1498 c 0
 661 1503.33333333 677 1507.83333333 693 1511.5 c 0
 709 1515.16666667 725 1518.33333333 741 1521 c 0
 773.666666667 1526.33333333 807.333333333 1529 842 1529 c 0
 853.333333333 1529 864.333333333 1528.66666667 875 1528 c 0
 885.666666667 1527.33333333 896.333333333 1526.33333333 907 1525 c 0
 917.666666667 1523.66666667 928.333333333 1521.66666667 939 1519 c 0
 944.333333333 1517.66666667 949.5 1516.5 954.5 1515.5 c 0
 959.5 1514.5 964.333333333 1513.33333333 969 1512 c 0
 979 1509.33333333 989 1506 999 1502 c 0
 1002 1501 1002 1501 1005 1500 c 0
 1007 1499.33333333 1008.83333333 1498.66666667 1010.5 1498 c 0
 1012.16666667 1497.33333333 1014 1496.66666667 1016 1496 c 0
 1018 1495.33333333 1020 1494.5 1022 1493.5 c 0
 1024 1492.5 1026 1491.66666667 1028 1491 c 0
 1084 1465.66666667 1134.66666667 1432 1180 1390 c 0
 1224 1348 1262.33333333 1299.33333333 1295 1244 c 0
 1303 1230 1303 1230 1311 1216 c 0
 1313.66666667 1211.33333333 1316.16666667 1206.66666667 1318.5 1202 c 0
 1320.83333333 1197.33333333 1323.33333333 1192.66666667 1326 1188 c 0
 1330.66666667 1178.66666667 1335.33333333 1169 1340 1159 c 0
 1341.33333333 1155.66666667 1342.83333333 1152.5 1344.5 1149.5 c 0
 1346.16666667 1146.5 1347.66666667 1143.33333333 1349 1140 c 0
 1351 1135 1351 1135 1353 1130 c 0
 1357 1120 1361 1110.16666667 1365 1100.5 c 0
 1369 1090.83333333 1373 1081 1377 1071 c 0
 1399 1011 1415.33333333 950 1426 888 c 0
 1431.33333333 857.333333333 1435.5 827.5 1438.5 798.5 c 0
 1441.5 769.5 1443 741 1443 713 c 0
 1443 662.333333333 1437 610.333333333 1425 557 c 0
 1421.66666667 543.666666667 1418.16666667 530.5 1414.5 517.5 c 0
 1410.83333333 504.5 1407 491.333333333 1403 478 c 0
 1394.33333333 452 1384.33333333 426.333333333 1373 401 c 0
 1350.33333333 350.333333333 1322.66666667 301.666666667 1290 255 c 0
 1257.33333333 208.333333333 1219.66666667 166.333333333 1177 129 c 0
 1134.33333333 91.6666666667 1087.33333333 60 1036 34 c 0
 984.666666667 8 929.666666667 -9.66666666667 871 -19 c 2
 870 -19 l 1
 779 -19 l 2
 661 -19 560 1.66666666667 476 43 c 0
 434 63.6666666667 395.333333333 88 360 116 c 0
 326 144.666666667 295.666666667 176.666666667 269 212 c 0
346 962 m 0
 337.333333333 940 330 917.333333333 324 894 c 0
 312 848.666666667 306 804.333333333 306 761 c 0
 306 679.666666667 314.333333333 603 331 531 c 0
 347.666666667 459.666666667 374.666666667 397.333333333 412 344 c 0
 430.666666667 317.333333333 452.166666667 293.5 476.5 272.5 c 0
 500.833333333 251.5 528 233.333333333 558 218 c 0
 588 202.666666667 621.333333333 191.166666667 658 183.5 c 0
 694.666666667 175.833333333 735 172 779 172 c 0
 790.333333333 172 801.666666667 172.5 813 173.5 c 0
 824.333333333 174.5 835.666666667 176 847 178 c 0
 869 182 890.333333333 187.666666667 911 195 c 0
 953 211 991.5 232.5 1026.5 259.5 c 0
 1061.5 286.5 1093 317.666666667 1121 353 c 0
 1135 371 1148 389.5 1160 408.5 c 0
 1172 427.5 1182.66666667 447 1192 467 c 0
 1211.33333333 507 1226.33333333 548 1237 590 c 0
 1242.33333333 610.666666667 1246.16666667 631 1248.5 651 c 0
 1250.83333333 671 1252 691 1252 711 c 0
 1252 720.333333333 1251.83333333 729.833333333 1251.5 739.5 c 0
 1251.16666667 749.166666667 1250.5 759.166666667 1249.5 769.5 c 0
 1248.5 779.833333333 1247.33333333 790.5 1246 801.5 c 0
 1244.66666667 812.5 1243 823.666666667 1241 835 c 0
 1233.66666667 880.333333333 1222.83333333 926 1208.5 972 c 0
 1194.16666667 1018 1175.33333333 1063 1152 1107 c 0
 1129.33333333 1150.33333333 1102.66666667 1188.66666667 1072 1222 c 0
 1056.66666667 1238.66666667 1040.33333333 1253.66666667 1023 1267 c 0
 1017 1271.66666667 1011 1276 1005 1280 c 0
 999 1284 992.833333333 1287.83333333 986.5 1291.5 c 0
 980.166666667 1295.16666667 973.666666667 1298.66666667 967 1302 c 0
 928.333333333 1322 885.333333333 1332 838 1332 c 0
 813.333333333 1332 789.166666667 1330 765.5 1326 c 0
 741.833333333 1322 718.666666667 1316 696 1308 c 0
 684.666666667 1304 673.333333333 1299.83333333 662 1295.5 c 0
 650.666666667 1291.16666667 639.666666667 1286.16666667 629 1280.5 c 0
 618.333333333 1274.83333333 608 1269 598 1263 c 0
 588 1257 578 1250.33333333 568 1243 c 0
 554.666666667 1233.66666667 541.833333333 1224 529.5 1214 c 0
 517.166666667 1204 505.166666667 1193.33333333 493.5 1182 c 0
 481.833333333 1170.66666667 470.666666667 1158.66666667 460 1146 c 0
 452 1136.66666667 444.166666667 1127.16666667 436.5 1117.5 c 0
 428.833333333 1107.83333333 421.5 1098.16666667 414.5 1088.5 c 0
 407.5 1078.83333333 400.833333333 1068.83333333 394.5 1058.5 c 0
 388.166666667 1048.16666667 382.333333333 1037.66666667 377 1027 c 0
 365 1005.66666667 354.666666667 984 346 962 c 0
EndSplineSet
Validated: 1
EndChar

StartChar: P
Encoding: 80 80 51
Width: 1319
GlyphClass: 2
Flags: HW
LayerCount: 2
Fore
SplineSet
197 116 m 1
 197 117 l 1
 197 118 l 1
 197 119 l 1
 266 375 l 2
 286.666666667 449 302.333333333 524.666666667 313 602 c 0
 324.333333333 680 332.666666667 758.666666667 338 838 c 128
 343.333333333 917.333333333 346.666666667 996.666666667 348 1076 c 0
 348.666666667 1151.33333333 349 1226 349 1300 c 1
 345 1300 l 2
 339.666666667 1300 334.166666667 1299.83333333 328.5 1299.5 c 128
 322.833333333 1299.16666667 317.333333333 1298.66666667 312 1298 c 128
 306.666666667 1297.33333333 301.333333333 1296.5 296 1295.5 c 128
 290.666666667 1294.5 285.666666667 1293.33333333 281 1292 c 0
 259.666666667 1286.66666667 238.666666667 1281 218 1275 c 0
 197.333333333 1268.33333333 177.333333333 1262.33333333 158 1257 c 0
 137.333333333 1251.66666667 115.666666667 1249 93 1249 c 0
 65 1249 43 1256.33333333 27 1271 c 0
 11 1285.66666667 3 1307.33333333 3 1336 c 0
 3 1366 16.3333333333 1390.66666667 43 1410 c 0
 67.6666666667 1428.66666667 99.3333333333 1444.33333333 138 1457 c 0
 142.666666667 1458.33333333 147.5 1459.66666667 152.5 1461 c 128
 160 1463 160 1463 167.5 1465 c 128
 172.5 1466.33333333 177.666666667 1467.66666667 183 1469 c 128
 191 1471 191 1471 199 1473 c 0
 220.333333333 1477.66666667 242.666666667 1481.66666667 266 1485 c 0
 313.333333333 1492.33333333 359.833333333 1497.66666667 405.5 1501 c 128
 451.166666667 1504.33333333 493.333333333 1506.33333333 532 1507 c 0
 551.333333333 1507.66666667 568 1508 582 1508 c 0
 593 1508 593 1508 602.5 1508 c 128
 612 1508 612 1508 620 1508 c 0
 664 1508 712 1506 764 1502 c 0
 816 1498 867.666666667 1491.33333333 919 1482 c 0
 945 1476.66666667 970.666666667 1470.66666667 996 1464 c 0
 1008.66666667 1460.66666667 1021 1457 1033 1453 c 128
 1045 1449 1057 1444.66666667 1069 1440 c 0
 1071.66666667 1439.33333333 1074.16666667 1438.5 1076.5 1437.5 c 128
 1080 1436 1080 1436 1083.5 1434.5 c 128
 1085.83333333 1433.5 1088 1432.5 1090 1431.5 c 128
 1092 1430.5 1094.16666667 1429.5 1096.5 1428.5 c 128
 1098.83333333 1427.5 1101.33333333 1426.33333333 1104 1425 c 0
 1108 1423 1108 1423 1112 1421 c 128
 1116 1419 1116 1419 1120 1417 c 128
 1124 1415 1124 1415 1128 1413 c 128
 1132 1411 1132 1411 1136 1409 c 0
 1146.66666667 1403 1157 1396.66666667 1167 1390 c 0
 1171.66666667 1386.66666667 1176.33333333 1383.16666667 1181 1379.5 c 128
 1185.66666667 1375.83333333 1190.33333333 1372.33333333 1195 1369 c 0
 1232.33333333 1339.66666667 1262 1303.66666667 1284 1261 c 0
 1306 1218.33333333 1317 1168.33333333 1317 1111 c 0
 1317 1095.66666667 1316 1080.83333333 1314 1066.5 c 128
 1312 1052.16666667 1309.16666667 1038.33333333 1305.5 1025 c 128
 1301.83333333 1011.66666667 1297.16666667 999 1291.5 987 c 128
 1285.83333333 975 1279.33333333 963.666666667 1272 953 c 0
 1267.33333333 945.666666667 1262.16666667 938.833333333 1256.5 932.5 c 128
 1250.83333333 926.166666667 1245 919.666666667 1239 913 c 0
 1227 900.333333333 1214.33333333 888.833333333 1201 878.5 c 128
 1187.66666667 868.166666667 1173.33333333 858.333333333 1158 849 c 0
 1135.33333333 835.666666667 1111 824.333333333 1085 815 c 0
 1072.33333333 810.333333333 1059.33333333 805.833333333 1046 801.5 c 128
 1032.66666667 797.166666667 1019 793.333333333 1005 790 c 0
 1000.33333333 788.666666667 995.666666667 787.5 991 786.5 c 128
 984 785 984 785 977 783.5 c 128
 972.333333333 782.5 967.666666667 781.666666667 963 781 c 128
 958.333333333 780.333333333 953.833333333 779.5 949.5 778.5 c 128
 945.166666667 777.5 940.666666667 776.666666667 936 776 c 128
 929 775 929 775 922 774 c 0
 908.666666667 772 895.333333333 770.333333333 882 769 c 128
 868.666666667 767.666666667 855.333333333 766.666666667 842 766 c 2
 518 749 l 1
 449 313 l 2
 448.333333333 309.666666667 447.5 305.833333333 446.5 301.5 c 128
 445.5 297.166666667 444.666666667 292.333333333 444 287 c 128
 443.333333333 281.666666667 442.333333333 275.666666667 441 269 c 0
 438.333333333 249.666666667 434.666666667 228.666666667 430 206 c 128
 425.333333333 183.333333333 419.333333333 160.666666667 412 138 c 0
 404.666666667 114 395.333333333 92.3333333333 384 73 c 0
 372.666666667 53 359.333333333 36.6666666667 344 24 c 0
 327.333333333 10.6666666667 308.333333333 4 287 4 c 0
 273 4 260.333333333 6 249 10 c 0
 243.666666667 12 238.5 14.6666666667 233.5 18 c 128
 228.5 21.3333333333 224 25 220 29 c 128
 216 33 212.666666667 37.5 210 42.5 c 128
 207.333333333 47.5 205 53 203 59 c 0
 199 70.3333333333 197 82.6666666667 197 96 c 2
 197 116 l 1
822 1312 m 0
 783.333333333 1316 746.666666667 1318.33333333 712 1319 c 0
 676.666666667 1319.66666667 646.666666667 1320 622 1320 c 0
 621 1320 621 1320 620 1320 c 128
 619 1320 619 1320 618 1320 c 2
 614 1320 l 2
 612 1320 612 1320 608 1320 c 0
 607 1320 607 1320 605.5 1320 c 128
 604 1320 604 1320 602 1320 c 2
 577 1319 l 2
 568.333333333 1319 561 1318.66666667 555 1318 c 2
 550 1317 l 1
 548 1313 l 1
 547.333333333 1297.66666667 546.666666667 1283.33333333 546 1270 c 0
 546 1262.66666667 545.833333333 1255.5 545.5 1248.5 c 128
 545.166666667 1241.5 545 1234.66666667 545 1228 c 0
 544.333333333 1214 543.666666667 1200.33333333 543 1187 c 0
 542.333333333 1169.66666667 541.666666667 1151.66666667 541 1133 c 0
 541 1127 540.833333333 1120.83333333 540.5 1114.5 c 128
 540.166666667 1108.16666667 539.833333333 1102 539.5 1096 c 128
 539.166666667 1090 539 1084 539 1078 c 0
 538.333333333 1060.66666667 537.666666667 1044 537 1028 c 0
 537 1020 537 1020 537 1012.5 c 128
 537 1005 537 1005 537 998.5 c 128
 537 992 537 992 537 986 c 2
 537 936 l 1
 547 936 558.166666667 935.833333333 570.5 935.5 c 128
 582.833333333 935.166666667 597 935 613 935 c 2
 647 935 l 1
 676 935 l 2
 696 935 717 935.333333333 739 936 c 0
 784.333333333 937.333333333 830.666666667 941 878 947 c 0
 901.333333333 950.333333333 923.833333333 954.5 945.5 959.5 c 128
 967.166666667 964.5 987.666666667 970.333333333 1007 977 c 0
 1045 990.333333333 1075.66666667 1007.66666667 1099 1029 c 0
 1104.33333333 1034.33333333 1109.16666667 1039.83333333 1113.5 1045.5 c 128
 1117.83333333 1051.16666667 1121.5 1057.33333333 1124.5 1064 c 128
 1127.5 1070.66666667 1129.66666667 1077.66666667 1131 1085 c 128
 1132.33333333 1092.33333333 1133 1100 1133 1108 c 0
 1133 1125.33333333 1130.83333333 1141.33333333 1126.5 1156 c 128
 1122.16666667 1170.66666667 1115.66666667 1184 1107 1196 c 0
 1104.33333333 1200 1101.33333333 1203.83333333 1098 1207.5 c 128
 1094.66666667 1211.16666667 1091.16666667 1214.83333333 1087.5 1218.5 c 128
 1083.83333333 1222.16666667 1080 1225.66666667 1076 1229 c 0
 1074.66666667 1230.33333333 1073.33333333 1231.5 1072 1232.5 c 128
 1070 1234 1070 1234 1068 1235.5 c 128
 1066.66666667 1236.5 1065.33333333 1237.66666667 1064 1239 c 0
 1060 1242.33333333 1055.66666667 1245.33333333 1051 1248 c 0
 1049 1249.33333333 1046.83333333 1250.66666667 1044.5 1252 c 128
 1042.16666667 1253.33333333 1039.66666667 1254.66666667 1037 1256 c 0
 1022.33333333 1264 1006.5 1271 989.5 1277 c 128
 972.5 1283 954.666666667 1288.33333333 936 1293 c 0
 917 1297 917 1297 898 1301 c 0
 891.333333333 1302.33333333 884.833333333 1303.5 878.5 1304.5 c 128
 869 1306 869 1306 859.5 1307.5 c 128
 853.166666667 1308.5 847 1309.33333333 841 1310 c 128
 835 1310.66666667 828.666666667 1311.33333333 822 1312 c 0
EndSplineSet
Validated: 1
EndChar

StartChar: Q
Encoding: 81 81 52
Width: 1539
GlyphClass: 2
Flags: HW
LayerCount: 2
Fore
SplineSet
1172.5 9.5 m 128
 1162.16666667 18.5 1152 27.3333333333 1142 36 c 0
 1137.33333333 40 1132.83333333 44 1128.5 48 c 128
 1124.16666667 52 1120 56 1116 60 c 1
 1104.66666667 54.6666666667 1094.16666667 50 1084.5 46 c 128
 1074.83333333 42 1065 38 1055 34 c 0
 1045 30 1034.66666667 26.5 1024 23.5 c 128
 1013.33333333 20.5 1003 17.6666666667 993 15 c 0
 979 11.6666666667 964.666666667 8.83333333333 950 6.5 c 128
 935.333333333 4.16666666667 920.166666667 2.33333333333 904.5 1 c 128
 888.833333333 -0.333333333333 873 -1 857 -1 c 0
 782.333333333 -1 712.666666667 8.33333333333 648 27 c 0
 615.333333333 36.3333333333 584 47.5 554 60.5 c 128
 524 73.5 495.666666667 88.3333333333 469 105 c 0
 415 138.333333333 367 178.333333333 325 225 c 0
 304.333333333 248.333333333 285.333333333 273 268 299 c 128
 250.666666667 325 235 352.333333333 221 381 c 0
 192.333333333 438.333333333 170.666666667 499.666666667 156 565 c 0
 152 581 148.666666667 597.333333333 146 614 c 128
 143.333333333 630.666666667 141.166666667 647.5 139.5 664.5 c 128
 137.833333333 681.5 136.5 698.666666667 135.5 716 c 128
 134.5 733.333333333 134 750.666666667 134 768 c 0
 134 788.666666667 134.833333333 809 136.5 829 c 128
 138.166666667 849 140.666666667 869.333333333 144 890 c 0
 147 905 147 905 150 920 c 128
 152 930 154.333333333 940.166666667 157 950.5 c 128
 159.666666667 960.833333333 162.333333333 971 165 981 c 128
 167.666666667 991 170.666666667 1000.83333333 174 1010.5 c 128
 177.333333333 1020.16666667 180.833333333 1029.83333333 184.5 1039.5 c 128
 188.166666667 1049.16666667 192 1058.83333333 196 1068.5 c 128
 200 1078.16666667 204.166666667 1087.66666667 208.5 1097 c 128
 212.833333333 1106.33333333 217.333333333 1115.66666667 222 1125 c 0
 228 1136.33333333 234 1147.16666667 240 1157.5 c 128
 246 1167.83333333 252.333333333 1178.33333333 259 1189 c 128
 265.666666667 1199.66666667 272.5 1210 279.5 1220 c 128
 286.5 1230 293.833333333 1239.83333333 301.5 1249.5 c 128
 309.166666667 1259.16666667 317 1269 325 1279 c 0
 365.666666667 1326.33333333 411.666666667 1367.33333333 463 1402 c 0
 475.666666667 1410.66666667 488.666666667 1418.83333333 502 1426.5 c 128
 515.333333333 1434.16666667 529 1441.5 543 1448.5 c 128
 557 1455.5 571.166666667 1462 585.5 1468 c 128
 599.833333333 1474 614.333333333 1479.33333333 629 1484 c 0
 689 1504 752.333333333 1514 819 1514 c 0
 885 1514 946 1501.66666667 1002 1477 c 0
 1030 1465 1056.5 1450.83333333 1081.5 1434.5 c 128
 1106.5 1418.16666667 1130 1399.66666667 1152 1379 c 0
 1196.66666667 1338.33333333 1236.33333333 1291 1271 1237 c 0
 1305 1183 1333.66666667 1126.66666667 1357 1068 c 0
 1364.33333333 1048.66666667 1371.33333333 1029 1378 1009 c 128
 1384.66666667 989 1390.5 969 1395.5 949 c 128
 1400.5 929 1405 909 1409 889 c 0
 1421 828.333333333 1427 770.666666667 1427 716 c 0
 1427 621.333333333 1413.33333333 529.666666667 1386 441 c 0
 1372.66666667 397 1355.33333333 354 1334 312 c 0
 1313.33333333 270.666666667 1289.33333333 231.333333333 1262 194 c 1
 1262 186 l 2
 1262 180.666666667 1266.66666667 172.666666667 1276 162 c 0
 1286.66666667 150 1300.33333333 137.333333333 1317 124 c 0
 1334.33333333 110 1353.33333333 96.3333333333 1374 83 c 0
 1384 76.3333333333 1394 69.8333333333 1404 63.5 c 128
 1414 57.1666666667 1424 51.3333333333 1434 46 c 0
 1440.66666667 42.6666666667 1447 39.3333333333 1453 36 c 0
 1455 34.6666666667 1457 33.5 1459 32.5 c 128
 1462 31 1462 31 1465 29.5 c 128
 1467 28.5 1469 27.6666666667 1471 27 c 0
 1475 25 1475 25 1479 23 c 128
 1481.66666667 21.6666666667 1484.33333333 20.6666666667 1487 20 c 0
 1489 19.3333333333 1491 18.5 1493 17.5 c 128
 1495 16.5 1496.83333333 15.6666666667 1498.5 15 c 128
 1500.16666667 14.3333333333 1501.66666667 13.8333333333 1503 13.5 c 128
 1504.33333333 13.1666666667 1505.66666667 12.6666666667 1507 12 c 0
 1512.33333333 10.6666666667 1516.66666667 10 1520 10 c 2
 1635 10 l 1
 1637 10 l 1
 1639 10 l 1
 1640 9 l 1
 1641 8 l 2
 1645 4.66666666667 1648.83333333 1.5 1652.5 -1.5 c 128
 1656.16666667 -4.5 1659.33333333 -7 1662 -9 c 0
 1664 -10.3333333333 1665.83333333 -11.6666666667 1667.5 -13 c 128
 1669.16666667 -14.3333333333 1670.66666667 -15.6666666667 1672 -17 c 0
 1674.66666667 -19.6666666667 1677.33333333 -22.6666666667 1680 -26 c 0
 1685.33333333 -32 1689.33333333 -39 1692 -47 c 0
 1695.33333333 -55 1697 -65 1697 -77 c 0
 1697 -87.6666666667 1696 -97.6666666667 1694 -107 c 0
 1692 -116.333333333 1688.66666667 -124.333333333 1684 -131 c 0
 1680 -137.666666667 1675 -143.666666667 1669 -149 c 0
 1666.33333333 -151.666666667 1663.33333333 -154.166666667 1660 -156.5 c 128
 1656.66666667 -158.833333333 1653.33333333 -160.666666667 1650 -162 c 0
 1643.33333333 -165.333333333 1636.16666667 -168.166666667 1628.5 -170.5 c 128
 1620.83333333 -172.833333333 1612.66666667 -174.666666667 1604 -176 c 0
 1587.33333333 -178 1570.66666667 -179 1554 -179 c 0
 1546.66666667 -179 1539.5 -178.833333333 1532.5 -178.5 c 128
 1525.5 -178.166666667 1518.5 -177.5 1511.5 -176.5 c 128
 1504.5 -175.5 1497.33333333 -174.333333333 1490 -173 c 0
 1468.66666667 -169 1448 -163.333333333 1428 -156 c 0
 1386.66666667 -140.666666667 1347.33333333 -121 1310 -97 c 0
 1272.66666667 -73 1237.33333333 -46.6666666667 1204 -18 c 0
 1193.33333333 -8.66666666667 1182.83333333 0.5 1172.5 9.5 c 128
358 963.5 m 128
 350 941.833333333 343.333333333 919.666666667 338 897 c 0
 334 882.333333333 330.833333333 867.666666667 328.5 853 c 128
 326.166666667 838.333333333 324.333333333 823.666666667 323 809 c 128
 321.666666667 794.333333333 321 779.666666667 321 765 c 0
 321 738.333333333 322.333333333 712 325 686 c 128
 327.666666667 660 331.666666667 634.666666667 337 610 c 128
 342.333333333 585.333333333 349 561.333333333 357 538 c 0
 369 502.666666667 384 469.666666667 402 439 c 0
 408 429 414.333333333 419 421 409 c 128
 427.666666667 399 434.666666667 389.5 442 380.5 c 128
 449.333333333 371.5 457 362.666666667 465 354 c 0
 511.666666667 302 568.833333333 260.833333333 636.5 230.5 c 128
 704.166666667 200.166666667 780.666666667 185 866 185 c 0
 876.666666667 185 887.333333333 185.5 898 186.5 c 128
 908.666666667 187.5 919.666666667 189 931 191 c 0
 949.666666667 194.333333333 967.333333333 200.666666667 984 210 c 1
 983.333333333 223.333333333 979 236.333333333 971 249 c 2
 966 255 l 2
 964.666666667 257 963.166666667 259.166666667 961.5 261.5 c 128
 959 265 959 265 956.5 268.5 c 128
 954.833333333 270.833333333 953 273 951 275 c 0
 950.333333333 275.666666667 949.833333333 276.333333333 949.5 277 c 128
 949.166666667 277.666666667 948.666666667 278.5 948 279.5 c 128
 947.333333333 280.5 946.666666667 281.333333333 946 282 c 0
 943 285 943 285 940 288 c 0
 939.333333333 289.333333333 938.333333333 290.666666667 937 292 c 128
 935 294 935 294 934 295 c 0
 926.666666667 303 919 311.333333333 911 320 c 128
 903 328.666666667 894.333333333 337.333333333 885 346 c 0
 880.333333333 350.666666667 876 355.333333333 872 360 c 128
 868 364.666666667 863.666666667 369.333333333 859 374 c 0
 851 383.333333333 843.333333333 393 836 403 c 0
 832 408.333333333 828.166666667 413.5 824.5 418.5 c 128
 820.833333333 423.5 817.333333333 428.333333333 814 433 c 0
 807.333333333 443.666666667 801.666666667 454.666666667 797 466 c 0
 794.333333333 472 792 477.833333333 790 483.5 c 128
 788 489.166666667 786.333333333 495 785 501 c 0
 782.333333333 513.666666667 781 526.666666667 781 540 c 0
 781 553.333333333 783.166666667 565.5 787.5 576.5 c 128
 791.833333333 587.5 798.333333333 597 807 605 c 128
 815.666666667 613 825.333333333 619 836 623 c 128
 846.666666667 627 858.666666667 629 872 629 c 0
 884 629 895.333333333 627.333333333 906 624 c 0
 909.333333333 622.666666667 912.833333333 621.5 916.5 620.5 c 128
 920.166666667 619.5 923.666666667 618.166666667 927 616.5 c 128
 930.333333333 614.833333333 933.333333333 613 936 611 c 0
 942 607 948 602.5 954 597.5 c 128
 960 592.5 965.5 587.333333333 970.5 582 c 128
 975.5 576.666666667 980.666666667 571 986 565 c 0
 993.333333333 555.666666667 1000.16666667 545.833333333 1006.5 535.5 c 128
 1012.83333333 525.166666667 1019 514.333333333 1025 503 c 0
 1037 480.333333333 1049 458 1061 436 c 0
 1072.33333333 414.666666667 1084 394.666666667 1096 376 c 0
 1106 360.666666667 1117.33333333 347.333333333 1130 336 c 0
 1132 337.333333333 1133.83333333 339 1135.5 341 c 128
 1137.16666667 343 1139 344.833333333 1141 346.5 c 128
 1143 348.166666667 1144.66666667 349.666666667 1146 351 c 0
 1148.66666667 354.333333333 1151.66666667 357.833333333 1155 361.5 c 128
 1158.33333333 365.166666667 1161.33333333 369 1164 373 c 0
 1167.33333333 377.666666667 1170.33333333 382.5 1173 387.5 c 128
 1175.66666667 392.5 1178.33333333 397.333333333 1181 402 c 0
 1186.33333333 412.666666667 1190.66666667 424 1194 436 c 0
 1194.66666667 438.666666667 1195.5 441 1196.5 443 c 128
 1197.5 445 1198.33333333 447.333333333 1199 450 c 128
 1199.66666667 452.666666667 1200.5 455.166666667 1201.5 457.5 c 128
 1202.5 459.833333333 1203.33333333 462.166666667 1204 464.5 c 128
 1204.66666667 466.833333333 1205.33333333 469.333333333 1206 472 c 128
 1206.66666667 474.666666667 1207.33333333 477.166666667 1208 479.5 c 128
 1208.66666667 481.833333333 1209.33333333 484.333333333 1210 487 c 128
 1210.66666667 489.666666667 1211.16666667 492.333333333 1211.5 495 c 128
 1211.83333333 497.666666667 1212.33333333 500.333333333 1213 503 c 128
 1214 507 1214 507 1215 511 c 0
 1220.33333333 537.666666667 1224.66666667 563.666666667 1228 589 c 0
 1230 601.666666667 1231.5 614 1232.5 626 c 128
 1233.5 638 1234.16666667 649.666666667 1234.5 661 c 128
 1234.83333333 672.333333333 1235.16666667 682.833333333 1235.5 692.5 c 128
 1235.83333333 702.166666667 1236 711 1236 719 c 2
 1236 738 l 2
 1236 744 1235.66666667 750 1235 756 c 0
 1235 758 1234.83333333 760.166666667 1234.5 762.5 c 128
 1234 766 1234 766 1233.5 769.5 c 128
 1233.16666667 771.833333333 1233 774 1233 776 c 0
 1232.33333333 782.666666667 1231.5 789.5 1230.5 796.5 c 128
 1229 807 1229 807 1227.5 817.5 c 128
 1226.5 824.5 1225.33333333 832 1224 840 c 0
 1220 862 1215 884.166666667 1209 906.5 c 128
 1203 928.833333333 1196 951.333333333 1188 974 c 0
 1172 1019.33333333 1152 1063.33333333 1128 1106 c 0
 1125.33333333 1111.33333333 1122.33333333 1116.5 1119 1121.5 c 128
 1115.66666667 1126.5 1112.33333333 1131.66666667 1109 1137 c 0
 1102.33333333 1147 1095.66666667 1156.66666667 1089 1166 c 128
 1082.33333333 1175.33333333 1075.5 1184.33333333 1068.5 1193 c 128
 1061.5 1201.66666667 1054 1210.33333333 1046 1219 c 0
 1030.66666667 1235 1014.5 1249.5 997.5 1262.5 c 128
 980.5 1275.5 962.333333333 1287 943 1297 c 0
 905.666666667 1317 865 1327 821 1327 c 0
 809 1327 797.166666667 1326.5 785.5 1325.5 c 128
 773.833333333 1324.5 762.166666667 1323 750.5 1321 c 128
 738.833333333 1319 727.333333333 1316.66666667 716 1314 c 0
 710.666666667 1312.66666667 705.166666667 1311.16666667 699.5 1309.5 c 128
 693.833333333 1307.83333333 688.333333333 1306 683 1304 c 0
 661 1296 639.833333333 1286.66666667 619.5 1276 c 128
 599.166666667 1265.33333333 580 1253.33333333 562 1240 c 0
 524.666666667 1213.33333333 491 1181.83333333 461 1145.5 c 128
 431 1109.16666667 405.666666667 1070 385 1028 c 0
 375 1006.66666667 366 985.166666667 358 963.5 c 128
EndSplineSet
Validated: 1025
EndChar

StartChar: R
Encoding: 82 82 53
Width: 1360
GlyphClass: 2
Flags: HW
LayerCount: 2
Fore
SplineSet
196 -8 m 0
 136 -8 106 24 106 88 c 0
 106 127.333333333 132 196.666666667 184 296 c 0
 206 338 230.166666667 417 256.5 533 c 128
 282.833333333 649 304.666666667 766.5 322 885.5 c 128
 339.333333333 1004.5 348 1142.66666667 348 1300 c 1
 334.666666667 1300 320.666666667 1299 306 1297 c 0
 296.666666667 1295.66666667 289.666666667 1294.33333333 285 1293 c 0
 280.333333333 1291 275.666666667 1290 271 1290 c 0
 251 1287.33333333 239.333333333 1285.66666667 236 1285 c 0
 226.666666667 1281 217.666666667 1277.66666667 209 1275 c 0
 179 1266.33333333 160 1261.33333333 152 1260 c 1
 134 1260 l 2
 106 1260 86.6666666667 1265.66666667 76 1277 c 0
 53.3333333333 1300.33333333 42 1325.33333333 42 1352 c 0
 42 1457.33333333 227.333333333 1510.33333333 598 1511 c 0
 911.333333333 1511 1124.66666667 1465.33333333 1238 1374 c 0
 1255.33333333 1360 1266.16666667 1349.33333333 1270.5 1342 c 128
 1274.83333333 1334.66666667 1277.66666667 1330.33333333 1279 1329 c 128
 1280.33333333 1327.66666667 1281.5 1326.33333333 1282.5 1325 c 128
 1283.5 1323.66666667 1284.5 1322.16666667 1285.5 1320.5 c 128
 1286.5 1318.83333333 1287.5 1317.33333333 1288.5 1316 c 128
 1289.5 1314.66666667 1290.33333333 1313.16666667 1291 1311.5 c 0
 1291.66666667 1309.16666667 1294 1304.66666667 1298 1298 c 0
 1311.33333333 1276.66666667 1318 1253.16666667 1318 1227.5 c 128
 1318 1201.83333333 1316.66666667 1182 1314 1168 c 0
 1286.66666667 1027.33333333 1097.33333333 911.333333333 746 820 c 1
 714 812 l 2
 704 809.333333333 695 807 687 805 c 1
 700.333333333 795 716.333333333 782.333333333 735 767 c 128
 753.666666667 751.666666667 772.333333333 736.666666667 791 722 c 0
 1006.33333333 548.666666667 1144.33333333 378.666666667 1205 212 c 0
 1223 162.666666667 1232 119 1232 81 c 128
 1232 43 1224.83333333 17.8333333333 1210.5 5.5 c 128
 1196.16666667 -6.83333333333 1183.5 -15 1172.5 -19 c 128
 1161.5 -23 1150.16666667 -25 1138.5 -25 c 0
 1126.83333333 -25.6666666667 1111 -13.3333333333 1091 12 c 0
 1067.66666667 41.3333333333 1011 123.333333333 921 258 c 0
 811 420.666666667 738.666666667 518 704 550 c 1
 703 550 l 1
 697.666666667 555.333333333 688.333333333 563.166666667 675 573.5 c 128
 661.666666667 583.833333333 645.666666667 596.333333333 627 611 c 2
 570 654 l 2
 560.666666667 661.333333333 552.333333333 667.666666667 545 673 c 128
 537.666666667 678.333333333 532.5 682.166666667 529.5 684.5 c 128
 526.5 686.833333333 524.333333333 688.5 523 689.5 c 128
 521.666666667 690.5 520.333333333 691.666666667 519 693 c 128
 517.666666667 694.333333333 516.333333333 695.5 515 696.5 c 128
 513.666666667 697.5 511.333333333 699.5 508 702.5 c 128
 504.666666667 705.5 500 707.333333333 494 708 c 1
 442.666666667 419.333333333 369.666666667 194 275 32 c 1
 275 31 l 1
 251.666666667 5 225.333333333 -8 196 -8 c 0
532 1005 m 128
 531.333333333 998.333333333 531 992 531 986 c 2
 531 958 l 1
 535 959.333333333 540 960.666666667 546 962 c 0
 564 966.666666667 587.333333333 973.166666667 616 981.5 c 128
 644.666666667 989.833333333 677.333333333 999.666666667 714 1011 c 128
 750.666666667 1022.33333333 788.166666667 1034.66666667 826.5 1048 c 128
 864.833333333 1061.33333333 902.333333333 1075.33333333 939 1090 c 0
 951 1094.66666667 962.666666667 1099.33333333 974 1104 c 128
 985.333333333 1108.66666667 996.166666667 1113.5 1006.5 1118.5 c 128
 1016.83333333 1123.5 1026.66666667 1128.33333333 1036 1133 c 0
 1064 1147 1086.33333333 1161 1103 1175 c 0
 1110.33333333 1181 1115.83333333 1186.83333333 1119.5 1192.5 c 128
 1123.16666667 1198.16666667 1125 1203.33333333 1125 1208 c 128
 1125 1212.66666667 1123 1217.33333333 1119 1222 c 0
 1117.66666667 1223.33333333 1116.16666667 1224.66666667 1114.5 1226 c 128
 1112 1228 1112 1228 1109.5 1230 c 128
 1107.83333333 1231.33333333 1105.83333333 1232.66666667 1103.5 1234 c 128
 1101.16666667 1235.33333333 1098.66666667 1236.66666667 1096 1238 c 0
 1084.66666667 1243.33333333 1072 1248.66666667 1058 1254 c 0
 1056 1254.66666667 1053.83333333 1255.33333333 1051.5 1256 c 128
 1049.16666667 1256.66666667 1047 1257.33333333 1045 1258 c 128
 1043 1258.66666667 1040.83333333 1259.33333333 1038.5 1260 c 128
 1035 1261 1035 1261 1031.5 1262 c 128
 1028 1263 1028 1263 1024.5 1264 c 128
 1022.16666667 1264.66666667 1019.66666667 1265.16666667 1017 1265.5 c 128
 1014.33333333 1265.83333333 1012 1266.33333333 1010 1267 c 0
 1001.33333333 1269 992.166666667 1271 982.5 1273 c 128
 972.833333333 1275 963.333333333 1277 954 1279 c 0
 934.666666667 1282.33333333 914.333333333 1285.66666667 893 1289 c 0
 851 1295 811 1300 773 1304 c 0
 753.666666667 1306 735.666666667 1307.5 719 1308.5 c 128
 702.333333333 1309.5 687 1310.5 673 1311.5 c 128
 659 1312.5 647.666666667 1313 639 1313 c 0
 636.333333333 1313 633.833333333 1313.16666667 631.5 1313.5 c 128
 629.166666667 1313.83333333 627.166666667 1314 625.5 1314 c 128
 623 1314 623 1314 621 1314 c 0
 617 1314 617 1314 612 1314 c 128
 607 1314 607 1314 601 1314 c 2
 576 1313 l 2
 574 1313 572.333333333 1312.66666667 571 1312 c 0
 570 1312 570 1312 568 1312 c 128
 566 1312 566 1312 565 1312 c 0
 562 1312 562 1312 559.5 1312 c 128
 557 1312 557 1312 555 1312 c 2
 551 1311 l 1
 549 1307 l 1
 548.333333333 1292.33333333 547.666666667 1278 547 1264 c 128
 546.333333333 1250 545.5 1236.16666667 544.5 1222.5 c 128
 543.5 1208.83333333 542.666666667 1195.33333333 542 1182 c 0
 542 1179.33333333 541.833333333 1176.5 541.5 1173.5 c 128
 541.166666667 1170.5 541 1167.5 541 1164.5 c 128
 541 1161.5 540.833333333 1158.66666667 540.5 1156 c 128
 540.166666667 1153.33333333 540 1150.5 540 1147.5 c 128
 540 1144.5 539.666666667 1141.33333333 539 1138 c 0
 539 1136 539 1136 539 1133.5 c 128
 539 1131 539 1131 539 1129 c 0
 538.333333333 1110.33333333 537.5 1092.33333333 536.5 1075 c 128
 535.5 1057.66666667 534.333333333 1041.33333333 533 1026 c 0
 533 1018.66666667 532.666666667 1011.66666667 532 1005 c 128
EndSplineSet
Validated: 1
EndChar

StartChar: S
Encoding: 83 83 54
Width: 1310
GlyphClass: 2
Flags: HW
LayerCount: 2
Fore
SplineSet
101 168 m 0
 93.6666666667 176.666666667 87 185.333333333 81 194 c 0
 62.3333333333 222.666666667 53 255 53 291 c 0
 53 317 61 339.333333333 77 358 c 0
 93.6666666667 376.666666667 116.333333333 386 145 386 c 0
 161 386 177.333333333 381 194 371 c 0
 209.333333333 361.666666667 226.333333333 349.666666667 245 335 c 0
 263 321 282.666666667 306 304 290 c 128
 325.333333333 274 348.833333333 259.333333333 374.5 246 c 128
 400.166666667 232.666666667 428.666666667 221.666666667 460 213 c 0
 490.666666667 203.666666667 524.666666667 199 562 199 c 0
 571.333333333 199 581.166666667 199.333333333 591.5 200 c 128
 601.833333333 200.666666667 612.5 201.5 623.5 202.5 c 128
 634.5 203.5 646 204.666666667 658 206 c 0
 694 210.666666667 731.166666667 217.833333333 769.5 227.5 c 128
 807.833333333 237.166666667 845 249.333333333 881 264 c 0
 899 271.333333333 916 279.5 932 288.5 c 128
 948 297.5 963 307.666666667 977 319 c 0
 1005 340.333333333 1027.33333333 364.666666667 1044 392 c 0
 1052 405.333333333 1058.16666667 419.666666667 1062.5 435 c 128
 1066.83333333 450.333333333 1069 466.666666667 1069 484 c 0
 1069 507.333333333 1063.33333333 528.333333333 1052 547 c 0
 1040 567 1024.66666667 584.666666667 1006 600 c 0
 996.666666667 608 986.666666667 615.166666667 976 621.5 c 128
 965.333333333 627.833333333 954.166666667 633.666666667 942.5 639 c 128
 930.833333333 644.333333333 919.333333333 649.166666667 908 653.5 c 128
 896.666666667 657.833333333 885.333333333 661.333333333 874 664 c 2
 421 779 l 2
 415.666666667 780.333333333 410.166666667 781.833333333 404.5 783.5 c 128
 398.833333333 785.166666667 393.166666667 787 387.5 789 c 128
 381.833333333 791 376.166666667 792.833333333 370.5 794.5 c 128
 364.833333333 796.166666667 359.166666667 798 353.5 800 c 128
 347.833333333 802 342.333333333 804.166666667 337 806.5 c 128
 331.666666667 808.833333333 326 811 320 813 c 0
 315.333333333 815 310.666666667 817.166666667 306 819.5 c 128
 299 823 299 823 292 826.5 c 128
 287.333333333 828.833333333 282.833333333 831.166666667 278.5 833.5 c 128
 274.166666667 835.833333333 269.833333333 838.333333333 265.5 841 c 128
 259 845 259 845 252.5 849 c 128
 248.166666667 851.666666667 244 854.333333333 240 857 c 128
 236 859.666666667 232 862.666666667 228 866 c 0
 200 886.666666667 175.666666667 911 155 939 c 128
 134.333333333 967 120 999 112 1035 c 0
 112 1036 l 1
 112 1037 l 1
 112 1037 l 1
 112 1097 l 2
 112 1155 121.333333333 1208 140 1256 c 0
 149.333333333 1280 160.333333333 1302.5 173 1323.5 c 128
 185.666666667 1344.5 200.5 1364 217.5 1382 c 128
 234.5 1400 253.166666667 1416.33333333 273.5 1431 c 128
 293.833333333 1445.66666667 316 1458.66666667 340 1470 c 128
 364 1481.33333333 389.666666667 1490.66666667 417 1498 c 0
 425.666666667 1500.66666667 434.666666667 1503 444 1505 c 128
 453.333333333 1507 462.833333333 1508.66666667 472.5 1510 c 128
 482.166666667 1511.33333333 491.666666667 1512.66666667 501 1514 c 0
 502 1514 l 2
 505 1514 505 1514 510 1514 c 128
 513.333333333 1514 517.5 1514.16666667 522.5 1514.5 c 128
 527.5 1514.83333333 532.666666667 1515 538 1515 c 128
 546 1515 546 1515 554 1515 c 0
 565.333333333 1515 576 1515.33333333 586 1516 c 0
 591.333333333 1516 595.666666667 1516.33333333 599 1517 c 0
 602 1517 602 1517 604 1517 c 128
 606 1517 606 1517 608 1517 c 0
 634 1517 634 1517 683 1517 c 0
 716.333333333 1516.33333333 753.333333333 1514.5 794 1511.5 c 128
 834.666666667 1508.5 875.666666667 1504 917 1498 c 0
 959 1492 997.333333333 1483 1032 1471 c 0
 1034 1470.33333333 1036.16666667 1469.66666667 1038.5 1469 c 128
 1040.83333333 1468.33333333 1043 1467.66666667 1045 1467 c 128
 1047 1466.33333333 1049 1465.5 1051 1464.5 c 128
 1053 1463.5 1055 1462.66666667 1057 1462 c 0
 1065 1458.66666667 1072.5 1455.16666667 1079.5 1451.5 c 128
 1086.5 1447.83333333 1093.16666667 1444 1099.5 1440 c 128
 1105.83333333 1436 1111.66666667 1431.66666667 1117 1427 c 0
 1129 1417.66666667 1138 1406.66666667 1144 1394 c 0
 1147.33333333 1388 1149.66666667 1381.83333333 1151 1375.5 c 128
 1152.33333333 1369.16666667 1153 1362.33333333 1153 1355 c 0
 1153 1348.33333333 1152.5 1342 1151.5 1336 c 128
 1150.5 1330 1149 1324.33333333 1147 1319 c 0
 1145.66666667 1316.33333333 1144.5 1313.66666667 1143.5 1311 c 128
 1142.5 1308.33333333 1141 1305.66666667 1139 1303 c 0
 1135.66666667 1297.66666667 1132.33333333 1292.66666667 1129 1288 c 0
 1121 1278.66666667 1111 1271.66666667 1099 1267 c 0
 1095 1265.66666667 1091 1264.5 1087 1263.5 c 128
 1083 1262.5 1078.83333333 1261.66666667 1074.5 1261 c 128
 1070.16666667 1260.33333333 1065.66666667 1260 1061 1260 c 2
 1049 1260 l 1
 1048 1260 l 1
 1047 1260 l 2
 973.666666667 1276 900.666666667 1290.66666667 828 1304 c 0
 810 1307 810 1307 792 1310 c 128
 780 1312 767.833333333 1313.66666667 755.5 1315 c 128
 743.166666667 1316.33333333 731 1317.66666667 719 1319 c 0
 700.333333333 1320.33333333 681.833333333 1321.5 663.5 1322.5 c 128
 645.166666667 1323.5 626.666666667 1324 608 1324 c 0
 600.666666667 1324 593.5 1323.83333333 586.5 1323.5 c 128
 579.5 1323.16666667 572.666666667 1322.83333333 566 1322.5 c 128
 559.333333333 1322.16666667 552.666666667 1321.66666667 546 1321 c 128
 536 1320 536 1320 526 1319 c 0
 512.666666667 1317.66666667 500 1315.66666667 488 1313 c 0
 478.666666667 1311 469.666666667 1308.66666667 461 1306 c 0
 459 1305.33333333 456.833333333 1304.66666667 454.5 1304 c 128
 452.166666667 1303.33333333 450 1302.66666667 448 1302 c 128
 445 1301 445 1301 442 1300 c 128
 439 1299 439 1299 436 1298 c 128
 434 1297.33333333 432 1296.5 430 1295.5 c 128
 428 1294.5 426 1293.66666667 424 1293 c 128
 422 1292.33333333 420 1291.5 418 1290.5 c 128
 416 1289.5 414.333333333 1288.33333333 413 1287 c 0
 402 1281 402 1281 391 1275 c 0
 363.666666667 1257 342 1233.33333333 326 1204 c 0
 318 1189.33333333 312 1172.66666667 308 1154 c 128
 304 1135.33333333 302 1114.66666667 302 1092 c 0
 302 1074.66666667 306.333333333 1059.66666667 315 1047 c 0
 315.666666667 1046.33333333 316.166666667 1045.5 316.5 1044.5 c 128
 316.833333333 1043.5 317.333333333 1042.66666667 318 1042 c 128
 318.666666667 1041.33333333 319 1040.66666667 319 1040 c 0
 320.333333333 1038 322 1036 324 1034 c 128
 327 1031 327 1031 330 1028 c 128
 333 1025 333 1025 336 1022 c 128
 338 1020 340 1018.16666667 342 1016.5 c 128
 344 1014.83333333 346 1013 348 1011 c 0
 352.666666667 1007.66666667 357.5 1004.5 362.5 1001.5 c 128
 367.5 998.5 372.666666667 995.666666667 378 993 c 0
 382 991 382 991 386 989 c 128
 390 987 390 987 394 985 c 0
 411.333333333 977.666666667 428 972.333333333 444 969 c 2
 879 859 l 2
 891 856.333333333 902.833333333 853.166666667 914.5 849.5 c 128
 926.166666667 845.833333333 938 841.666666667 950 837 c 0
 973.333333333 829 996.666666667 819.666666667 1020 809 c 0
 1065.33333333 787.666666667 1105.33333333 762 1140 732 c 0
 1152 722 1163 711 1173 699 c 0
 1178.33333333 693 1183.33333333 687 1188 681 c 128
 1195 672 1195 672 1202 663 c 0
 1210.66666667 650.333333333 1218.66666667 637 1226 623 c 0
 1248 581 1259 533.666666667 1259 481 c 0
 1259 462.333333333 1257.83333333 444.333333333 1255.5 427 c 128
 1253.16666667 409.666666667 1249.5 393 1244.5 377 c 128
 1239.5 361 1233.66666667 345.333333333 1227 330 c 0
 1216.33333333 307.333333333 1203.66666667 286 1189 266 c 128
 1174.33333333 246 1158.33333333 227 1141 209 c 0
 1132.33333333 200.333333333 1123 191.833333333 1113 183.5 c 128
 1103 175.166666667 1093 167 1083 159 c 0
 1062.33333333 143.666666667 1040.33333333 129.666666667 1017 117 c 0
 969 91.6666666667 919 70.3333333333 867 53 c 0
 841 44.3333333333 814.666666667 37 788 31 c 128
 761.333333333 25 734.833333333 19.8333333333 708.5 15.5 c 128
 682.166666667 11.1666666667 656.5 8 631.5 6 c 128
 606.5 4 582.333333333 3 559 3 c 0
 533.666666667 3 503.666666667 5.16666666667 469 9.5 c 128
 434.333333333 13.8333333333 398.333333333 20.6666666667 361 30 c 0
 355.666666667 31.3333333333 350.333333333 33 345 35 c 0
 342.333333333 35.6666666667 339.5 36.3333333333 336.5 37 c 128
 333.5 37.6666666667 330.666666667 38.3333333333 328 39 c 0
 322.666666667 40.3333333333 317.333333333 41.8333333333 312 43.5 c 128
 306.666666667 45.1666666667 301.333333333 47 296 49 c 0
 294 49.6666666667 292.166666667 50.3333333333 290.5 51 c 128
 288 52 288 52 285.5 53 c 128
 283.833333333 53.6666666667 282.333333333 54.3333333333 281 55 c 0
 273 58 273 58 265 61 c 128
 259.666666667 63 254.666666667 65 250 67 c 0
 213.333333333 81.6666666667 180.666666667 99.6666666667 152 121 c 0
 142.666666667 128.333333333 133.666666667 135.666666667 125 143 c 0
 119 149 119 149 112.5 155.5 c 128
 108.166666667 159.833333333 104.333333333 164 101 168 c 0
EndSplineSet
Validated: 1
EndChar

StartChar: T
Encoding: 84 84 55
Width: 1274
GlyphClass: 2
Flags: HW
LayerCount: 2
Fore
SplineSet
1307 1373 m 1
 1306.06445312 1365 l 1
 1306.06445312 1357.66666667 1304.89778645 1352.33333333 1302.56445312 1349 c 128
 1300.23111979 1345.66666667 1298.89778645 1343.33333333 1298.56445312 1342 c 128
 1298.23111979 1340.66666667 1297.73111979 1339.16666667 1297.06445312 1337.5 c 128
 1296.39778645 1335.83333333 1295.39778645 1334.33333333 1294.06445312 1333 c 128
 1292.73111979 1331.66666667 1291.39778645 1329.66666667 1290.06445312 1327 c 0
 1278.06445312 1302.33333333 1253.06445312 1290 1215.06445312 1290 c 0
 1207.06445312 1290 1199.23111979 1290.16666667 1191.56445312 1290.5 c 128
 1180.06445312 1291 1180.06445312 1291 1168.56445312 1291.5 c 128
 1157.06445312 1292 1157.06445312 1292 1145.56445312 1292.5 c 128
 1137.89778645 1292.83333333 1130.23111979 1293.33333333 1122.56445312 1294 c 128
 1114.89778645 1294.66666667 1107.39778645 1295.33333333 1100.06445312 1296 c 0
 1040.73111979 1304 985.397786455 1308 934.064453125 1308 c 2
 822.064453125 1308 l 1
 787.064453125 828 l 2
 785.731119792 824 784.397786458 816.666666667 783.064453125 806 c 0
 779.064453125 775.333333333 776.064453125 753.666666667 774.064453125 741 c 0
 769.397786458 713.666666667 766.064453125 692.333333333 764.064453125 677 c 0
 757.397786458 637.666666667 753.397786458 614.333333333 752.064453125 607 c 0
 749.397786458 588.333333333 745.731119792 567.333333333 741.064453125 544 c 0
 737.064453125 524 734.231119792 509.666666667 732.564453125 501 c 128
 730.897786458 492.333333333 727.231119792 477.5 721.564453125 456.5 c 128
 715.897786458 435.5 709.897786458 412.666666667 703.564453125 388 c 128
 697.231119792 363.333333333 690.897786458 339.5 684.564453125 316.5 c 128
 678.231119792 293.5 673.564453125 276.333333333 670.564453125 265 c 128
 667.564453125 253.666666667 664.064453125 239.666666667 660.064453125 223 c 128
 656.064453125 206.333333333 652.231119792 192 648.564453125 180 c 128
 644.897786458 168 642.231119792 159.5 640.564453125 154.5 c 128
 638.897786458 149.5 637.064453125 144.5 635.064453125 139.5 c 128
 633.064453125 134.5 630.231119792 127.666666667 626.564453125 119 c 128
 622.897786458 110.333333333 620.564453125 104.833333333 619.564453125 102.5 c 128
 618.564453125 100.166666667 618.064453125 98.6666666667 618.064453125 98 c 0
 615.064453125 92 615.064453125 92 615.064453125 92 c 0
 613.064453125 90 611.397786458 87.3333333333 610.064453125 84 c 1
 599.064453125 65 l 2
 597.064453125 62.3333333333 592.731119792 56 586.064453125 46 c 0
 564.064453125 16 535.397786458 1 500.064453125 1 c 0
 496.731119792 1 492.731119792 1.33333333333 488.064453125 2 c 128
 483.397786458 2.66666666667 479.731119792 3.16666666667 477.064453125 3.5 c 128
 474.397786458 3.83333333333 471.897786458 4.5 469.564453125 5.5 c 128
 467.231119792 6.5 462.731119792 8.33333333333 456.064453125 11 c 128
 449.397786458 13.6666666667 442.564453125 18.1666666667 435.564453125 24.5 c 128
 428.564453125 30.8333333333 423.231119792 36.3333333333 419.564453125 41 c 128
 415.897786458 45.6666666667 412.731119792 50.6666666667 410.064453125 56 c 0
 404.731119792 66.6666666667 402.064453125 78 402.064453125 90 c 0
 402.064453125 124.666666667 411.231119792 163 429.564453125 205 c 128
 447.897786458 247 462.064453125 279.166666667 472.064453125 301.5 c 128
 482.064453125 323.833333333 489.064453125 344 493.064453125 362 c 0
 577.731119792 675.333333333 620.064453125 990.666666667 620.064453125 1308 c 2
 620.064453125 1310 l 1
 205.064453125 1321 l 1
 171.064453125 1321 147.397786458 1342.33333333 134.064453125 1385 c 0
 131.397786458 1393.66666667 130.064453125 1403.33333333 130.064453125 1414 c 0
 130.064453125 1423.33333333 131.397786458 1433.33333333 134.064453125 1444 c 1
 145.064453125 1468 l 1
 157.064453125 1492 175.064453125 1504 199.064453125 1504 c 2
 977.064453125 1504 l 1
 1023.06445312 1505 l 2
 1056.06445312 1505 1056.06445312 1505 1090.06445312 1505 c 0
 1235.39778645 1505 1308.06445312 1465.33333333 1308.06445312 1386 c 2
 1308 1380 l 1
 1307 1373 l 1
EndSplineSet
Validated: 1
EndChar

